<svg width="107" height="100" viewBox="0 0 107 100" fill="none" xmlns="http://www.w3.org/2000/svg">
<circle cx="97.5" cy="58.5" r="4.5" fill="#3D75E3"/>
<path d="M97.8845 64.4V68.7513H93.1883V64.3898V63.5468L92.4682 63.1085C91.6294 62.5979 90.9372 61.882 90.4572 61.0297C89.9773 60.1776 89.7254 59.2174 89.7254 58.2413C89.7254 57.2652 89.9773 56.3051 90.4572 55.4529C90.9372 54.6007 91.6294 53.8847 92.4682 53.3741L93.1883 52.9358V52.0928V34.386V32.0275L91.0523 33.0275L53.8226 50.4564C53.72 50.4989 53.6098 50.5209 53.4981 50.5209C53.3841 50.5209 53.2714 50.4979 53.1669 50.4535L2.38065 27.4823C2.11818 27.3401 1.8988 27.1317 1.7444 26.8787C1.58433 26.6165 1.5 26.3161 1.5 26.0102C1.5 25.7044 1.58433 25.404 1.7444 25.1417C1.89879 24.8888 2.11815 24.6803 2.38059 24.5382L53.1794 1.56705C53.2848 1.52287 53.3982 1.5 53.513 1.5C53.6278 1.5 53.7413 1.52286 53.8466 1.56703L104.61 24.5278C104.877 24.6701 105.099 24.8803 105.256 25.1362C105.416 25.3984 105.5 25.6988 105.5 26.0047C105.5 26.3105 105.416 26.6109 105.256 26.8732C105.103 27.1226 104.888 27.3287 104.631 27.4707L98.7939 29.9707L97.8845 30.3603V31.3496V52.0974V52.9411L98.6055 53.3793C99.4453 53.8896 100.138 54.6058 100.619 55.4585C101.1 56.3111 101.352 57.2719 101.352 58.2487C101.352 59.2256 101.1 60.1864 100.619 61.039C100.138 61.8916 99.4453 62.6078 98.6055 63.1181L97.8845 63.5563V64.4ZM53.5 56.5H53.5015C54.3678 56.4991 55.3465 56.3916 56.2922 55.9825C56.2931 55.9821 56.2939 55.9817 56.2947 55.9814L84.7826 43.7717V50.5363V80.7425C84.7826 87.1964 79.549 91.6416 72.9913 94.5555C66.5073 97.4367 59.3942 98.5 57.0024 98.5H50.0088C46.7244 98.5 39.6212 97.4295 33.3839 94.5633C27.1042 91.6777 22.2341 87.2469 22.2341 80.7425V43.7711L50.7202 55.9711C50.7209 55.9714 50.7216 55.9717 50.7223 55.972C51.6669 56.3792 52.5954 56.5 53.5 56.5Z" stroke="#223355" stroke-width="3"/>
<path d="M24.5 27L50.9995 38.4998" stroke="#858585" stroke-width="2" stroke-linecap="round"/>
<path d="M29 82C31 85 39.5 92.5 53 91.5" stroke="#858585" stroke-width="2" stroke-linecap="round"/>
</svg>
