<svg width="102" height="102" viewBox="0 0 102 102" fill="none" xmlns="http://www.w3.org/2000/svg">
<circle cx="23" cy="24" r="3" fill="#3D75E3"/>
<circle cx="23" cy="78" r="3" fill="#3D75E3"/>
<circle cx="78" cy="24" r="3" fill="#3D75E3"/>
<circle cx="78" cy="78" r="3" fill="#3D75E3"/>
<path d="M1.5 12C1.5 6.20101 6.20101 1.5 12 1.5H90C95.799 1.5 100.5 6.20101 100.5 12V90C100.5 95.799 95.799 100.5 90 100.5H12C6.20101 100.5 1.5 95.799 1.5 90V12Z" stroke="#223355" stroke-width="3"/>
<path d="M34 48C34 44.6863 36.6863 42 40 42H62C65.3137 42 68 44.6863 68 48V63C68 66.3137 65.3137 69 62 69H40C36.6863 69 34 66.3137 34 63V48Z" stroke="#0B244E" stroke-width="2"/>
<path fill-rule="evenodd" clip-rule="evenodd" d="M42.461 15.5C42.461 14.6716 41.7895 14 40.961 14H19.0508C15.7371 14 13.0508 16.6863 13.0508 20V44.7564C13.0508 45.5848 13.7224 46.2564 14.5508 46.2564C15.3792 46.2564 16.0508 45.5848 16.0508 44.7564V20C16.0508 18.3431 17.3939 17 19.0508 17H40.961C41.7895 17 42.461 16.3284 42.461 15.5ZM61.9867 17C61.1583 17 60.4867 16.3284 60.4867 15.5C60.4867 14.6716 61.1583 14 61.9867 14H82.9482C86.2619 14 88.9482 16.6863 88.9482 20V44.7564C88.9482 45.5848 88.2766 46.2564 87.4482 46.2564C86.6198 46.2564 85.9482 45.5848 85.9482 44.7564V20C85.9482 18.3431 84.6051 17 82.9482 17H61.9867ZM60.4867 86.5C60.4867 85.6716 61.1583 85 61.9867 85H82.9482C84.6051 85 85.9482 83.6569 85.9482 82V65.782C85.9482 64.9536 86.6198 64.282 87.4482 64.282C88.2766 64.282 88.9482 64.9536 88.9482 65.782V82C88.9482 85.3137 86.2619 88 82.9482 88H61.9867C61.1583 88 60.4867 87.3284 60.4867 86.5ZM14.5508 64.282C15.3792 64.282 16.0508 64.9536 16.0508 65.782V82C16.0508 83.6569 17.3939 85 19.0508 85H40.961C41.7895 85 42.461 85.6716 42.461 86.5C42.461 87.3284 41.7895 88 40.961 88H19.0508C15.7371 88 13.0508 85.3137 13.0508 82V65.782C13.0508 64.9536 13.7224 64.282 14.5508 64.282Z" fill="#858585"/>
<line x1="46.5858" y1="42" x2="40" y2="35.4142" stroke="#0B244E" stroke-width="2" stroke-linecap="round"/>
<line x1="1" y1="-1" x2="10.3137" y2="-1" transform="matrix(0.707107 -0.707107 -0.707107 -0.707107 53 42)" stroke="#0B244E" stroke-width="2" stroke-linecap="round"/>
<rect x="43" y="51" width="3" height="9" rx="1.5" fill="#858585"/>
<path d="M30 53C30 51.8954 30.8954 51 32 51H34V61H32C30.8954 61 30 60.1046 30 59V53Z" stroke="#0B244E" stroke-width="2"/>
<path d="M72 53C72 51.8954 71.1046 51 70 51H68V61H70C71.1046 61 72 60.1046 72 59V53Z" stroke="#0B244E" stroke-width="2"/>
<rect x="56" y="51" width="3" height="9" rx="1.5" fill="#858585"/>
</svg>
