<svg width="285" height="175" viewBox="0 0 285 175" fill="none" xmlns="http://www.w3.org/2000/svg">
<path d="M0 12C0 5.37259 5.37258 0 12 0H273C279.627 0 285 5.37258 285 12V175H0V12Z" fill="#0A244E"/>
<path d="M50 34.8171V19.2057H55.3609C57.7662 19.2057 59.5911 19.8686 60.8355 21.1943C62.08 22.52 62.7022 24.4629 62.7022 27.0229C62.7022 29.5676 62.08 31.5029 60.8355 32.8286C59.5987 34.1543 57.7738 34.8171 55.3609 34.8171H50ZM52.7999 32.2686H55.3609C56.9771 32.2686 58.138 31.861 58.8437 31.0457C59.557 30.2229 59.9136 28.8819 59.9136 27.0229C59.9136 25.1486 59.557 23.8038 58.8437 22.9886C58.138 22.1657 56.9771 21.7543 55.3609 21.7543H52.7999V32.2686Z" fill="#A6B8D5"/>
<path d="M66.1623 34.8171V19.2057H68.9622V34.8171H66.1623Z" fill="#A6B8D5"/>
<path d="M72.7638 30.3714C72.4678 29.4038 72.3199 28.28 72.3199 27C72.3199 25.72 72.4678 24.5962 72.7638 23.6286C73.0597 22.661 73.4391 21.8914 73.9019 21.32C74.3724 20.741 74.9377 20.2724 75.5978 19.9143C76.258 19.5486 76.903 19.3048 77.5328 19.1829C78.1626 19.061 78.8417 19 79.5701 19C81.156 19 82.7267 19.3086 84.2822 19.9257V22.5543C82.8026 21.8686 81.3153 21.5257 79.8205 21.5257C79.1224 21.5257 78.523 21.5905 78.0222 21.72C77.529 21.8419 77.0433 22.0819 76.5653 22.44C76.0948 22.7981 75.7344 23.3581 75.484 24.12C75.2412 24.8819 75.1198 25.8419 75.1198 27C75.1198 28.1581 75.2412 29.1181 75.484 29.88C75.7344 30.6419 76.0948 31.2019 76.5653 31.56C77.0433 31.9181 77.529 32.1619 78.0222 32.2914C78.523 32.4133 79.1224 32.4743 79.8205 32.4743C81.3153 32.4743 82.8026 32.1314 84.2822 31.4457V34.0629C82.7267 34.6876 81.156 35 79.5701 35C78.8417 35 78.1626 34.939 77.5328 34.8171C76.903 34.6952 76.258 34.4552 75.5978 34.0971C74.9377 33.7314 74.3724 33.2629 73.9019 32.6914C73.4391 32.1124 73.0597 31.339 72.7638 30.3714Z" fill="#A6B8D5"/>
<path d="M87.3781 34.8171V19.2057H97.7242V21.7314H90.178V25.6857H96.7226V28.3371H90.178V32.2914H97.7242V34.8171H87.3781Z" fill="#A6B8D5"/>
<path d="M99.9551 27.0229C99.9551 25.7429 100.103 24.619 100.399 23.6514C100.695 22.6838 101.074 21.9143 101.537 21.3429C102.008 20.7638 102.573 20.2952 103.233 19.9371C103.893 19.5714 104.538 19.3276 105.168 19.2057C105.798 19.0838 106.477 19.0229 107.205 19.0229C107.934 19.0229 108.613 19.0838 109.243 19.2057C109.872 19.3276 110.517 19.5714 111.178 19.9371C111.838 20.2952 112.403 20.7638 112.873 21.3429C113.352 21.9143 113.739 22.6838 114.034 23.6514C114.33 24.619 114.478 25.7429 114.478 27.0229C114.478 28.2876 114.33 29.4076 114.034 30.3829C113.739 31.3581 113.352 32.1314 112.873 32.7029C112.403 33.2667 111.838 33.7314 111.178 34.0971C110.517 34.4552 109.872 34.6952 109.243 34.8171C108.613 34.939 107.934 35 107.205 35C106.477 35 105.798 34.939 105.168 34.8171C104.538 34.6952 103.893 34.4552 103.233 34.0971C102.573 33.7314 102.008 33.2667 101.537 32.7029C101.074 32.1314 100.695 31.3581 100.399 30.3829C100.103 29.4076 99.9551 28.2876 99.9551 27.0229ZM102.755 27C102.755 28.1733 102.869 29.1448 103.096 29.9143C103.332 30.6838 103.673 31.2514 104.121 31.6171C104.576 31.9752 105.039 32.219 105.509 32.3486C105.987 32.4781 106.553 32.5429 107.205 32.5429C107.736 32.5429 108.196 32.5086 108.583 32.44C108.97 32.3714 109.368 32.2267 109.778 32.0057C110.187 31.7771 110.521 31.4648 110.779 31.0686C111.037 30.6648 111.25 30.12 111.417 29.4343C111.591 28.7486 111.678 27.9371 111.678 27C111.678 25.8419 111.561 24.8781 111.326 24.1086C111.098 23.339 110.753 22.7752 110.29 22.4171C109.835 22.0514 109.372 21.8076 108.901 21.6857C108.438 21.5638 107.873 21.5029 107.205 21.5029C106.689 21.5029 106.238 21.5371 105.851 21.6057C105.464 21.6743 105.062 21.8229 104.644 22.0514C104.235 22.28 103.901 22.5886 103.643 22.9771C103.392 23.3657 103.18 23.899 103.005 24.5771C102.838 25.2552 102.755 26.0629 102.755 27Z" fill="#A6B8D5"/>
<path d="M117.301 23.56C117.301 22.059 117.828 20.9276 118.883 20.1657C119.938 19.4038 121.258 19.0229 122.844 19.0229C124.24 19.0229 125.633 19.381 127.021 20.0971V22.8286C125.822 22.0362 124.54 21.64 123.174 21.64C122.317 21.64 121.588 21.7886 120.989 22.0857C120.397 22.3829 120.101 22.8514 120.101 23.4914C120.101 24.0095 120.37 24.4171 120.909 24.7143C121.455 25.0038 122.112 25.2514 122.878 25.4571C123.652 25.6552 124.426 25.9067 125.2 26.2114C125.982 26.5162 126.642 27.0457 127.181 27.8C127.727 28.5467 128 29.5143 128 30.7029C128 31.9676 127.48 33 126.441 33.8C125.401 34.6 124.134 35 122.639 35C120.666 35 118.955 34.5581 117.506 33.6743V30.8171C118.841 31.8152 120.336 32.3143 121.99 32.3143C124.13 32.3143 125.2 31.7162 125.2 30.52C125.2 29.979 125.007 29.5295 124.62 29.1714C124.233 28.8133 123.743 28.5505 123.151 28.3829C122.559 28.2076 121.926 28.0057 121.251 27.7771C120.575 27.541 119.942 27.2857 119.35 27.0114C118.758 26.7371 118.268 26.3105 117.882 25.7314C117.495 25.1448 117.301 24.421 117.301 23.56Z" fill="#A6B8D5"/>
<rect x="17" y="15" width="24" height="24" rx="4" fill="url(#paint0_linear)"/>
<circle cx="23.7496" cy="32.2492" r="2.0914" fill="#FCECC2"/>
<circle cx="23.7496" cy="22.0914" r="2.0914" fill="#FCECC2"/>
<circle cx="29.1275" cy="27.1709" r="2.0914" fill="#FCECC2"/>
<circle cx="33.9085" cy="22.0915" r="2.0914" fill="#FCECC2"/>
<circle cx="33.9085" cy="32.2493" r="2.0914" fill="#FCECC2"/>
<path d="M213.525 78H22C21.1854 78 20 79.1193 20 80.5C20 81.8807 21.1854 83 22 83H213.525C214.34 83 215 81.8807 215 80.5C215 79.1193 214.34 78 213.525 78Z" fill="#50709E"/>
<path d="M263 78H145.481C144.663 78 144 79.1193 144 80.5C144 81.8807 144.663 83 145.481 83H263C263.818 83 265 81.8807 265 80.5C265 79.1193 263.818 78 263 78Z" fill="url(#paint1_linear)"/>
<path d="M149 80C149 83.3137 146.314 86 143 86C139.686 86 137 83.3137 137 80C137 76.6863 139.686 74 143 74C146.314 74 149 76.6863 149 80Z" fill="url(#paint2_linear)"/>
<path d="M19 133C19 123.611 26.9349 116 36.7231 116H249.277C259.065 116 267 123.611 267 133C267 142.389 259.065 150 249.277 150H36.7231C26.9349 150 19 142.389 19 133Z" fill="url(#paint3_linear)" fill-opacity="0.5"/>
<path fill-rule="evenodd" clip-rule="evenodd" d="M43 144C49.0751 144 54 139.075 54 133C54 126.925 49.0751 122 43 122C36.9249 122 32 126.925 32 133C32 139.075 36.9249 144 43 144Z" fill="url(#paint4_linear)"/>
<path d="M226.719 136.888C226.495 136.888 226.317 136.822 226.185 136.689C226.062 136.556 226 136.369 226 136.129V128.871C226 128.631 226.062 128.444 226.185 128.311C226.317 128.178 226.495 128.112 226.719 128.112H230.904C231.128 128.112 231.302 128.166 231.425 128.274C231.549 128.382 231.611 128.535 231.611 128.734C231.611 128.942 231.549 129.104 231.425 129.22C231.302 129.328 231.128 129.382 230.904 129.382H227.461V131.797H230.672C230.896 131.797 231.07 131.851 231.194 131.959C231.317 132.066 231.379 132.224 231.379 132.432C231.379 132.631 231.317 132.784 231.194 132.892C231.07 133 230.896 133.054 230.672 133.054H227.461V135.618H230.904C231.128 135.618 231.302 135.676 231.425 135.793C231.549 135.9 231.611 136.058 231.611 136.266C231.611 136.465 231.549 136.618 231.425 136.726C231.302 136.834 231.128 136.888 230.904 136.888H226.719Z" fill="#AED0EB"/>
<path d="M236.517 137C235.721 137 235.029 136.817 234.442 136.452C233.862 136.087 233.414 135.564 233.097 134.884C232.78 134.203 232.621 133.407 232.621 132.494C232.621 131.581 232.776 130.788 233.085 130.116C233.402 129.436 233.854 128.913 234.442 128.548C235.029 128.183 235.721 128 236.517 128C237.313 128 238.001 128.183 238.58 128.548C239.168 128.913 239.616 129.436 239.925 130.116C240.242 130.788 240.4 131.581 240.4 132.494C240.4 133.407 240.242 134.203 239.925 134.884C239.608 135.564 239.156 136.087 238.569 136.452C237.989 136.817 237.305 137 236.517 137ZM236.517 135.718C237.266 135.718 237.85 135.44 238.267 134.884C238.692 134.328 238.905 133.531 238.905 132.494C238.905 131.456 238.692 130.664 238.267 130.116C237.85 129.56 237.266 129.282 236.517 129.282C235.759 129.282 235.168 129.56 234.743 130.116C234.326 130.664 234.117 131.456 234.117 132.494C234.117 133.531 234.326 134.328 234.743 134.884C235.168 135.44 235.759 135.718 236.517 135.718Z" fill="#AED0EB"/>
<path d="M244.812 137C244.217 137 243.653 136.917 243.119 136.751C242.594 136.577 242.165 136.344 241.833 136.054C241.655 135.913 241.566 135.714 241.566 135.456C241.566 135.282 241.612 135.133 241.705 135.008C241.806 134.876 241.921 134.809 242.053 134.809C242.192 134.809 242.35 134.867 242.528 134.983C242.86 135.241 243.208 135.427 243.572 135.544C243.935 135.66 244.337 135.718 244.777 135.718C245.341 135.718 245.774 135.614 246.076 135.407C246.377 135.191 246.528 134.88 246.528 134.473C246.528 134.158 246.385 133.917 246.099 133.751C245.821 133.577 245.353 133.411 244.696 133.253C244.016 133.095 243.463 132.913 243.038 132.705C242.613 132.498 242.292 132.232 242.076 131.909C241.86 131.585 241.751 131.174 241.751 130.676C241.751 130.162 241.887 129.701 242.157 129.295C242.428 128.888 242.803 128.573 243.282 128.349C243.769 128.116 244.313 128 244.916 128C246.021 128 246.922 128.315 247.617 128.946C247.718 129.037 247.787 129.129 247.826 129.22C247.872 129.303 247.896 129.411 247.896 129.544C247.896 129.718 247.845 129.871 247.745 130.004C247.652 130.129 247.54 130.191 247.409 130.191C247.331 130.191 247.258 130.178 247.188 130.154C247.127 130.129 247.042 130.083 246.933 130.017C246.617 129.768 246.307 129.585 246.006 129.469C245.712 129.344 245.349 129.282 244.916 129.282C244.391 129.282 243.973 129.398 243.664 129.631C243.363 129.855 243.212 130.17 243.212 130.577C243.212 130.917 243.347 131.178 243.618 131.361C243.888 131.544 244.348 131.714 244.997 131.871C245.685 132.037 246.242 132.224 246.667 132.432C247.1 132.631 247.428 132.888 247.652 133.203C247.884 133.519 248 133.913 248 134.386C248 134.9 247.865 135.357 247.594 135.755C247.331 136.145 246.957 136.452 246.47 136.676C245.991 136.892 245.438 137 244.812 137Z" fill="#AED0EB"/>
<path d="M137.842 135.593C138.321 135.593 138.56 135.805 138.56 136.228C138.56 136.668 138.321 136.888 137.842 136.888H133.801C133.315 136.888 133.072 136.668 133.072 136.228C133.072 135.805 133.315 135.593 133.801 135.593H135.045V129.917L133.897 130.651C133.785 130.718 133.686 130.751 133.598 130.751C133.43 130.751 133.287 130.676 133.167 130.527C133.056 130.378 133 130.212 133 130.029C133 129.788 133.104 129.602 133.311 129.469L135.164 128.274C135.403 128.124 135.63 128.05 135.846 128.05C136.069 128.05 136.248 128.12 136.384 128.261C136.519 128.402 136.587 128.598 136.587 128.846V135.593H137.842Z" fill="#AED0EB"/>
<path d="M142.683 137C141.687 137 140.926 136.618 140.399 135.855C139.873 135.083 139.61 133.963 139.61 132.494C139.61 131.033 139.873 129.921 140.399 129.158C140.926 128.386 141.687 128 142.683 128C143.68 128 144.441 128.386 144.967 129.158C145.493 129.921 145.756 131.033 145.756 132.494C145.756 133.954 145.493 135.071 144.967 135.842C144.441 136.614 143.68 137 142.683 137ZM142.683 135.743C143.225 135.743 143.62 135.485 143.867 134.971C144.114 134.448 144.238 133.622 144.238 132.494C144.238 131.357 144.114 130.535 143.867 130.029C143.62 129.515 143.225 129.257 142.683 129.257C142.141 129.257 141.747 129.515 141.499 130.029C141.252 130.544 141.129 131.365 141.129 132.494C141.129 133.622 141.252 134.448 141.499 134.971C141.747 135.485 142.141 135.743 142.683 135.743Z" fill="#AED0EB"/>
<path d="M149.927 137C148.931 137 148.17 136.618 147.643 135.855C147.117 135.083 146.854 133.963 146.854 132.494C146.854 131.033 147.117 129.921 147.643 129.158C148.17 128.386 148.931 128 149.927 128C150.924 128 151.685 128.386 152.211 129.158C152.737 129.921 153 131.033 153 132.494C153 133.954 152.737 135.071 152.211 135.842C151.685 136.614 150.924 137 149.927 137ZM149.927 135.743C150.469 135.743 150.864 135.485 151.111 134.971C151.358 134.448 151.482 133.622 151.482 132.494C151.482 131.357 151.358 130.535 151.111 130.029C150.864 129.515 150.469 129.257 149.927 129.257C149.385 129.257 148.991 129.515 148.743 130.029C148.496 130.544 148.373 131.365 148.373 132.494C148.373 133.622 148.496 134.448 148.743 134.971C148.991 135.485 149.385 135.743 149.927 135.743Z" fill="#AED0EB"/>
<path fill-rule="evenodd" clip-rule="evenodd" d="M43.5 126C43.5916 125.999 43.6806 126.042 43.739 126.12L46.5651 129.869C46.5757 129.883 46.5852 129.897 46.5934 129.913C46.5991 129.923 46.6042 129.934 46.6087 129.945C46.6155 129.962 46.6208 129.98 46.6246 129.998L47.9918 136.064C47.9932 136.07 47.9945 136.077 47.9955 136.083C48.0028 136.126 48.0012 136.17 47.9908 136.212C47.9844 136.238 47.9745 136.264 47.9612 136.288C47.9359 136.335 47.8989 136.374 47.8524 136.403L43.6545 138.957C43.6066 138.986 43.5532 139 43.5 139C43.4469 139 43.3934 138.986 43.3455 138.957L39.1476 136.403C39.0395 136.337 38.983 136.209 39.0045 136.083C39.0056 136.077 39.0068 136.07 39.0083 136.064L40.3755 129.998C40.3807 129.973 40.3889 129.949 40.3999 129.926C40.4095 129.906 40.4213 129.887 40.4349 129.869L43.2611 126.12C43.3195 126.042 43.4084 125.999 43.5 126ZM43.1979 127.212L41.0048 130.121L41.5281 131.718L43.1979 128.856V127.212ZM43.5 129.539L41.7801 132.486L42.8755 135.827H44.1245L45.2199 132.486L43.5 129.539ZM45.6254 133.181L44.7579 135.827H47.1692L45.6254 133.181ZM46.6008 136.446H44.5549L44.045 138.001L46.6008 136.446ZM43.5 137.731L43.9215 136.446H43.0785L43.5 137.731ZM42.2421 135.827L41.3746 133.181L39.8308 135.827H42.2421ZM40.0222 134.298L41.1226 132.413L40.7224 131.192L40.0222 134.298ZM40.3992 136.446H42.4451L42.955 138.001L40.3992 136.446ZM46.9778 134.298L45.8774 132.413L46.2776 131.192L46.9778 134.298ZM45.9953 130.121L45.4719 131.718L43.8021 128.856V127.212L45.9953 130.121Z" fill="white"/>
<path d="M45.4545 156H31.5455C30.6919 156 30 156.895 30 158C30 159.105 30.6919 160 31.5455 160H45.4545C46.3081 160 47 159.105 47 158C47 156.895 46.3081 156 45.4545 156Z" fill="#3D567F"/>
<path d="M95.4545 156H81.5455C80.6919 156 80 156.895 80 158C80 159.105 80.6919 160 81.5455 160H95.4545C96.3081 160 97 159.105 97 158C97 156.895 96.3081 156 95.4545 156Z" fill="#3D567F"/>
<path d="M148.545 156H135.455C134.651 156 134 156.895 134 158C134 159.105 134.651 160 135.455 160H148.545C149.349 160 150 159.105 150 158C150 156.895 149.349 156 148.545 156Z" fill="#3D567F"/>
<path d="M154.545 104H132.455C131.651 104 131 104.895 131 106C131 107.105 131.651 108 132.455 108H154.545C155.349 108 156 107.105 156 106C156 104.895 155.349 104 154.545 104Z" fill="#3D567F"/>
<path d="M115 55.1111C115 54.4975 115.448 54 116 54H123C123.552 54 124 54.4975 124 55.1111V62.8889C124 63.5025 123.552 64 123 64H116C115.448 64 115 63.5025 115 62.8889V55.1111Z" fill="#D6E2FF"/>
<path d="M115 55.1111C115 54.4975 115.448 54 116 54H123C123.552 54 124 54.4975 124 55.1111V62.8889C124 63.5025 123.552 64 123 64H116C115.448 64 115 63.5025 115 62.8889V55.1111Z" fill="#35568B"/>
<path d="M130 55.1111C130 54.4975 130.448 54 131 54H138C138.552 54 139 54.4975 139 55.1111V62.8889C139 63.5025 138.552 64 138 64H131C130.448 64 130 63.5025 130 62.8889V55.1111Z" fill="#D6E2FF"/>
<path d="M130 55.1111C130 54.4975 130.448 54 131 54H138C138.552 54 139 54.4975 139 55.1111V62.8889C139 63.5025 138.552 64 138 64H131C130.448 64 130 63.5025 130 62.8889V55.1111Z" fill="#35568B"/>
<path d="M146 55.1111C146 54.4975 146.448 54 147 54H154C154.552 54 155 54.4975 155 55.1111V62.8889C155 63.5025 154.552 64 154 64H147C146.448 64 146 63.5025 146 62.8889V55.1111Z" fill="#D6E2FF"/>
<path d="M146 55.1111C146 54.4975 146.448 54 147 54H154C154.552 54 155 54.4975 155 55.1111V62.8889C155 63.5025 154.552 64 154 64H147C146.448 64 146 63.5025 146 62.8889V55.1111Z" fill="#35568B"/>
<path d="M162 55.1111C162 54.4975 162.448 54 163 54H170C170.552 54 171 54.4975 171 55.1111V62.8889C171 63.5025 170.552 64 170 64H163C162.448 64 162 63.5025 162 62.8889V55.1111Z" fill="#D6E2FF"/>
<path d="M162 55.1111C162 54.4975 162.448 54 163 54H170C170.552 54 171 54.4975 171 55.1111V62.8889C171 63.5025 170.552 64 170 64H163C162.448 64 162 63.5025 162 62.8889V55.1111Z" fill="#35568B"/>
<path d="M203.364 156H188.636C187.733 156 187 156.895 187 158C187 159.105 187.733 160 188.636 160H203.364C204.267 160 205 159.105 205 158C205 156.895 204.267 156 203.364 156Z" fill="#3D567F"/>
<path d="M255.364 156H240.636C239.733 156 239 156.895 239 158C239 159.105 239.733 160 240.636 160H255.364C256.267 160 257 159.105 257 158C257 156.895 256.267 156 255.364 156Z" fill="#3D567F"/>
<defs>
<linearGradient id="paint0_linear" x1="39.5169" y1="33" x2="21.1136" y2="15.2079" gradientUnits="userSpaceOnUse">
<stop stop-color="#DC5A47"/>
<stop offset="1" stop-color="#F2A66D"/>
</linearGradient>
<linearGradient id="paint1_linear" x1="198.602" y1="80.5" x2="150.102" y2="80.5" gradientUnits="userSpaceOnUse">
<stop stop-color="#538DFF"/>
<stop offset="1" stop-color="#5BC3FD"/>
</linearGradient>
<linearGradient id="paint2_linear" x1="147" y1="76" x2="137" y2="82.9996" gradientUnits="userSpaceOnUse">
<stop stop-color="#538DFF"/>
<stop offset="1" stop-color="#5BC3FD"/>
</linearGradient>
<linearGradient id="paint3_linear" x1="34.5538" y1="140.083" x2="254.501" y2="138.668" gradientUnits="userSpaceOnUse">
<stop stop-color="#6890B5"/>
<stop offset="1" stop-color="#466294"/>
</linearGradient>
<linearGradient id="paint4_linear" x1="43" y1="122" x2="43" y2="144" gradientUnits="userSpaceOnUse">
<stop stop-color="#405487"/>
<stop offset="1" stop-color="#213362"/>
</linearGradient>
</defs>
</svg>
