<svg width="301" height="195" viewBox="0 0 301 195" fill="none" xmlns="http://www.w3.org/2000/svg">
<path d="M8 21C8 14.3726 13.3726 9 20 9H281C287.627 9 293 14.3726 293 21V184H8V21Z" fill="#0A244E"/>
<g filter="url(#filter0_d)">
<path d="M20 93C20 90.7909 21.7909 89 24 89H277C279.209 89 281 90.7909 281 93V125C281 127.209 279.209 129 277 129H24C21.7909 129 20 127.209 20 125V93Z" fill="url(#paint0_linear)"/>
</g>
<g filter="url(#filter1_d)">
<path d="M20 24C20 21.7909 21.7909 20 24 20H277C279.209 20 281 21.7909 281 24V79C281 81.2091 279.209 83 277 83H24C21.7909 83 20 81.2091 20 79V24Z" fill="url(#paint1_linear)"/>
</g>
<g filter="url(#filter2_d)">
<path d="M20 139C20 136.791 21.7909 135 24 135H277C279.209 135 281 136.791 281 139V171C281 173.209 279.209 175 277 175H24C21.7909 175 20 173.209 20 171V139Z" fill="url(#paint2_linear)"/>
</g>
<path d="M69 103C69 101.895 69.8954 101 71 101H108C109.105 101 110 101.895 110 103C110 104.105 109.105 105 108 105H71C69.8954 105 69 104.105 69 103Z" fill="#82A5DC"/>
<path d="M87 30.5C87 29.6716 87.6716 29 88.5 29H215.5C216.328 29 217 29.6716 217 30.5C217 31.3284 216.328 32 215.5 32H88.5C87.6716 32 87 31.3284 87 30.5Z" fill="#4176D8"/>
<path d="M138 73.5C138 72.6716 138.672 72 139.5 72H205.5C206.328 72 207 72.6716 207 73.5C207 74.3284 206.328 75 205.5 75H139.5C138.672 75 138 74.3284 138 73.5Z" fill="#4176D8"/>
<path d="M101 73.5C101 72.6716 101.672 72 102.5 72H131.5C132.328 72 133 72.6716 133 73.5C133 74.3284 132.328 75 131.5 75H102.5C101.672 75 101 74.3284 101 73.5Z" fill="#4176D8"/>
<path d="M69 149C69 147.895 69.8954 147 71 147H108C109.105 147 110 147.895 110 149C110 150.105 109.105 151 108 151H71C69.8954 151 69 150.105 69 149Z" fill="#82A5DC"/>
<path d="M225 103C225 101.895 225.895 101 227 101H258C259.105 101 260 101.895 260 103C260 104.105 259.105 105 258 105H227C225.895 105 225 104.105 225 103Z" fill="#82A5DC"/>
<path d="M225 149C225 147.895 225.895 147 227 147H258C259.105 147 260 147.895 260 149C260 150.105 259.105 151 258 151H227C225.895 151 225 150.105 225 149Z" fill="#82A5DC"/>
<path d="M69 114.993C69 113.892 69.8921 113 70.9925 113H127.922C129.022 113 129.914 113.892 129.914 114.993C129.914 116.093 129.022 116.985 127.922 116.985H70.9925C69.8921 116.985 69 116.093 69 114.993Z" fill="#82A5DC"/>
<path d="M69 160.993C69 159.892 69.8921 159 70.9925 159H127.922C129.022 159 129.914 159.892 129.914 160.993C129.914 162.093 129.022 162.985 127.922 162.985H70.9925C69.8921 162.985 69 162.093 69 160.993Z" fill="#82A5DC"/>
<path d="M233 115C233 113.895 233.895 113 235 113H258C259.105 113 260 113.895 260 115C260 116.105 259.105 117 258 117H235C233.895 117 233 116.105 233 115Z" fill="#587EBB"/>
<path d="M233 161C233 159.895 233.895 159 235 159H258C259.105 159 260 159.895 260 161C260 162.105 259.105 163 258 163H235C233.895 163 233 162.105 233 161Z" fill="#587EBB"/>
<circle cx="44.5" cy="108.5" r="13.5" fill="url(#paint3_linear)"/>
<path d="M48.2044 110.14C49.1298 110.183 49.9616 109.79 50.485 108.64C51.2077 107.07 50.2855 105.872 48.7624 104.807L49.9537 102.743L48.7065 102.023L47.5483 104.029C47.2243 103.842 46.8875 103.659 46.5508 103.475L47.7184 101.453L46.4712 100.733L45.2799 102.796C44.8133 102.546 44.2832 102.23 42.7775 101.351L42.0022 102.694C42.997 103.245 43.5506 103.48 43.3005 104.186L40.0386 109.836C39.671 110.299 39.3122 109.995 38.4288 109.463L37.3127 110.817C39.5867 112.13 39.8104 112.27 39.8104 112.27L38.7902 114.037L40.0374 114.757L41.0435 113.014C41.3789 113.219 41.7109 113.411 42.0268 113.593L41.0255 115.327L42.2727 116.047L43.2929 114.28C45.4485 115.372 47.1526 115.646 48.4876 113.764C49.5552 112.252 49.2214 111.109 48.2044 110.14ZM45.7242 104.963C46.4288 105.37 48.7592 106.421 47.9036 107.903C47.0857 109.319 44.9775 107.884 44.2729 107.477L45.7242 104.963ZM41.947 111.505L43.5449 108.738C44.3871 109.224 47.1034 110.476 46.1674 112.097C45.2645 113.661 42.7893 111.992 41.947 111.505Z" fill="white"/>
<circle cx="44.7524" cy="155.753" r="13.7896" transform="rotate(-14.2085 44.7524 155.753)" fill="url(#paint4_linear)"/>
<path d="M44.6577 159.892L44.577 153.981L38.8887 156.588L44.6577 159.892ZM44.5676 153.293L44.4728 146.352L39.0665 156.098L44.5676 153.293ZM45.2118 146.34L45.3066 153.283L50.9567 155.689L45.2118 146.34ZM45.316 153.971L45.3967 159.882L51.0773 156.424L45.316 153.971ZM44.7332 165.42L44.6683 160.665L38.9381 157.385L44.7332 165.42ZM45.4721 165.41L51.0457 157.22L45.4072 160.655L45.4721 165.41Z" fill="white"/>
<path d="M149.319 58.7265V58.8765H149.469H151.435H151.585V58.7265V42.2849V42.1349H151.435H149.447H149.398L149.358 42.1634L145.02 45.3082L144.958 45.3531V45.4296V47.492V47.7806L145.194 47.6147L149.319 44.718V58.7265ZM157.247 47.0362V47.1862H157.397H159.362H159.512V47.0362C159.512 45.285 160.947 43.9503 162.887 43.9503C164.671 43.9503 165.799 45.1729 165.799 46.7058C165.799 47.3645 165.678 47.9019 165.29 48.5594C164.898 49.2254 164.231 50.0149 163.129 51.1713L163.129 51.1715L157.39 57.2103L157.348 57.2538V57.3137V58.7265V58.8765H157.498H168.254H168.404V58.7265V56.9035V56.7535H168.254H160.598L164.272 52.9514C167.264 49.8545 168.133 48.4589 168.133 46.5804C168.133 43.9916 165.976 41.8614 162.887 41.8614C159.677 41.8614 157.247 44.0582 157.247 47.0362ZM176.54 58.7265V58.8765H176.69H178.656H178.806V58.7265V42.2849V42.1349H178.656H176.667H176.619L176.579 42.1634L172.241 45.3082L172.179 45.3531V45.4296V47.492V47.7806L172.415 47.6147L176.54 44.718V58.7265ZM189.668 53.2023C191.564 53.2023 193.239 52.3393 194.088 50.9497C194.002 52.836 193.623 54.3155 192.981 55.3442C192.278 56.4687 191.258 57.0611 189.927 57.0611C189.103 57.0611 188.39 56.8699 187.832 56.5032C187.276 56.1376 186.864 55.5922 186.648 54.8667L186.616 54.7595H186.504H184.437H184.255L184.289 54.9378C184.78 57.4932 187.033 59.15 189.905 59.15C191.945 59.15 193.57 58.3195 194.68 56.7775C195.785 55.2417 196.37 53.0134 196.37 50.2265C196.37 47.0847 195.544 44.9872 194.328 43.6741C193.111 42.3606 191.521 41.85 190.029 41.85C186.606 41.85 184.106 44.2834 184.106 47.6173C184.106 50.8215 186.477 53.2023 189.668 53.2023ZM205.447 53.2023C207.344 53.2023 209.018 52.3393 209.867 50.9497C209.782 52.836 209.403 54.3155 208.76 55.3442C208.058 56.4687 207.037 57.0611 205.707 57.0611C204.882 57.0611 204.17 56.8699 203.612 56.5032C203.055 56.1376 202.644 55.5922 202.427 54.8666L202.395 54.7595H202.284H200.216H200.035L200.069 54.9378C200.559 57.4932 202.812 59.15 205.684 59.15C207.725 59.15 209.35 58.3195 210.46 56.7775C211.565 55.2417 212.15 53.0134 212.15 50.2265C212.15 47.0847 211.324 44.9872 210.107 43.6741C208.891 42.3606 207.3 41.85 205.809 41.85C202.385 41.85 199.885 44.2834 199.885 47.6173C199.885 50.8215 202.257 53.2023 205.447 53.2023ZM96.0106 59.15C97.9589 59.15 99.5016 58.296 100.551 56.778C101.597 55.2661 102.149 53.1048 102.149 50.4886C102.149 47.8892 101.594 45.7364 100.547 44.2289C99.4958 42.7154 97.9533 41.8614 96.0106 41.8614C94.0675 41.8614 92.5195 42.7213 91.4629 44.2387C90.4102 45.7503 89.85 47.906 89.85 50.5C89.85 53.1163 90.4043 55.275 91.4544 56.7841C92.5087 58.2992 94.057 59.15 96.0106 59.15ZM96.0106 57.0611C94.7961 57.0611 93.8503 56.4425 93.2002 55.3132C92.5462 54.1769 92.1949 52.5257 92.1949 50.4886C92.1949 48.4981 92.5543 46.8581 93.2128 45.7213C93.8678 44.5903 94.8143 43.9617 96.0106 43.9617C97.207 43.9617 98.1476 44.5849 98.7968 45.7138C99.4497 46.849 99.8036 48.4919 99.8036 50.5C99.8036 52.5373 99.4551 54.1857 98.8052 55.3192C98.1594 56.4455 97.2193 57.0611 96.0106 57.0611ZM107.429 58.9905C108.236 58.9905 108.867 58.3524 108.867 57.5416C108.867 56.7307 108.236 56.0926 107.429 56.0926C106.622 56.0926 105.991 56.7307 105.991 57.5416C105.991 58.3524 106.622 58.9905 107.429 58.9905ZM119.322 59.15C121.271 59.15 122.813 58.296 123.863 56.778C124.909 55.2661 125.46 53.1048 125.46 50.4886C125.46 47.8892 124.906 45.7364 123.859 44.2289C122.807 42.7154 121.265 41.8614 119.322 41.8614C117.379 41.8614 115.831 42.7213 114.774 44.2387C113.722 45.7503 113.162 47.906 113.162 50.5C113.162 53.1163 113.716 55.275 114.766 56.7841C115.82 58.2992 117.369 59.15 119.322 59.15ZM119.322 57.0611C118.108 57.0611 117.162 56.4425 116.512 55.3132C115.858 54.1769 115.507 52.5257 115.507 50.4886C115.507 48.4981 115.866 46.8581 116.524 45.7213C117.179 44.5903 118.126 43.9617 119.322 43.9617C120.519 43.9617 121.459 44.5849 122.108 45.7138C122.761 46.849 123.115 48.4919 123.115 50.5C123.115 52.5373 122.767 54.1857 122.117 55.3192C121.471 56.4455 120.531 57.0611 119.322 57.0611ZM135.283 59.15C137.231 59.15 138.774 58.296 139.823 56.778C140.869 55.2661 141.421 53.1048 141.421 50.4886C141.421 47.8892 140.866 45.7364 139.819 44.2289C138.768 42.7154 137.225 41.8614 135.283 41.8614C133.339 41.8614 131.792 42.7213 130.735 44.2387C129.682 45.7503 129.122 47.906 129.122 50.5C129.122 53.1163 129.676 55.275 130.726 56.7841C131.781 58.2992 133.329 59.15 135.283 59.15ZM135.283 57.0611C134.068 57.0611 133.122 56.4425 132.472 55.3132C131.818 54.1769 131.467 52.5257 131.467 50.4886C131.467 48.4981 131.826 46.8581 132.485 45.7213C133.14 44.5903 134.086 43.9617 135.283 43.9617C136.479 43.9617 137.42 44.5849 138.069 45.7138C138.722 46.849 139.076 48.4919 139.076 50.5C139.076 52.5373 138.727 54.1857 138.077 55.3192C137.431 56.4455 136.491 57.0611 135.283 57.0611ZM190.018 51.102C187.965 51.102 186.462 49.6079 186.462 47.5489C186.462 45.5706 188.043 43.9958 190.052 43.9958C192.069 43.9958 193.63 45.5793 193.63 47.6059C193.63 49.615 192.097 51.102 190.018 51.102ZM205.797 51.102C203.745 51.102 202.242 49.6079 202.242 47.5489C202.242 45.5706 203.823 43.9958 205.831 43.9958C207.848 43.9958 209.41 45.5793 209.41 47.6059C209.41 49.615 207.877 51.102 205.797 51.102Z" fill="#BCD4FD" stroke="white" stroke-width="0.3"/>
<defs>
<filter id="filter0_d" x="0" y="69" width="301" height="80" filterUnits="userSpaceOnUse" color-interpolation-filters="sRGB">
<feFlood flood-opacity="0" result="BackgroundImageFix"/>
<feColorMatrix in="SourceAlpha" type="matrix" values="0 0 0 0 0 0 0 0 0 0 0 0 0 0 0 0 0 0 127 0" result="hardAlpha"/>
<feOffset/>
<feGaussianBlur stdDeviation="10"/>
<feColorMatrix type="matrix" values="0 0 0 0 0 0 0 0 0 0 0 0 0 0 0 0 0 0 0.06 0"/>
<feBlend mode="normal" in2="BackgroundImageFix" result="effect1_dropShadow"/>
<feBlend mode="normal" in="SourceGraphic" in2="effect1_dropShadow" result="shape"/>
</filter>
<filter id="filter1_d" x="0" y="0" width="301" height="103" filterUnits="userSpaceOnUse" color-interpolation-filters="sRGB">
<feFlood flood-opacity="0" result="BackgroundImageFix"/>
<feColorMatrix in="SourceAlpha" type="matrix" values="0 0 0 0 0 0 0 0 0 0 0 0 0 0 0 0 0 0 127 0" result="hardAlpha"/>
<feOffset/>
<feGaussianBlur stdDeviation="10"/>
<feColorMatrix type="matrix" values="0 0 0 0 0 0 0 0 0 0 0 0 0 0 0 0 0 0 0.06 0"/>
<feBlend mode="normal" in2="BackgroundImageFix" result="effect1_dropShadow"/>
<feBlend mode="normal" in="SourceGraphic" in2="effect1_dropShadow" result="shape"/>
</filter>
<filter id="filter2_d" x="0" y="115" width="301" height="80" filterUnits="userSpaceOnUse" color-interpolation-filters="sRGB">
<feFlood flood-opacity="0" result="BackgroundImageFix"/>
<feColorMatrix in="SourceAlpha" type="matrix" values="0 0 0 0 0 0 0 0 0 0 0 0 0 0 0 0 0 0 127 0" result="hardAlpha"/>
<feOffset/>
<feGaussianBlur stdDeviation="10"/>
<feColorMatrix type="matrix" values="0 0 0 0 0 0 0 0 0 0 0 0 0 0 0 0 0 0 0.06 0"/>
<feBlend mode="normal" in2="BackgroundImageFix" result="effect1_dropShadow"/>
<feBlend mode="normal" in="SourceGraphic" in2="effect1_dropShadow" result="shape"/>
</filter>
<linearGradient id="paint0_linear" x1="61.7806" y1="89" x2="280.716" y2="121.417" gradientUnits="userSpaceOnUse">
<stop stop-color="#466392" stop-opacity="0.78"/>
<stop offset="0.472063" stop-color="#466392"/>
<stop offset="1" stop-color="#466392" stop-opacity="0.78"/>
</linearGradient>
<linearGradient id="paint1_linear" x1="32.8361" y1="52" x2="273.512" y2="52" gradientUnits="userSpaceOnUse">
<stop stop-color="#2734A8" stop-opacity="0.73"/>
<stop offset="0.237674" stop-color="#2C42AD"/>
<stop offset="0.784582" stop-color="#3862B9"/>
<stop offset="1" stop-color="#3D6FBE" stop-opacity="0.52"/>
</linearGradient>
<linearGradient id="paint2_linear" x1="61.7806" y1="135" x2="280.716" y2="167.417" gradientUnits="userSpaceOnUse">
<stop stop-color="#466392" stop-opacity="0.78"/>
<stop offset="0.472063" stop-color="#466392"/>
<stop offset="1" stop-color="#466392" stop-opacity="0.78"/>
</linearGradient>
<linearGradient id="paint3_linear" x1="33.7931" y1="117.578" x2="54.9741" y2="102.681" gradientUnits="userSpaceOnUse">
<stop stop-color="#EC850B"/>
<stop offset="1" stop-color="#F9B254"/>
</linearGradient>
<linearGradient id="paint4_linear" x1="49.6772" y1="144.672" x2="44.7524" y2="169.542" gradientUnits="userSpaceOnUse">
<stop stop-color="#2F73D0"/>
<stop offset="1" stop-color="#0E54B5"/>
</linearGradient>
</defs>
</svg>
