<svg width="293" height="177" viewBox="0 0 293 177" fill="none" xmlns="http://www.w3.org/2000/svg">
<path d="M5 12C5 5.37259 10.3726 0 17 0H278C284.627 0 290 5.37258 290 12V175H5V12Z" fill="#0A244E"/>
<g filter="url(#filter0_d)">
<path d="M20 72C20 69.7909 21.7909 68 24 68H269C271.209 68 273 69.7909 273 72V104C273 106.209 271.209 108 269 108H24C21.7909 108 20 106.209 20 104V72Z" fill="url(#paint0_linear)"/>
</g>
<g filter="url(#filter1_d)">
<path d="M20 72C20 69.7909 21.7909 68 24 68H26V108H24C21.7909 108 20 106.209 20 104V72Z" fill="#4782E1"/>
</g>
<path d="M46.8838 82.3689C47.3624 82.5104 47.7311 82.7642 47.99 83.1304C48.2568 83.4965 48.3901 83.9542 48.3901 84.5035C48.3901 85.2607 48.143 85.8516 47.6487 86.276C47.1623 86.6921 46.4798 86.9001 45.6011 86.9001H42.6002C42.4119 86.9001 42.2628 86.846 42.153 86.7379C42.051 86.6214 42 86.4674 42 86.276V78.724C42 78.5326 42.051 78.3828 42.153 78.2746C42.2628 78.1581 42.4119 78.0999 42.6002 78.0999H45.4716C46.3268 78.0999 46.9936 78.3037 47.4722 78.7115C47.9586 79.111 48.2018 79.6727 48.2018 80.3967C48.2018 80.8627 48.0842 81.2663 47.8488 81.6075C47.6213 81.9487 47.2996 82.2025 46.8838 82.3689ZM43.1886 81.9071H45.2833C46.4445 81.9071 47.025 81.4411 47.025 80.509C47.025 80.043 46.8799 79.6976 46.5896 79.473C46.3072 79.2483 45.8717 79.1359 45.2833 79.1359H43.1886V81.9071ZM45.4716 85.8641C46.0757 85.8641 46.519 85.7476 46.8014 85.5146C47.0839 85.2816 47.2251 84.9196 47.2251 84.4286C47.2251 83.9293 47.0799 83.5589 46.7897 83.3176C46.5072 83.068 46.0679 82.9431 45.4716 82.9431H43.1886V85.8641H45.4716Z" fill="white"/>
<path d="M52.4498 86.9626C52.2694 86.9626 52.1203 86.9043 52.0026 86.7878C51.8928 86.663 51.8379 86.5049 51.8379 86.3135V79.1734H49.4842C49.1076 79.1734 48.9193 78.9945 48.9193 78.6366C48.9193 78.4619 48.9664 78.3287 49.0606 78.2372C49.1625 78.1456 49.3038 78.0999 49.4842 78.0999H55.4154C55.5958 78.0999 55.7331 78.1456 55.8273 78.2372C55.9293 78.3287 55.9803 78.4619 55.9803 78.6366C55.9803 78.9945 55.792 79.1734 55.4154 79.1734H53.0617V86.3135C53.0617 86.5049 53.0068 86.663 52.897 86.7878C52.7872 86.9043 52.6381 86.9626 52.4498 86.9626Z" fill="white"/>
<path d="M60.0933 87C59.3009 87 58.6105 86.8211 58.022 86.4632C57.4336 86.0971 56.9825 85.577 56.6687 84.9029C56.3549 84.2205 56.198 83.4175 56.198 82.4938C56.198 81.5784 56.3549 80.7836 56.6687 80.1096C56.9825 79.4272 57.4336 78.9071 58.022 78.5492C58.6105 78.1831 59.3009 78 60.0933 78C60.6111 78 61.1014 78.0874 61.5643 78.2621C62.0272 78.4286 62.4312 78.6741 62.7764 78.9986C62.9255 79.1234 63 79.2899 63 79.4979C63 79.6477 62.9608 79.7767 62.8823 79.8849C62.8039 79.9847 62.7097 80.0347 62.5999 80.0347C62.4665 80.0347 62.3371 79.9806 62.2115 79.8724C61.8349 79.5728 61.4897 79.3648 61.1759 79.2483C60.87 79.1234 60.5208 79.061 60.1286 79.061C59.2656 79.061 58.6026 79.3564 58.1397 79.9473C57.6768 80.5381 57.4454 81.387 57.4454 82.4938C57.4454 83.6089 57.6768 84.4619 58.1397 85.0527C58.6026 85.6436 59.2656 85.939 60.1286 85.939C60.5051 85.939 60.8464 85.8766 61.1524 85.7517C61.4662 85.6269 61.8193 85.4189 62.2115 85.1276C62.3684 85.0194 62.4979 84.9653 62.5999 84.9653C62.7097 84.9653 62.8039 85.0194 62.8823 85.1276C62.9608 85.2275 63 85.3523 63 85.5021C63 85.7101 62.9255 85.8766 62.7764 86.0014C62.4312 86.3259 62.0272 86.5756 61.5643 86.7503C61.1014 86.9168 60.6111 87 60.0933 87Z" fill="white"/>
<path d="M66.9761 87.622C66.9369 87.752 66.8742 87.8455 66.7879 87.9024C66.7017 87.9675 66.6076 88 66.5057 88C66.3724 88 66.2548 87.9553 66.1529 87.8659C66.051 87.7764 66 87.6585 66 87.5122C66 87.4553 66.0118 87.3902 66.0353 87.3171L68.7872 78.378C68.8264 78.248 68.8891 78.1545 68.9754 78.0976C69.0616 78.0325 69.1557 78 69.2576 78C69.3909 78 69.5085 78.0447 69.6104 78.1341C69.7124 78.2236 69.7633 78.3415 69.7633 78.4878C69.7633 78.5447 69.7516 78.6098 69.728 78.6829L66.9761 87.622Z" fill="#82A5DC"/>
<path d="M77.0027 87.2927C75.8972 87.2927 75.0583 86.9959 74.4859 86.4024C73.9136 85.8089 73.6274 84.935 73.6274 83.7805V79.1707C73.6274 78.9756 73.6823 78.8211 73.7921 78.7073C73.9018 78.5935 74.0469 78.5366 74.2272 78.5366C74.4075 78.5366 74.5526 78.5935 74.6623 78.7073C74.7721 78.8211 74.827 78.9756 74.827 79.1707V83.8659C74.827 84.6545 75.0073 85.252 75.368 85.6585C75.7365 86.065 76.2814 86.2683 77.0027 86.2683C77.7161 86.2683 78.2571 86.065 78.6256 85.6585C78.9941 85.252 79.1783 84.6545 79.1783 83.8659V79.1707C79.1783 78.9837 79.2332 78.8333 79.343 78.7195C79.4527 78.5976 79.5978 78.5366 79.7781 78.5366C79.9584 78.5366 80.1035 78.5935 80.2132 78.7073C80.323 78.8211 80.3779 78.9756 80.3779 79.1707V83.7805C80.3779 84.9268 80.0878 85.8008 79.5076 86.4024C78.9353 86.9959 78.1003 87.2927 77.0027 87.2927Z" fill="#82A5DC"/>
<path d="M84.9825 87.2927C84.3867 87.2927 83.8183 87.2073 83.2773 87.0366C82.7442 86.8659 82.3169 86.6301 81.9954 86.3293C81.8464 86.1992 81.772 86.0325 81.772 85.8293C81.772 85.6829 81.8112 85.561 81.8896 85.4634C81.968 85.3577 82.062 85.3049 82.1718 85.3049C82.2816 85.3049 82.4149 85.3577 82.5717 85.4634C83.2694 86 84.0652 86.2683 84.959 86.2683C85.5862 86.2683 86.0684 86.1463 86.4056 85.9024C86.7427 85.6585 86.9112 85.3089 86.9112 84.8537C86.9112 84.4959 86.7544 84.2276 86.4408 84.0488C86.1272 83.8699 85.6254 83.6992 84.9355 83.5366C84.2769 83.3902 83.7359 83.2236 83.3126 83.0366C82.8892 82.8496 82.556 82.5976 82.3129 82.2805C82.0777 81.9553 81.9601 81.5447 81.9601 81.0488C81.9601 80.5528 82.0895 80.1138 82.3482 79.7317C82.6148 79.3415 82.9833 79.0406 83.4537 78.8293C83.9241 78.6098 84.4612 78.5 85.0649 78.5C85.6215 78.5 86.1351 78.5813 86.6055 78.7439C87.0759 78.9065 87.4757 79.1463 87.805 79.4634C87.9618 79.6016 88.0402 79.7683 88.0402 79.9634C88.0402 80.1016 87.9971 80.2236 87.9109 80.3293C87.8325 80.435 87.7384 80.4878 87.6286 80.4878C87.5267 80.4878 87.3973 80.435 87.2405 80.3293C86.8799 80.0447 86.5388 79.8415 86.2174 79.7195C85.9038 79.5894 85.5235 79.5244 85.0766 79.5244C84.4729 79.5244 84.0025 79.6545 83.6654 79.9146C83.3282 80.1667 83.1597 80.5203 83.1597 80.9756C83.1597 81.3659 83.3086 81.6626 83.6066 81.8659C83.9045 82.061 84.3828 82.2398 85.0413 82.4024C85.7313 82.565 86.2879 82.7358 86.7113 82.9146C87.1425 83.0854 87.4836 83.3252 87.7345 83.6341C87.9932 83.935 88.1226 84.3252 88.1226 84.8049C88.1226 85.2927 87.9893 85.7276 87.7227 86.1098C87.464 86.4837 87.0955 86.7764 86.6172 86.9878C86.1468 87.1911 85.6019 87.2927 84.9825 87.2927Z" fill="#82A5DC"/>
<path d="M90.2154 87.1951C90.0272 87.1951 89.8782 87.1423 89.7685 87.0366C89.6665 86.9228 89.6156 86.7724 89.6156 86.5854V79.2073C89.6156 79.0203 89.6665 78.874 89.7685 78.7683C89.8782 78.6545 90.0272 78.5976 90.2154 78.5976H92.5204C93.8611 78.5976 94.8999 78.9715 95.6369 79.7195C96.3739 80.4675 96.7424 81.5244 96.7424 82.8902C96.7424 84.2561 96.3739 85.3171 95.6369 86.0732C94.8999 86.8211 93.8611 87.1951 92.5204 87.1951H90.2154ZM92.4498 86.1463C94.4883 86.1463 95.5075 85.061 95.5075 82.8902C95.5075 80.7276 94.4883 79.6463 92.4498 79.6463H90.8269V86.1463H92.4498Z" fill="#82A5DC"/>
<path d="M100.472 87.2561C100.292 87.2561 100.143 87.1992 100.025 87.0854C99.9152 86.9634 99.8603 86.8089 99.8603 86.622V79.6463H97.5083C97.1319 79.6463 96.9438 79.4715 96.9438 79.122C96.9438 78.9512 96.9908 78.8211 97.0849 78.7317C97.1868 78.6423 97.3279 78.5976 97.5083 78.5976H103.436C103.616 78.5976 103.753 78.6423 103.847 78.7317C103.949 78.8211 104 78.9512 104 79.122C104 79.4715 103.812 79.6463 103.436 79.6463H101.083V86.622C101.083 86.8089 101.029 86.9634 100.919 87.0854C100.809 87.1992 100.66 87.2561 100.472 87.2561Z" fill="#82A5DC"/>
<path d="M66.9761 87.622C66.9369 87.752 66.8742 87.8455 66.7879 87.9024C66.7017 87.9675 66.6076 88 66.5057 88C66.3724 88 66.2548 87.9553 66.1529 87.8659C66.051 87.7764 66 87.6585 66 87.5122C66 87.4553 66.0118 87.3902 66.0353 87.3171L68.7872 78.378C68.8264 78.248 68.8891 78.1545 68.9754 78.0976C69.0616 78.0325 69.1557 78 69.2576 78C69.3909 78 69.5085 78.0447 69.6104 78.1341C69.7124 78.2236 69.7633 78.3415 69.7633 78.4878C69.7633 78.5447 69.7516 78.6098 69.728 78.6829L66.9761 87.622Z" fill="#82A5DC"/>
<path d="M77.0027 87.2927C75.8972 87.2927 75.0583 86.9959 74.4859 86.4024C73.9136 85.8089 73.6274 84.935 73.6274 83.7805V79.1707C73.6274 78.9756 73.6823 78.8211 73.7921 78.7073C73.9018 78.5935 74.0469 78.5366 74.2272 78.5366C74.4075 78.5366 74.5526 78.5935 74.6623 78.7073C74.7721 78.8211 74.827 78.9756 74.827 79.1707V83.8659C74.827 84.6545 75.0073 85.252 75.368 85.6585C75.7365 86.065 76.2814 86.2683 77.0027 86.2683C77.7161 86.2683 78.2571 86.065 78.6256 85.6585C78.9941 85.252 79.1783 84.6545 79.1783 83.8659V79.1707C79.1783 78.9837 79.2332 78.8333 79.343 78.7195C79.4527 78.5976 79.5978 78.5366 79.7781 78.5366C79.9584 78.5366 80.1035 78.5935 80.2132 78.7073C80.323 78.8211 80.3779 78.9756 80.3779 79.1707V83.7805C80.3779 84.9268 80.0878 85.8008 79.5076 86.4024C78.9353 86.9959 78.1003 87.2927 77.0027 87.2927Z" fill="#82A5DC"/>
<path d="M84.9825 87.2927C84.3867 87.2927 83.8183 87.2073 83.2773 87.0366C82.7442 86.8659 82.3169 86.6301 81.9954 86.3293C81.8464 86.1992 81.772 86.0325 81.772 85.8293C81.772 85.6829 81.8112 85.561 81.8896 85.4634C81.968 85.3577 82.062 85.3049 82.1718 85.3049C82.2816 85.3049 82.4149 85.3577 82.5717 85.4634C83.2694 86 84.0652 86.2683 84.959 86.2683C85.5862 86.2683 86.0684 86.1463 86.4056 85.9024C86.7427 85.6585 86.9112 85.3089 86.9112 84.8537C86.9112 84.4959 86.7544 84.2276 86.4408 84.0488C86.1272 83.8699 85.6254 83.6992 84.9355 83.5366C84.2769 83.3902 83.7359 83.2236 83.3126 83.0366C82.8892 82.8496 82.556 82.5976 82.3129 82.2805C82.0777 81.9553 81.9601 81.5447 81.9601 81.0488C81.9601 80.5528 82.0895 80.1138 82.3482 79.7317C82.6148 79.3415 82.9833 79.0406 83.4537 78.8293C83.9241 78.6098 84.4612 78.5 85.0649 78.5C85.6215 78.5 86.1351 78.5813 86.6055 78.7439C87.0759 78.9065 87.4757 79.1463 87.805 79.4634C87.9618 79.6016 88.0402 79.7683 88.0402 79.9634C88.0402 80.1016 87.9971 80.2236 87.9109 80.3293C87.8325 80.435 87.7384 80.4878 87.6286 80.4878C87.5267 80.4878 87.3973 80.435 87.2405 80.3293C86.8799 80.0447 86.5388 79.8415 86.2174 79.7195C85.9038 79.5894 85.5235 79.5244 85.0766 79.5244C84.4729 79.5244 84.0025 79.6545 83.6654 79.9146C83.3282 80.1667 83.1597 80.5203 83.1597 80.9756C83.1597 81.3659 83.3086 81.6626 83.6066 81.8659C83.9045 82.061 84.3828 82.2398 85.0413 82.4024C85.7313 82.565 86.2879 82.7358 86.7113 82.9146C87.1425 83.0854 87.4836 83.3252 87.7345 83.6341C87.9932 83.935 88.1226 84.3252 88.1226 84.8049C88.1226 85.2927 87.9893 85.7276 87.7227 86.1098C87.464 86.4837 87.0955 86.7764 86.6172 86.9878C86.1468 87.1911 85.6019 87.2927 84.9825 87.2927Z" fill="#82A5DC"/>
<path d="M90.2154 87.1951C90.0272 87.1951 89.8782 87.1423 89.7685 87.0366C89.6665 86.9228 89.6156 86.7724 89.6156 86.5854V79.2073C89.6156 79.0203 89.6665 78.874 89.7685 78.7683C89.8782 78.6545 90.0272 78.5976 90.2154 78.5976H92.5204C93.8611 78.5976 94.8999 78.9715 95.6369 79.7195C96.3739 80.4675 96.7424 81.5244 96.7424 82.8902C96.7424 84.2561 96.3739 85.3171 95.6369 86.0732C94.8999 86.8211 93.8611 87.1951 92.5204 87.1951H90.2154ZM92.4498 86.1463C94.4883 86.1463 95.5075 85.061 95.5075 82.8902C95.5075 80.7276 94.4883 79.6463 92.4498 79.6463H90.8269V86.1463H92.4498Z" fill="#82A5DC"/>
<path d="M100.472 87.2561C100.292 87.2561 100.143 87.1992 100.025 87.0854C99.9152 86.9634 99.8603 86.8089 99.8603 86.622V79.6463H97.5083C97.1319 79.6463 96.9438 79.4715 96.9438 79.122C96.9438 78.9512 96.9908 78.8211 97.0849 78.7317C97.1868 78.6423 97.3279 78.5976 97.5083 78.5976H103.436C103.616 78.5976 103.753 78.6423 103.847 78.7317C103.949 78.8211 104 78.9512 104 79.122C104 79.4715 103.812 79.6463 103.436 79.6463H101.083V86.622C101.083 86.8089 101.029 86.9634 100.919 87.0854C100.809 87.1992 100.66 87.2561 100.472 87.2561Z" fill="#82A5DC"/>
<path d="M181.111 88C180.42 88 179.895 87.8313 179.537 87.4938C179.179 87.1563 179 86.6593 179 86.0028V83.3814C179 83.2705 179.034 83.1826 179.103 83.1179C179.172 83.0532 179.262 83.0208 179.375 83.0208C179.488 83.0208 179.579 83.0532 179.647 83.1179C179.716 83.1826 179.75 83.2705 179.75 83.3814V86.0513C179.75 86.4998 179.863 86.8396 180.089 87.0707C180.319 87.3019 180.66 87.4175 181.111 87.4175C181.558 87.4175 181.896 87.3019 182.127 87.0707C182.357 86.8396 182.472 86.4998 182.472 86.0513V83.3814C182.472 83.2751 182.507 83.1896 182.575 83.1248C182.644 83.0555 182.735 83.0208 182.848 83.0208C182.96 83.0208 183.051 83.0532 183.12 83.1179C183.189 83.1826 183.223 83.2705 183.223 83.3814V86.0028C183.223 86.6546 183.041 87.1516 182.678 87.4938C182.32 87.8313 181.798 88 181.111 88Z" fill="#82A5DC"/>
<path d="M186.103 88C185.731 88 185.375 87.9515 185.037 87.8544C184.703 87.7573 184.436 87.6232 184.235 87.4521C184.142 87.3782 184.095 87.2834 184.095 87.1678C184.095 87.0846 184.119 87.0153 184.168 86.9598C184.218 86.8997 184.276 86.8696 184.345 86.8696C184.414 86.8696 184.497 86.8997 184.595 86.9598C185.032 87.2649 185.53 87.4175 186.089 87.4175C186.481 87.4175 186.783 87.3481 186.994 87.2094C187.204 87.0707 187.31 86.8719 187.31 86.613C187.31 86.4096 187.212 86.2571 187.016 86.1553C186.819 86.0536 186.506 85.9565 186.074 85.8641C185.662 85.7809 185.324 85.6861 185.059 85.5798C184.794 85.4734 184.585 85.3301 184.433 85.1498C184.286 84.9649 184.213 84.7314 184.213 84.4494C184.213 84.1674 184.294 83.9177 184.455 83.7004C184.622 83.4785 184.853 83.3074 185.147 83.1872C185.441 83.0624 185.777 83 186.155 83C186.503 83 186.824 83.0462 187.119 83.1387C187.413 83.2312 187.663 83.3675 187.869 83.5479C187.967 83.6264 188.016 83.7212 188.016 83.8322C188.016 83.9108 187.989 83.9801 187.935 84.0402C187.886 84.1003 187.827 84.1304 187.759 84.1304C187.695 84.1304 187.614 84.1003 187.516 84.0402C187.29 83.8784 187.077 83.7628 186.876 83.6935C186.68 83.6195 186.442 83.5825 186.162 83.5825C185.785 83.5825 185.49 83.6565 185.279 83.8044C185.068 83.9478 184.963 84.1489 184.963 84.4078C184.963 84.6297 185.056 84.7984 185.243 84.914C185.429 85.025 185.728 85.1267 186.14 85.2191C186.572 85.3116 186.92 85.4087 187.185 85.5104C187.455 85.6075 187.668 85.7439 187.825 85.9196C187.987 86.0906 188.068 86.3125 188.068 86.5853C188.068 86.8627 187.984 87.11 187.818 87.3273C187.656 87.54 187.425 87.7064 187.126 87.8266C186.832 87.9422 186.491 88 186.103 88Z" fill="#82A5DC"/>
<path d="M189.377 87.9445C189.259 87.9445 189.166 87.9145 189.097 87.8544C189.033 87.7896 189.002 87.7041 189.002 87.5978V83.4022C189.002 83.2959 189.033 83.2127 189.097 83.1526C189.166 83.0878 189.259 83.0555 189.377 83.0555H190.819C191.657 83.0555 192.307 83.2681 192.768 83.6935C193.229 84.1188 193.46 84.7198 193.46 85.4965C193.46 86.2732 193.229 86.8766 192.768 87.3065C192.307 87.7319 191.657 87.9445 190.819 87.9445H189.377ZM190.775 87.3481C192.05 87.3481 192.687 86.7309 192.687 85.4965C192.687 84.2668 192.05 83.6519 190.775 83.6519H189.759V87.3481H190.775Z" fill="#82A5DC"/>
<path d="M195.793 87.9792C195.68 87.9792 195.587 87.9468 195.513 87.8821C195.445 87.8128 195.41 87.7249 195.41 87.6186V83.6519H193.939C193.704 83.6519 193.586 83.5525 193.586 83.3537C193.586 83.2566 193.615 83.1826 193.674 83.1318C193.738 83.0809 193.826 83.0555 193.939 83.0555H197.647C197.76 83.0555 197.846 83.0809 197.904 83.1318C197.968 83.1826 198 83.2566 198 83.3537C198 83.5525 197.882 83.6519 197.647 83.6519H196.175V87.6186C196.175 87.7249 196.141 87.8128 196.072 87.8821C196.004 87.9468 195.911 87.9792 195.793 87.9792Z" fill="#82A5DC"/>
<path d="M181.111 88C180.42 88 179.895 87.8313 179.537 87.4938C179.179 87.1563 179 86.6593 179 86.0028V83.3814C179 83.2705 179.034 83.1826 179.103 83.1179C179.172 83.0532 179.262 83.0208 179.375 83.0208C179.488 83.0208 179.579 83.0532 179.647 83.1179C179.716 83.1826 179.75 83.2705 179.75 83.3814V86.0513C179.75 86.4998 179.863 86.8396 180.089 87.0707C180.319 87.3019 180.66 87.4175 181.111 87.4175C181.558 87.4175 181.896 87.3019 182.127 87.0707C182.357 86.8396 182.472 86.4998 182.472 86.0513V83.3814C182.472 83.2751 182.507 83.1896 182.575 83.1248C182.644 83.0555 182.735 83.0208 182.848 83.0208C182.96 83.0208 183.051 83.0532 183.12 83.1179C183.189 83.1826 183.223 83.2705 183.223 83.3814V86.0028C183.223 86.6546 183.041 87.1516 182.678 87.4938C182.32 87.8313 181.798 88 181.111 88Z" fill="#82A5DC"/>
<path d="M186.103 88C185.731 88 185.375 87.9515 185.037 87.8544C184.703 87.7573 184.436 87.6232 184.235 87.4521C184.142 87.3782 184.095 87.2834 184.095 87.1678C184.095 87.0846 184.119 87.0153 184.168 86.9598C184.218 86.8997 184.276 86.8696 184.345 86.8696C184.414 86.8696 184.497 86.8997 184.595 86.9598C185.032 87.2649 185.53 87.4175 186.089 87.4175C186.481 87.4175 186.783 87.3481 186.994 87.2094C187.204 87.0707 187.31 86.8719 187.31 86.613C187.31 86.4096 187.212 86.2571 187.016 86.1553C186.819 86.0536 186.506 85.9565 186.074 85.8641C185.662 85.7809 185.324 85.6861 185.059 85.5798C184.794 85.4734 184.585 85.3301 184.433 85.1498C184.286 84.9649 184.213 84.7314 184.213 84.4494C184.213 84.1674 184.294 83.9177 184.455 83.7004C184.622 83.4785 184.853 83.3074 185.147 83.1872C185.441 83.0624 185.777 83 186.155 83C186.503 83 186.824 83.0462 187.119 83.1387C187.413 83.2312 187.663 83.3675 187.869 83.5479C187.967 83.6264 188.016 83.7212 188.016 83.8322C188.016 83.9108 187.989 83.9801 187.935 84.0402C187.886 84.1003 187.827 84.1304 187.759 84.1304C187.695 84.1304 187.614 84.1003 187.516 84.0402C187.29 83.8784 187.077 83.7628 186.876 83.6935C186.68 83.6195 186.442 83.5825 186.162 83.5825C185.785 83.5825 185.49 83.6565 185.279 83.8044C185.068 83.9478 184.963 84.1489 184.963 84.4078C184.963 84.6297 185.056 84.7984 185.243 84.914C185.429 85.025 185.728 85.1267 186.14 85.2191C186.572 85.3116 186.92 85.4087 187.185 85.5104C187.455 85.6075 187.668 85.7439 187.825 85.9196C187.987 86.0906 188.068 86.3125 188.068 86.5853C188.068 86.8627 187.984 87.11 187.818 87.3273C187.656 87.54 187.425 87.7064 187.126 87.8266C186.832 87.9422 186.491 88 186.103 88Z" fill="#82A5DC"/>
<path d="M189.377 87.9445C189.259 87.9445 189.166 87.9145 189.097 87.8544C189.033 87.7896 189.002 87.7041 189.002 87.5978V83.4022C189.002 83.2959 189.033 83.2127 189.097 83.1526C189.166 83.0878 189.259 83.0555 189.377 83.0555H190.819C191.657 83.0555 192.307 83.2681 192.768 83.6935C193.229 84.1188 193.46 84.7198 193.46 85.4965C193.46 86.2732 193.229 86.8766 192.768 87.3065C192.307 87.7319 191.657 87.9445 190.819 87.9445H189.377ZM190.775 87.3481C192.05 87.3481 192.687 86.7309 192.687 85.4965C192.687 84.2668 192.05 83.6519 190.775 83.6519H189.759V87.3481H190.775Z" fill="#82A5DC"/>
<path d="M195.793 87.9792C195.68 87.9792 195.587 87.9468 195.513 87.8821C195.445 87.8128 195.41 87.7249 195.41 87.6186V83.6519H193.939C193.704 83.6519 193.586 83.5525 193.586 83.3537C193.586 83.2566 193.615 83.1826 193.674 83.1318C193.738 83.0809 193.826 83.0555 193.939 83.0555H197.647C197.76 83.0555 197.846 83.0809 197.904 83.1318C197.968 83.1826 198 83.2566 198 83.3537C198 83.5525 197.882 83.6519 197.647 83.6519H196.175V87.6186C196.175 87.7249 196.141 87.8128 196.072 87.8821C196.004 87.9468 195.911 87.9792 195.793 87.9792Z" fill="#82A5DC"/>
<path d="M42 98.9925C42 97.8921 42.8921 97 43.9925 97H112.308C113.408 97 114.3 97.8921 114.3 98.9925C114.3 100.093 113.408 100.985 112.308 100.985H43.9925C42.8921 100.985 42 100.093 42 98.9925Z" fill="#82A5DC"/>
<path d="M132 98.9925C132 97.8921 132.892 97 133.993 97H190.922C192.022 97 192.914 97.8921 192.914 98.9925C192.914 100.093 192.022 100.985 190.922 100.985H133.993C132.892 100.985 132 100.093 132 98.9925Z" fill="#82A5DC"/>
<path d="M134.683 79C135.685 79 136.453 79.3329 136.988 79.9986C137.531 80.657 137.802 81.6001 137.802 82.828C137.802 83.6935 137.676 84.4406 137.424 85.0693C137.171 85.6907 136.808 86.1678 136.334 86.5007C135.86 86.8336 135.299 87 134.649 87C134.213 87 133.777 86.9223 133.342 86.767C132.906 86.6117 132.535 86.3971 132.229 86.1234C132.076 85.9977 132 85.8497 132 85.6796C132 85.5465 132.038 85.4355 132.115 85.3467C132.191 85.2506 132.283 85.2025 132.39 85.2025C132.459 85.2025 132.52 85.2136 132.573 85.2358C132.634 85.258 132.703 85.295 132.78 85.3467C133.422 85.8276 134.033 86.068 134.614 86.068C135.249 86.068 135.742 85.7869 136.094 85.2247C136.445 84.6551 136.621 83.8636 136.621 82.8502V82.828C136.453 83.2053 136.178 83.5049 135.795 83.7268C135.421 83.9413 134.997 84.0485 134.523 84.0485C134.041 84.0485 133.609 83.945 133.227 83.7379C132.845 83.5233 132.547 83.2275 132.333 82.8502C132.126 82.473 132.023 82.0402 132.023 81.552C132.023 81.0638 132.138 80.6274 132.367 80.2427C132.596 79.8507 132.91 79.5474 133.307 79.3329C133.712 79.111 134.171 79 134.683 79ZM134.74 83.1165C135.222 83.1165 135.612 82.9723 135.91 82.6838C136.216 82.3879 136.369 82.0032 136.369 81.5298C136.369 81.049 136.22 80.6644 135.922 80.3759C135.623 80.08 135.23 79.932 134.74 79.932C134.267 79.932 133.884 80.08 133.594 80.3759C133.311 80.6644 133.17 81.049 133.17 81.5298C133.17 82.0032 133.311 82.3879 133.594 82.6838C133.884 82.9723 134.267 83.1165 134.74 83.1165Z" fill="#35BAA2"/>
<path d="M142.178 81.9626C142.682 81.9626 143.126 82.0661 143.508 82.2732C143.898 82.4804 144.2 82.7725 144.414 83.1498C144.628 83.527 144.735 83.9598 144.735 84.448C144.735 84.9436 144.616 85.3837 144.379 85.7684C144.142 86.153 143.81 86.4526 143.382 86.6671C142.961 86.8816 142.476 86.9889 141.925 86.9889C141.452 86.9889 140.985 86.9112 140.527 86.7559C140.076 86.6006 139.697 86.386 139.391 86.1123C139.239 85.9866 139.162 85.8387 139.162 85.6685C139.162 85.5354 139.2 85.4244 139.277 85.3356C139.353 85.2395 139.445 85.1914 139.552 85.1914C139.621 85.1914 139.682 85.2025 139.735 85.2247C139.797 85.2469 139.865 85.2839 139.942 85.3356C140.255 85.5724 140.569 85.7536 140.882 85.8793C141.203 85.9977 141.539 86.0569 141.891 86.0569C142.426 86.0569 142.843 85.92 143.141 85.6463C143.439 85.3652 143.588 84.9732 143.588 84.4702C143.588 83.9894 143.435 83.6047 143.129 83.3162C142.831 83.0277 142.43 82.8835 141.925 82.8835C141.597 82.8835 141.302 82.939 141.043 83.0499C140.783 83.1535 140.538 83.3199 140.309 83.5492C140.194 83.6528 140.056 83.7046 139.896 83.7046C139.766 83.7046 139.655 83.6676 139.563 83.5936C139.479 83.5123 139.437 83.4087 139.437 83.2829V79.6325C139.437 79.4623 139.483 79.3292 139.575 79.233C139.674 79.1368 139.816 79.0888 139.999 79.0888H143.944C144.119 79.0888 144.257 79.1295 144.356 79.2108C144.456 79.2922 144.505 79.4031 144.505 79.5437C144.505 79.6916 144.456 79.8063 144.356 79.8877C144.257 79.969 144.119 80.0097 143.944 80.0097H140.607V82.473C141.027 82.1327 141.551 81.9626 142.178 81.9626Z" fill="#35BAA2"/>
<path d="M151.312 84.3814C151.687 84.3814 151.874 84.5331 151.874 84.8363C151.874 85.1396 151.687 85.2913 151.312 85.2913H150.578V86.3897C150.578 86.5747 150.525 86.7189 150.418 86.8225C150.311 86.9186 150.169 86.9667 149.993 86.9667C149.825 86.9667 149.688 86.9186 149.581 86.8225C149.474 86.7189 149.42 86.5747 149.42 86.3897V85.2913H146.198C146.03 85.2913 145.9 85.2469 145.808 85.1581C145.716 85.0693 145.671 84.9547 145.671 84.8141C145.671 84.6662 145.72 84.522 145.82 84.3814L149.477 79.2885C149.6 79.1184 149.772 79.0333 149.993 79.0333C150.154 79.0333 150.292 79.0851 150.406 79.1886C150.521 79.2848 150.578 79.4253 150.578 79.6103V84.3814H151.312ZM146.943 84.3814H149.42V80.9196L146.943 84.3814Z" fill="#35BAA2"/>
<path d="M157.889 79.0888C158.058 79.0888 158.184 79.1331 158.268 79.2219C158.359 79.3107 158.405 79.4253 158.405 79.5659C158.405 79.699 158.363 79.8396 158.279 79.9875L154.53 86.6893C154.407 86.8964 154.239 87 154.025 87C153.88 87 153.746 86.9519 153.624 86.8558C153.509 86.7522 153.452 86.6264 153.452 86.4785C153.452 86.3897 153.482 86.2862 153.544 86.1678L156.995 80.0319H153.268C153.085 80.0319 152.947 79.9912 152.856 79.9098C152.764 79.8285 152.718 79.7138 152.718 79.5659C152.718 79.2478 152.901 79.0888 153.268 79.0888H157.889Z" fill="#35BAA2"/>
<path d="M160.362 86.9667C160.155 86.9667 159.979 86.9001 159.834 86.767C159.697 86.6338 159.628 86.4637 159.628 86.2566C159.628 86.0495 159.697 85.8793 159.834 85.7462C159.979 85.6056 160.155 85.5354 160.362 85.5354C160.568 85.5354 160.74 85.6056 160.878 85.7462C161.015 85.8793 161.084 86.0495 161.084 86.2566C161.084 86.4637 161.015 86.6338 160.878 86.767C160.74 86.9001 160.568 86.9667 160.362 86.9667Z" fill="#35BAA2"/>
<path d="M165.169 87C164.229 87 163.51 86.6597 163.014 85.9792C162.524 85.2987 162.28 84.3074 162.28 83.0055C162.28 81.6963 162.524 80.7013 163.014 80.0208C163.51 79.3403 164.229 79 165.169 79C166.11 79 166.824 79.3403 167.314 80.0208C167.81 80.6939 168.059 81.6852 168.059 82.9945C168.059 84.3037 167.81 85.2987 167.314 85.9792C166.824 86.6597 166.11 87 165.169 87ZM165.169 86.0791C165.758 86.0791 166.19 85.8313 166.465 85.3356C166.74 84.84 166.878 84.0596 166.878 82.9945C166.878 81.9293 166.74 81.1526 166.465 80.6644C166.19 80.1687 165.758 79.9209 165.169 79.9209C164.581 79.9209 164.149 80.1687 163.874 80.6644C163.598 81.1526 163.461 81.9293 163.461 82.9945C163.461 84.0522 163.598 84.8326 163.874 85.3356C164.149 85.8313 164.581 86.0791 165.169 86.0791Z" fill="#35BAA2"/>
<path d="M171.792 79C172.794 79 173.562 79.3329 174.097 79.9986C174.64 80.657 174.911 81.6001 174.911 82.828C174.911 83.6935 174.785 84.4406 174.533 85.0693C174.281 85.6907 173.918 86.1678 173.444 86.5007C172.97 86.8336 172.408 87 171.758 87C171.322 87 170.887 86.9223 170.451 86.767C170.015 86.6117 169.644 86.3971 169.339 86.1234C169.186 85.9977 169.109 85.8497 169.109 85.6796C169.109 85.5465 169.148 85.4355 169.224 85.3467C169.3 85.2506 169.392 85.2025 169.499 85.2025C169.568 85.2025 169.629 85.2136 169.683 85.2358C169.744 85.258 169.813 85.295 169.889 85.3467C170.531 85.8276 171.143 86.068 171.724 86.068C172.358 86.068 172.851 85.7869 173.203 85.2247C173.554 84.6551 173.73 83.8636 173.73 82.8502V82.828C173.562 83.2053 173.287 83.5049 172.905 83.7268C172.53 83.9413 172.106 84.0485 171.632 84.0485C171.15 84.0485 170.718 83.945 170.336 83.7379C169.954 83.5233 169.656 83.2275 169.442 82.8502C169.235 82.473 169.132 82.0402 169.132 81.552C169.132 81.0638 169.247 80.6274 169.476 80.2427C169.706 79.8507 170.019 79.5474 170.416 79.3329C170.822 79.111 171.28 79 171.792 79ZM171.85 83.1165C172.331 83.1165 172.721 82.9723 173.019 82.6838C173.325 82.3879 173.478 82.0032 173.478 81.5298C173.478 81.049 173.329 80.6644 173.031 80.3759C172.733 80.08 172.339 79.932 171.85 79.932C171.376 79.932 170.994 80.08 170.703 80.3759C170.42 80.6644 170.279 81.049 170.279 81.5298C170.279 82.0032 170.42 82.3879 170.703 82.6838C170.994 82.9723 171.376 83.1165 171.85 83.1165Z" fill="#35BAA2"/>
<path d="M230.411 89.7889C230.515 89.7889 230.604 89.8236 230.676 89.8931C230.747 89.9562 230.783 90.0383 230.783 90.1394C230.783 90.2404 230.747 90.3257 230.676 90.3951C230.604 90.4583 230.515 90.4899 230.411 90.4899H228.754V92.0907C228.754 92.1917 228.718 92.277 228.647 92.3464C228.581 92.4159 228.496 92.4506 228.392 92.4506C228.287 92.4506 228.199 92.4159 228.127 92.3464C228.062 92.277 228.029 92.1917 228.029 92.0907V90.4899H226.372C226.268 90.4899 226.18 90.4551 226.108 90.3857C226.036 90.3162 226 90.2341 226 90.1394C226 90.0383 226.036 89.9562 226.108 89.8931C226.18 89.8236 226.268 89.7889 226.372 89.7889H228.029V88.1881C228.029 88.0871 228.062 88.0018 228.127 87.9323C228.199 87.8629 228.287 87.8281 228.392 87.8281C228.496 87.8281 228.581 87.8629 228.647 87.9323C228.718 88.0018 228.754 88.0871 228.754 88.1881V89.7889H230.411Z" fill="#6FD48E"/>
<path d="M234.269 92.9147C233.465 92.9147 232.851 92.6243 232.426 92.0433C232.008 91.4623 231.799 90.6161 231.799 89.5047C231.799 88.387 232.008 87.5377 232.426 86.9567C232.851 86.3757 233.465 86.0853 234.269 86.0853C235.073 86.0853 235.684 86.3757 236.102 86.9567C236.527 87.5313 236.739 88.3775 236.739 89.4953C236.739 90.613 236.527 91.4623 236.102 92.0433C235.684 92.6243 235.073 92.9147 234.269 92.9147ZM234.269 92.1286C234.772 92.1286 235.141 91.917 235.377 91.4939C235.612 91.0708 235.729 90.4046 235.729 89.4953C235.729 88.5859 235.612 87.9229 235.377 87.5061C235.141 87.083 234.772 86.8714 234.269 86.8714C233.766 86.8714 233.397 87.083 233.161 87.5061C232.926 87.9229 232.808 88.5859 232.808 89.4953C232.808 90.3983 232.926 91.0645 233.161 91.4939C233.397 91.917 233.766 92.1286 234.269 92.1286Z" fill="#6FD48E"/>
<path d="M238.372 92.8863C238.196 92.8863 238.045 92.8295 237.921 92.7158C237.804 92.6022 237.745 92.4569 237.745 92.2801C237.745 92.1033 237.804 91.9581 237.921 91.8444C238.045 91.7244 238.196 91.6644 238.372 91.6644C238.549 91.6644 238.696 91.7244 238.813 91.8444C238.931 91.9581 238.99 92.1033 238.99 92.2801C238.99 92.4569 238.931 92.6022 238.813 92.7158C238.696 92.8295 238.549 92.8863 238.372 92.8863Z" fill="#6FD48E"/>
<path d="M242.482 92.9147C241.678 92.9147 241.064 92.6243 240.639 92.0433C240.221 91.4623 240.012 90.6161 240.012 89.5047C240.012 88.387 240.221 87.5377 240.639 86.9567C241.064 86.3757 241.678 86.0853 242.482 86.0853C243.286 86.0853 243.897 86.3757 244.315 86.9567C244.74 87.5313 244.952 88.3775 244.952 89.4953C244.952 90.613 244.74 91.4623 244.315 92.0433C243.897 92.6243 243.286 92.9147 242.482 92.9147ZM242.482 92.1286C242.985 92.1286 243.354 91.917 243.589 91.4939C243.825 91.0708 243.942 90.4046 243.942 89.4953C243.942 88.5859 243.825 87.9229 243.589 87.5061C243.354 87.083 242.985 86.8714 242.482 86.8714C241.979 86.8714 241.61 87.083 241.374 87.5061C241.139 87.9229 241.021 88.5859 241.021 89.4953C241.021 90.3983 241.139 91.0645 241.374 91.4939C241.61 91.917 241.979 92.1286 242.482 92.1286Z" fill="#6FD48E"/>
<path d="M248.144 86.0853C249 86.0853 249.656 86.3694 250.114 86.9378C250.578 87.4998 250.81 88.3049 250.81 89.3532C250.81 90.092 250.702 90.7298 250.486 91.2666C250.271 91.797 249.96 92.2043 249.555 92.4885C249.15 92.7727 248.67 92.9147 248.114 92.9147C247.742 92.9147 247.369 92.8484 246.997 92.7158C246.624 92.5832 246.307 92.4001 246.046 92.1664C245.915 92.0591 245.85 91.9328 245.85 91.7875C245.85 91.6739 245.883 91.5792 245.948 91.5034C246.013 91.4213 246.092 91.3802 246.183 91.3802C246.242 91.3802 246.294 91.3897 246.34 91.4087C246.392 91.4276 246.451 91.4592 246.516 91.5034C247.065 91.9138 247.588 92.1191 248.085 92.1191C248.627 92.1191 249.049 91.8791 249.349 91.3992C249.65 90.9129 249.8 90.2373 249.8 89.3721V89.3532C249.656 89.6752 249.421 89.931 249.094 90.1204C248.774 90.3036 248.411 90.3951 248.006 90.3951C247.595 90.3951 247.225 90.3067 246.899 90.1299C246.572 89.9468 246.317 89.6942 246.134 89.3721C245.958 89.0501 245.87 88.6806 245.87 88.2639C245.87 87.8471 245.968 87.4745 246.164 87.1461C246.36 86.8115 246.628 86.5525 246.967 86.3694C247.314 86.18 247.706 86.0853 248.144 86.0853ZM248.193 89.5995C248.604 89.5995 248.937 89.4763 249.192 89.23C249.454 88.9774 249.584 88.6491 249.584 88.2449C249.584 87.8345 249.457 87.5061 249.202 87.2598C248.947 87.0072 248.611 86.8809 248.193 86.8809C247.787 86.8809 247.461 87.0072 247.212 87.2598C246.971 87.5061 246.85 87.8345 246.85 88.2449C246.85 88.6491 246.971 88.9774 247.212 89.23C247.461 89.4763 247.787 89.5995 248.193 89.5995Z" fill="#6FD48E"/>
<path d="M254.393 92.7537C254.302 92.9179 254.174 93 254.011 93C253.913 93 253.825 92.9653 253.746 92.8958C253.675 92.8263 253.639 92.7379 253.639 92.6306C253.639 92.5422 253.665 92.4569 253.717 92.3748L257.383 86.2463C257.481 86.0821 257.612 86 257.775 86C257.873 86 257.958 86.0347 258.03 86.1042C258.108 86.1737 258.147 86.2621 258.147 86.3694C258.147 86.4578 258.121 86.5431 258.069 86.6252L254.393 92.7537ZM253.482 90.1583C252.952 90.1583 252.537 89.9847 252.237 89.6373C251.936 89.29 251.786 88.7817 251.786 88.1123C251.786 87.4429 251.936 86.9378 252.237 86.5968C252.537 86.2494 252.952 86.0758 253.482 86.0758C254.018 86.0758 254.436 86.2494 254.736 86.5968C255.037 86.9378 255.187 87.4429 255.187 88.1123C255.187 88.788 255.037 89.2995 254.736 89.6468C254.436 89.9878 254.018 90.1583 253.482 90.1583ZM253.482 89.5142C253.769 89.5142 253.982 89.4037 254.119 89.1827C254.256 88.9553 254.325 88.5986 254.325 88.1123C254.325 87.6324 254.256 87.2819 254.119 87.0609C253.982 86.8399 253.769 86.7294 253.482 86.7294C253.194 86.7294 252.982 86.8399 252.845 87.0609C252.714 87.2756 252.649 87.6261 252.649 88.1123C252.649 88.5986 252.714 88.9553 252.845 89.1827C252.982 89.4037 253.194 89.5142 253.482 89.5142ZM258.294 92.9053C257.759 92.9053 257.34 92.7348 257.04 92.3938C256.739 92.0465 256.589 91.535 256.589 90.8593C256.589 90.1899 256.739 89.6847 257.04 89.3437C257.34 88.9964 257.759 88.8227 258.294 88.8227C258.824 88.8227 259.239 88.9964 259.539 89.3437C259.846 89.6847 260 90.1899 260 90.8593C260 91.5286 259.85 92.037 259.549 92.3843C259.249 92.7316 258.83 92.9053 258.294 92.9053ZM258.294 92.2612C258.582 92.2612 258.791 92.1507 258.922 91.9296C259.059 91.7023 259.128 91.3455 259.128 90.8593C259.128 90.3793 259.059 90.0289 258.922 89.8078C258.785 89.5805 258.575 89.4668 258.294 89.4668C258.007 89.4668 257.795 89.5774 257.657 89.7984C257.52 90.0194 257.452 90.373 257.452 90.8593C257.452 91.3455 257.52 91.7023 257.657 91.9296C257.795 92.1507 258.007 92.2612 258.294 92.2612Z" fill="#6FD48E"/>
<g filter="url(#filter2_d)">
<path d="M20 121C20 118.791 21.7909 117 24 117H269C271.209 117 273 118.791 273 121V153C273 155.209 271.209 157 269 157H24C21.7909 157 20 155.209 20 153V121Z" fill="url(#paint1_linear)"/>
</g>
<g filter="url(#filter3_d)">
<path d="M20 121C20 118.791 21.7909 117 24 117H26V157H24C21.7909 157 20 155.209 20 153V121Z" fill="#4782E1"/>
</g>
<path d="M66.9761 136.622C66.9369 136.752 66.8742 136.846 66.7879 136.902C66.7017 136.967 66.6076 137 66.5057 137C66.3724 137 66.2548 136.955 66.1529 136.866C66.051 136.776 66 136.659 66 136.512C66 136.455 66.0118 136.39 66.0353 136.317L68.7872 127.378C68.8264 127.248 68.8891 127.154 68.9754 127.098C69.0616 127.033 69.1557 127 69.2576 127C69.3909 127 69.5085 127.045 69.6104 127.134C69.7124 127.224 69.7633 127.341 69.7633 127.488C69.7633 127.545 69.7516 127.61 69.728 127.683L66.9761 136.622Z" fill="#82A5DC"/>
<path d="M77.0027 136.293C75.8972 136.293 75.0583 135.996 74.4859 135.402C73.9136 134.809 73.6274 133.935 73.6274 132.78V128.171C73.6274 127.976 73.6823 127.821 73.7921 127.707C73.9018 127.593 74.0469 127.537 74.2272 127.537C74.4075 127.537 74.5526 127.593 74.6623 127.707C74.7721 127.821 74.827 127.976 74.827 128.171V132.866C74.827 133.654 75.0073 134.252 75.368 134.659C75.7365 135.065 76.2814 135.268 77.0027 135.268C77.7161 135.268 78.2571 135.065 78.6256 134.659C78.9941 134.252 79.1783 133.654 79.1783 132.866V128.171C79.1783 127.984 79.2332 127.833 79.343 127.72C79.4527 127.598 79.5978 127.537 79.7781 127.537C79.9584 127.537 80.1035 127.593 80.2132 127.707C80.323 127.821 80.3779 127.976 80.3779 128.171V132.78C80.3779 133.927 80.0878 134.801 79.5076 135.402C78.9353 135.996 78.1003 136.293 77.0027 136.293Z" fill="#82A5DC"/>
<path d="M84.9825 136.293C84.3867 136.293 83.8183 136.207 83.2773 136.037C82.7442 135.866 82.3169 135.63 81.9954 135.329C81.8464 135.199 81.772 135.033 81.772 134.829C81.772 134.683 81.8112 134.561 81.8896 134.463C81.968 134.358 82.062 134.305 82.1718 134.305C82.2816 134.305 82.4149 134.358 82.5717 134.463C83.2694 135 84.0652 135.268 84.959 135.268C85.5862 135.268 86.0684 135.146 86.4056 134.902C86.7427 134.659 86.9112 134.309 86.9112 133.854C86.9112 133.496 86.7544 133.228 86.4408 133.049C86.1272 132.87 85.6254 132.699 84.9355 132.537C84.2769 132.39 83.7359 132.224 83.3126 132.037C82.8892 131.85 82.556 131.598 82.3129 131.28C82.0777 130.955 81.9601 130.545 81.9601 130.049C81.9601 129.553 82.0895 129.114 82.3482 128.732C82.6148 128.341 82.9833 128.041 83.4537 127.829C83.9241 127.61 84.4612 127.5 85.0649 127.5C85.6215 127.5 86.1351 127.581 86.6055 127.744C87.0759 127.907 87.4757 128.146 87.805 128.463C87.9618 128.602 88.0402 128.768 88.0402 128.963C88.0402 129.102 87.9971 129.224 87.9109 129.329C87.8325 129.435 87.7384 129.488 87.6286 129.488C87.5267 129.488 87.3973 129.435 87.2405 129.329C86.8799 129.045 86.5388 128.841 86.2174 128.72C85.9038 128.589 85.5235 128.524 85.0766 128.524C84.4729 128.524 84.0025 128.654 83.6654 128.915C83.3282 129.167 83.1597 129.52 83.1597 129.976C83.1597 130.366 83.3086 130.663 83.6066 130.866C83.9045 131.061 84.3828 131.24 85.0413 131.402C85.7313 131.565 86.2879 131.736 86.7113 131.915C87.1425 132.085 87.4836 132.325 87.7345 132.634C87.9932 132.935 88.1226 133.325 88.1226 133.805C88.1226 134.293 87.9893 134.728 87.7227 135.11C87.464 135.484 87.0955 135.776 86.6172 135.988C86.1468 136.191 85.6019 136.293 84.9825 136.293Z" fill="#82A5DC"/>
<path d="M90.2154 136.195C90.0272 136.195 89.8782 136.142 89.7685 136.037C89.6665 135.923 89.6156 135.772 89.6156 135.585V128.207C89.6156 128.02 89.6665 127.874 89.7685 127.768C89.8782 127.654 90.0272 127.598 90.2154 127.598H92.5204C93.8611 127.598 94.8999 127.972 95.6369 128.72C96.3739 129.467 96.7424 130.524 96.7424 131.89C96.7424 133.256 96.3739 134.317 95.6369 135.073C94.8999 135.821 93.8611 136.195 92.5204 136.195H90.2154ZM92.4498 135.146C94.4883 135.146 95.5075 134.061 95.5075 131.89C95.5075 129.728 94.4883 128.646 92.4498 128.646H90.8269V135.146H92.4498Z" fill="#82A5DC"/>
<path d="M100.472 136.256C100.292 136.256 100.143 136.199 100.025 136.085C99.9152 135.963 99.8603 135.809 99.8603 135.622V128.646H97.5083C97.1319 128.646 96.9438 128.472 96.9438 128.122C96.9438 127.951 96.9908 127.821 97.0849 127.732C97.1868 127.642 97.3279 127.598 97.5083 127.598H103.436C103.616 127.598 103.753 127.642 103.847 127.732C103.949 127.821 104 127.951 104 128.122C104 128.472 103.812 128.646 103.436 128.646H101.083V135.622C101.083 135.809 101.029 135.963 100.919 136.085C100.809 136.199 100.66 136.256 100.472 136.256Z" fill="#82A5DC"/>
<path d="M66.9761 136.622C66.9369 136.752 66.8742 136.846 66.7879 136.902C66.7017 136.967 66.6076 137 66.5057 137C66.3724 137 66.2548 136.955 66.1529 136.866C66.051 136.776 66 136.659 66 136.512C66 136.455 66.0118 136.39 66.0353 136.317L68.7872 127.378C68.8264 127.248 68.8891 127.154 68.9754 127.098C69.0616 127.033 69.1557 127 69.2576 127C69.3909 127 69.5085 127.045 69.6104 127.134C69.7124 127.224 69.7633 127.341 69.7633 127.488C69.7633 127.545 69.7516 127.61 69.728 127.683L66.9761 136.622Z" fill="#82A5DC"/>
<path d="M77.0027 136.293C75.8972 136.293 75.0583 135.996 74.4859 135.402C73.9136 134.809 73.6274 133.935 73.6274 132.78V128.171C73.6274 127.976 73.6823 127.821 73.7921 127.707C73.9018 127.593 74.0469 127.537 74.2272 127.537C74.4075 127.537 74.5526 127.593 74.6623 127.707C74.7721 127.821 74.827 127.976 74.827 128.171V132.866C74.827 133.654 75.0073 134.252 75.368 134.659C75.7365 135.065 76.2814 135.268 77.0027 135.268C77.7161 135.268 78.2571 135.065 78.6256 134.659C78.9941 134.252 79.1783 133.654 79.1783 132.866V128.171C79.1783 127.984 79.2332 127.833 79.343 127.72C79.4527 127.598 79.5978 127.537 79.7781 127.537C79.9584 127.537 80.1035 127.593 80.2132 127.707C80.323 127.821 80.3779 127.976 80.3779 128.171V132.78C80.3779 133.927 80.0878 134.801 79.5076 135.402C78.9353 135.996 78.1003 136.293 77.0027 136.293Z" fill="#82A5DC"/>
<path d="M84.9825 136.293C84.3867 136.293 83.8183 136.207 83.2773 136.037C82.7442 135.866 82.3169 135.63 81.9954 135.329C81.8464 135.199 81.772 135.033 81.772 134.829C81.772 134.683 81.8112 134.561 81.8896 134.463C81.968 134.358 82.062 134.305 82.1718 134.305C82.2816 134.305 82.4149 134.358 82.5717 134.463C83.2694 135 84.0652 135.268 84.959 135.268C85.5862 135.268 86.0684 135.146 86.4056 134.902C86.7427 134.659 86.9112 134.309 86.9112 133.854C86.9112 133.496 86.7544 133.228 86.4408 133.049C86.1272 132.87 85.6254 132.699 84.9355 132.537C84.2769 132.39 83.7359 132.224 83.3126 132.037C82.8892 131.85 82.556 131.598 82.3129 131.28C82.0777 130.955 81.9601 130.545 81.9601 130.049C81.9601 129.553 82.0895 129.114 82.3482 128.732C82.6148 128.341 82.9833 128.041 83.4537 127.829C83.9241 127.61 84.4612 127.5 85.0649 127.5C85.6215 127.5 86.1351 127.581 86.6055 127.744C87.0759 127.907 87.4757 128.146 87.805 128.463C87.9618 128.602 88.0402 128.768 88.0402 128.963C88.0402 129.102 87.9971 129.224 87.9109 129.329C87.8325 129.435 87.7384 129.488 87.6286 129.488C87.5267 129.488 87.3973 129.435 87.2405 129.329C86.8799 129.045 86.5388 128.841 86.2174 128.72C85.9038 128.589 85.5235 128.524 85.0766 128.524C84.4729 128.524 84.0025 128.654 83.6654 128.915C83.3282 129.167 83.1597 129.52 83.1597 129.976C83.1597 130.366 83.3086 130.663 83.6066 130.866C83.9045 131.061 84.3828 131.24 85.0413 131.402C85.7313 131.565 86.2879 131.736 86.7113 131.915C87.1425 132.085 87.4836 132.325 87.7345 132.634C87.9932 132.935 88.1226 133.325 88.1226 133.805C88.1226 134.293 87.9893 134.728 87.7227 135.11C87.464 135.484 87.0955 135.776 86.6172 135.988C86.1468 136.191 85.6019 136.293 84.9825 136.293Z" fill="#82A5DC"/>
<path d="M90.2154 136.195C90.0272 136.195 89.8782 136.142 89.7685 136.037C89.6665 135.923 89.6156 135.772 89.6156 135.585V128.207C89.6156 128.02 89.6665 127.874 89.7685 127.768C89.8782 127.654 90.0272 127.598 90.2154 127.598H92.5204C93.8611 127.598 94.8999 127.972 95.6369 128.72C96.3739 129.467 96.7424 130.524 96.7424 131.89C96.7424 133.256 96.3739 134.317 95.6369 135.073C94.8999 135.821 93.8611 136.195 92.5204 136.195H90.2154ZM92.4498 135.146C94.4883 135.146 95.5075 134.061 95.5075 131.89C95.5075 129.728 94.4883 128.646 92.4498 128.646H90.8269V135.146H92.4498Z" fill="#82A5DC"/>
<path d="M100.472 136.256C100.292 136.256 100.143 136.199 100.025 136.085C99.9152 135.963 99.8603 135.809 99.8603 135.622V128.646H97.5083C97.1319 128.646 96.9438 128.472 96.9438 128.122C96.9438 127.951 96.9908 127.821 97.0849 127.732C97.1868 127.642 97.3279 127.598 97.5083 127.598H103.436C103.616 127.598 103.753 127.642 103.847 127.732C103.949 127.821 104 127.951 104 128.122C104 128.472 103.812 128.646 103.436 128.646H101.083V135.622C101.083 135.809 101.029 135.963 100.919 136.085C100.809 136.199 100.66 136.256 100.472 136.256Z" fill="#82A5DC"/>
<path d="M181.111 137C180.42 137 179.895 136.831 179.537 136.494C179.179 136.156 179 135.659 179 135.003V132.381C179 132.27 179.034 132.183 179.103 132.118C179.172 132.053 179.262 132.021 179.375 132.021C179.488 132.021 179.579 132.053 179.647 132.118C179.716 132.183 179.75 132.27 179.75 132.381V135.051C179.75 135.5 179.863 135.84 180.089 136.071C180.319 136.302 180.66 136.417 181.111 136.417C181.558 136.417 181.896 136.302 182.127 136.071C182.357 135.84 182.472 135.5 182.472 135.051V132.381C182.472 132.275 182.507 132.19 182.575 132.125C182.644 132.055 182.735 132.021 182.848 132.021C182.96 132.021 183.051 132.053 183.12 132.118C183.189 132.183 183.223 132.27 183.223 132.381V135.003C183.223 135.655 183.041 136.152 182.678 136.494C182.32 136.831 181.798 137 181.111 137Z" fill="#82A5DC"/>
<path d="M186.103 137C185.731 137 185.375 136.951 185.037 136.854C184.703 136.757 184.436 136.623 184.235 136.452C184.142 136.378 184.095 136.283 184.095 136.168C184.095 136.085 184.119 136.015 184.168 135.96C184.218 135.9 184.276 135.87 184.345 135.87C184.414 135.87 184.497 135.9 184.595 135.96C185.032 136.265 185.53 136.417 186.089 136.417C186.481 136.417 186.783 136.348 186.994 136.209C187.204 136.071 187.31 135.872 187.31 135.613C187.31 135.41 187.212 135.257 187.016 135.155C186.819 135.054 186.506 134.957 186.074 134.864C185.662 134.781 185.324 134.686 185.059 134.58C184.794 134.473 184.585 134.33 184.433 134.15C184.286 133.965 184.213 133.731 184.213 133.449C184.213 133.167 184.294 132.918 184.455 132.7C184.622 132.479 184.853 132.307 185.147 132.187C185.441 132.062 185.777 132 186.155 132C186.503 132 186.824 132.046 187.119 132.139C187.413 132.231 187.663 132.368 187.869 132.548C187.967 132.626 188.016 132.721 188.016 132.832C188.016 132.911 187.989 132.98 187.935 133.04C187.886 133.1 187.827 133.13 187.759 133.13C187.695 133.13 187.614 133.1 187.516 133.04C187.29 132.878 187.077 132.763 186.876 132.693C186.68 132.62 186.442 132.583 186.162 132.583C185.785 132.583 185.49 132.656 185.279 132.804C185.068 132.948 184.963 133.149 184.963 133.408C184.963 133.63 185.056 133.798 185.243 133.914C185.429 134.025 185.728 134.127 186.14 134.219C186.572 134.312 186.92 134.409 187.185 134.51C187.455 134.607 187.668 134.744 187.825 134.92C187.987 135.091 188.068 135.313 188.068 135.585C188.068 135.863 187.984 136.11 187.818 136.327C187.656 136.54 187.425 136.706 187.126 136.827C186.832 136.942 186.491 137 186.103 137Z" fill="#82A5DC"/>
<path d="M189.377 136.945C189.259 136.945 189.166 136.914 189.097 136.854C189.033 136.79 189.002 136.704 189.002 136.598V132.402C189.002 132.296 189.033 132.213 189.097 132.153C189.166 132.088 189.259 132.055 189.377 132.055H190.819C191.657 132.055 192.307 132.268 192.768 132.693C193.229 133.119 193.46 133.72 193.46 134.497C193.46 135.273 193.229 135.877 192.768 136.307C192.307 136.732 191.657 136.945 190.819 136.945H189.377ZM190.775 136.348C192.05 136.348 192.687 135.731 192.687 134.497C192.687 133.267 192.05 132.652 190.775 132.652H189.759V136.348H190.775Z" fill="#82A5DC"/>
<path d="M195.793 136.979C195.68 136.979 195.587 136.947 195.513 136.882C195.445 136.813 195.41 136.725 195.41 136.619V132.652H193.939C193.704 132.652 193.586 132.552 193.586 132.354C193.586 132.257 193.615 132.183 193.674 132.132C193.738 132.081 193.826 132.055 193.939 132.055H197.647C197.76 132.055 197.846 132.081 197.904 132.132C197.968 132.183 198 132.257 198 132.354C198 132.552 197.882 132.652 197.647 132.652H196.175V136.619C196.175 136.725 196.141 136.813 196.072 136.882C196.004 136.947 195.911 136.979 195.793 136.979Z" fill="#82A5DC"/>
<path d="M181.111 137C180.42 137 179.895 136.831 179.537 136.494C179.179 136.156 179 135.659 179 135.003V132.381C179 132.27 179.034 132.183 179.103 132.118C179.172 132.053 179.262 132.021 179.375 132.021C179.488 132.021 179.579 132.053 179.647 132.118C179.716 132.183 179.75 132.27 179.75 132.381V135.051C179.75 135.5 179.863 135.84 180.089 136.071C180.319 136.302 180.66 136.417 181.111 136.417C181.558 136.417 181.896 136.302 182.127 136.071C182.357 135.84 182.472 135.5 182.472 135.051V132.381C182.472 132.275 182.507 132.19 182.575 132.125C182.644 132.055 182.735 132.021 182.848 132.021C182.96 132.021 183.051 132.053 183.12 132.118C183.189 132.183 183.223 132.27 183.223 132.381V135.003C183.223 135.655 183.041 136.152 182.678 136.494C182.32 136.831 181.798 137 181.111 137Z" fill="#82A5DC"/>
<path d="M186.103 137C185.731 137 185.375 136.951 185.037 136.854C184.703 136.757 184.436 136.623 184.235 136.452C184.142 136.378 184.095 136.283 184.095 136.168C184.095 136.085 184.119 136.015 184.168 135.96C184.218 135.9 184.276 135.87 184.345 135.87C184.414 135.87 184.497 135.9 184.595 135.96C185.032 136.265 185.53 136.417 186.089 136.417C186.481 136.417 186.783 136.348 186.994 136.209C187.204 136.071 187.31 135.872 187.31 135.613C187.31 135.41 187.212 135.257 187.016 135.155C186.819 135.054 186.506 134.957 186.074 134.864C185.662 134.781 185.324 134.686 185.059 134.58C184.794 134.473 184.585 134.33 184.433 134.15C184.286 133.965 184.213 133.731 184.213 133.449C184.213 133.167 184.294 132.918 184.455 132.7C184.622 132.479 184.853 132.307 185.147 132.187C185.441 132.062 185.777 132 186.155 132C186.503 132 186.824 132.046 187.119 132.139C187.413 132.231 187.663 132.368 187.869 132.548C187.967 132.626 188.016 132.721 188.016 132.832C188.016 132.911 187.989 132.98 187.935 133.04C187.886 133.1 187.827 133.13 187.759 133.13C187.695 133.13 187.614 133.1 187.516 133.04C187.29 132.878 187.077 132.763 186.876 132.693C186.68 132.62 186.442 132.583 186.162 132.583C185.785 132.583 185.49 132.656 185.279 132.804C185.068 132.948 184.963 133.149 184.963 133.408C184.963 133.63 185.056 133.798 185.243 133.914C185.429 134.025 185.728 134.127 186.14 134.219C186.572 134.312 186.92 134.409 187.185 134.51C187.455 134.607 187.668 134.744 187.825 134.92C187.987 135.091 188.068 135.313 188.068 135.585C188.068 135.863 187.984 136.11 187.818 136.327C187.656 136.54 187.425 136.706 187.126 136.827C186.832 136.942 186.491 137 186.103 137Z" fill="#82A5DC"/>
<path d="M189.377 136.945C189.259 136.945 189.166 136.914 189.097 136.854C189.033 136.79 189.002 136.704 189.002 136.598V132.402C189.002 132.296 189.033 132.213 189.097 132.153C189.166 132.088 189.259 132.055 189.377 132.055H190.819C191.657 132.055 192.307 132.268 192.768 132.693C193.229 133.119 193.46 133.72 193.46 134.497C193.46 135.273 193.229 135.877 192.768 136.307C192.307 136.732 191.657 136.945 190.819 136.945H189.377ZM190.775 136.348C192.05 136.348 192.687 135.731 192.687 134.497C192.687 133.267 192.05 132.652 190.775 132.652H189.759V136.348H190.775Z" fill="#82A5DC"/>
<path d="M195.793 136.979C195.68 136.979 195.587 136.947 195.513 136.882C195.445 136.813 195.41 136.725 195.41 136.619V132.652H193.939C193.704 132.652 193.586 132.552 193.586 132.354C193.586 132.257 193.615 132.183 193.674 132.132C193.738 132.081 193.826 132.055 193.939 132.055H197.647C197.76 132.055 197.846 132.081 197.904 132.132C197.968 132.183 198 132.257 198 132.354C198 132.552 197.882 132.652 197.647 132.652H196.175V136.619C196.175 136.725 196.141 136.813 196.072 136.882C196.004 136.947 195.911 136.979 195.793 136.979Z" fill="#82A5DC"/>
<path d="M42 147.993C42 146.892 42.8921 146 43.9925 146H112.308C113.408 146 114.3 146.892 114.3 147.993C114.3 149.093 113.408 149.985 112.308 149.985H43.9925C42.8921 149.985 42 149.093 42 147.993Z" fill="#82A5DC"/>
<path d="M132 147.993C132 146.892 132.892 146 133.993 146H190.922C192.022 146 192.914 146.892 192.914 147.993C192.914 149.093 192.022 149.985 190.922 149.985H133.993C132.892 149.985 132 149.093 132 147.993Z" fill="#82A5DC"/>
<path d="M134.683 128C135.685 128 136.453 128.333 136.988 128.999C137.531 129.657 137.802 130.6 137.802 131.828C137.802 132.693 137.676 133.441 137.424 134.069C137.171 134.691 136.808 135.168 136.334 135.501C135.86 135.834 135.299 136 134.649 136C134.213 136 133.777 135.922 133.342 135.767C132.906 135.612 132.535 135.397 132.229 135.123C132.076 134.998 132 134.85 132 134.68C132 134.546 132.038 134.436 132.115 134.347C132.191 134.251 132.283 134.202 132.39 134.202C132.459 134.202 132.52 134.214 132.573 134.236C132.634 134.258 132.703 134.295 132.78 134.347C133.422 134.828 134.033 135.068 134.614 135.068C135.249 135.068 135.742 134.787 136.094 134.225C136.445 133.655 136.621 132.864 136.621 131.85V131.828C136.453 132.205 136.178 132.505 135.795 132.727C135.421 132.941 134.997 133.049 134.523 133.049C134.041 133.049 133.609 132.945 133.227 132.738C132.845 132.523 132.547 132.227 132.333 131.85C132.126 131.473 132.023 131.04 132.023 130.552C132.023 130.064 132.138 129.627 132.367 129.243C132.596 128.851 132.91 128.547 133.307 128.333C133.712 128.111 134.171 128 134.683 128ZM134.74 132.117C135.222 132.117 135.612 131.972 135.91 131.684C136.216 131.388 136.369 131.003 136.369 130.53C136.369 130.049 136.22 129.664 135.922 129.376C135.623 129.08 135.23 128.932 134.74 128.932C134.267 128.932 133.884 129.08 133.594 129.376C133.311 129.664 133.17 130.049 133.17 130.53C133.17 131.003 133.311 131.388 133.594 131.684C133.884 131.972 134.267 132.117 134.74 132.117Z" fill="#35BAA2"/>
<path d="M142.178 130.963C142.682 130.963 143.126 131.066 143.508 131.273C143.898 131.48 144.2 131.773 144.414 132.15C144.628 132.527 144.735 132.96 144.735 133.448C144.735 133.944 144.616 134.384 144.379 134.768C144.142 135.153 143.81 135.453 143.382 135.667C142.961 135.882 142.476 135.989 141.925 135.989C141.452 135.989 140.985 135.911 140.527 135.756C140.076 135.601 139.697 135.386 139.391 135.112C139.239 134.987 139.162 134.839 139.162 134.669C139.162 134.535 139.2 134.424 139.277 134.336C139.353 134.239 139.445 134.191 139.552 134.191C139.621 134.191 139.682 134.202 139.735 134.225C139.797 134.247 139.865 134.284 139.942 134.336C140.255 134.572 140.569 134.754 140.882 134.879C141.203 134.998 141.539 135.057 141.891 135.057C142.426 135.057 142.843 134.92 143.141 134.646C143.439 134.365 143.588 133.973 143.588 133.47C143.588 132.989 143.435 132.605 143.129 132.316C142.831 132.028 142.43 131.883 141.925 131.883C141.597 131.883 141.302 131.939 141.043 132.05C140.783 132.153 140.538 132.32 140.309 132.549C140.194 132.653 140.056 132.705 139.896 132.705C139.766 132.705 139.655 132.668 139.563 132.594C139.479 132.512 139.437 132.409 139.437 132.283V128.632C139.437 128.462 139.483 128.329 139.575 128.233C139.674 128.137 139.816 128.089 139.999 128.089H143.944C144.119 128.089 144.257 128.129 144.356 128.211C144.456 128.292 144.505 128.403 144.505 128.544C144.505 128.692 144.456 128.806 144.356 128.888C144.257 128.969 144.119 129.01 143.944 129.01H140.607V131.473C141.027 131.133 141.551 130.963 142.178 130.963Z" fill="#35BAA2"/>
<path d="M151.312 133.381C151.687 133.381 151.874 133.533 151.874 133.836C151.874 134.14 151.687 134.291 151.312 134.291H150.578V135.39C150.578 135.575 150.525 135.719 150.418 135.822C150.311 135.919 150.169 135.967 149.993 135.967C149.825 135.967 149.688 135.919 149.581 135.822C149.474 135.719 149.42 135.575 149.42 135.39V134.291H146.198C146.03 134.291 145.9 134.247 145.808 134.158C145.716 134.069 145.671 133.955 145.671 133.814C145.671 133.666 145.72 133.522 145.82 133.381L149.477 128.288C149.6 128.118 149.772 128.033 149.993 128.033C150.154 128.033 150.292 128.085 150.406 128.189C150.521 128.285 150.578 128.425 150.578 128.61V133.381H151.312ZM146.943 133.381H149.42V129.92L146.943 133.381Z" fill="#35BAA2"/>
<path d="M157.889 128.089C158.058 128.089 158.184 128.133 158.268 128.222C158.359 128.311 158.405 128.425 158.405 128.566C158.405 128.699 158.363 128.84 158.279 128.988L154.53 135.689C154.407 135.896 154.239 136 154.025 136C153.88 136 153.746 135.952 153.624 135.856C153.509 135.752 153.452 135.626 153.452 135.479C153.452 135.39 153.482 135.286 153.544 135.168L156.995 129.032H153.268C153.085 129.032 152.947 128.991 152.856 128.91C152.764 128.828 152.718 128.714 152.718 128.566C152.718 128.248 152.901 128.089 153.268 128.089H157.889Z" fill="#35BAA2"/>
<path d="M160.362 135.967C160.155 135.967 159.979 135.9 159.834 135.767C159.697 135.634 159.628 135.464 159.628 135.257C159.628 135.049 159.697 134.879 159.834 134.746C159.979 134.606 160.155 134.535 160.362 134.535C160.568 134.535 160.74 134.606 160.878 134.746C161.015 134.879 161.084 135.049 161.084 135.257C161.084 135.464 161.015 135.634 160.878 135.767C160.74 135.9 160.568 135.967 160.362 135.967Z" fill="#35BAA2"/>
<path d="M165.169 136C164.229 136 163.51 135.66 163.014 134.979C162.524 134.299 162.28 133.307 162.28 132.006C162.28 130.696 162.524 129.701 163.014 129.021C163.51 128.34 164.229 128 165.169 128C166.11 128 166.824 128.34 167.314 129.021C167.81 129.694 168.059 130.685 168.059 131.994C168.059 133.304 167.81 134.299 167.314 134.979C166.824 135.66 166.11 136 165.169 136ZM165.169 135.079C165.758 135.079 166.19 134.831 166.465 134.336C166.74 133.84 166.878 133.06 166.878 131.994C166.878 130.929 166.74 130.153 166.465 129.664C166.19 129.169 165.758 128.921 165.169 128.921C164.581 128.921 164.149 129.169 163.874 129.664C163.598 130.153 163.461 130.929 163.461 131.994C163.461 133.052 163.598 133.833 163.874 134.336C164.149 134.831 164.581 135.079 165.169 135.079Z" fill="#35BAA2"/>
<path d="M171.792 128C172.794 128 173.562 128.333 174.097 128.999C174.64 129.657 174.911 130.6 174.911 131.828C174.911 132.693 174.785 133.441 174.533 134.069C174.281 134.691 173.918 135.168 173.444 135.501C172.97 135.834 172.408 136 171.758 136C171.322 136 170.887 135.922 170.451 135.767C170.015 135.612 169.644 135.397 169.339 135.123C169.186 134.998 169.109 134.85 169.109 134.68C169.109 134.546 169.148 134.436 169.224 134.347C169.3 134.251 169.392 134.202 169.499 134.202C169.568 134.202 169.629 134.214 169.683 134.236C169.744 134.258 169.813 134.295 169.889 134.347C170.531 134.828 171.143 135.068 171.724 135.068C172.358 135.068 172.851 134.787 173.203 134.225C173.554 133.655 173.73 132.864 173.73 131.85V131.828C173.562 132.205 173.287 132.505 172.905 132.727C172.53 132.941 172.106 133.049 171.632 133.049C171.15 133.049 170.718 132.945 170.336 132.738C169.954 132.523 169.656 132.227 169.442 131.85C169.235 131.473 169.132 131.04 169.132 130.552C169.132 130.064 169.247 129.627 169.476 129.243C169.706 128.851 170.019 128.547 170.416 128.333C170.822 128.111 171.28 128 171.792 128ZM171.85 132.117C172.331 132.117 172.721 131.972 173.019 131.684C173.325 131.388 173.478 131.003 173.478 130.53C173.478 130.049 173.329 129.664 173.031 129.376C172.733 129.08 172.339 128.932 171.85 128.932C171.376 128.932 170.994 129.08 170.703 129.376C170.42 129.664 170.279 130.049 170.279 130.53C170.279 131.003 170.42 131.388 170.703 131.684C170.994 131.972 171.376 132.117 171.85 132.117Z" fill="#35BAA2"/>
<path d="M230.411 138.789C230.515 138.789 230.604 138.824 230.676 138.893C230.747 138.956 230.783 139.038 230.783 139.139C230.783 139.24 230.747 139.326 230.676 139.395C230.604 139.458 230.515 139.49 230.411 139.49H228.754V141.091C228.754 141.192 228.718 141.277 228.647 141.346C228.581 141.416 228.496 141.451 228.392 141.451C228.287 141.451 228.199 141.416 228.127 141.346C228.062 141.277 228.029 141.192 228.029 141.091V139.49H226.372C226.268 139.49 226.18 139.455 226.108 139.386C226.036 139.316 226 139.234 226 139.139C226 139.038 226.036 138.956 226.108 138.893C226.18 138.824 226.268 138.789 226.372 138.789H228.029V137.188C228.029 137.087 228.062 137.002 228.127 136.932C228.199 136.863 228.287 136.828 228.392 136.828C228.496 136.828 228.581 136.863 228.647 136.932C228.718 137.002 228.754 137.087 228.754 137.188V138.789H230.411Z" fill="#6FD48E"/>
<path d="M234.269 141.915C233.465 141.915 232.851 141.624 232.426 141.043C232.008 140.462 231.799 139.616 231.799 138.505C231.799 137.387 232.008 136.538 232.426 135.957C232.851 135.376 233.465 135.085 234.269 135.085C235.073 135.085 235.684 135.376 236.102 135.957C236.527 136.531 236.739 137.378 236.739 138.495C236.739 139.613 236.527 140.462 236.102 141.043C235.684 141.624 235.073 141.915 234.269 141.915ZM234.269 141.129C234.772 141.129 235.141 140.917 235.377 140.494C235.612 140.071 235.729 139.405 235.729 138.495C235.729 137.586 235.612 136.923 235.377 136.506C235.141 136.083 234.772 135.871 234.269 135.871C233.766 135.871 233.397 136.083 233.161 136.506C232.926 136.923 232.808 137.586 232.808 138.495C232.808 139.398 232.926 140.065 233.161 140.494C233.397 140.917 233.766 141.129 234.269 141.129Z" fill="#6FD48E"/>
<path d="M238.372 141.886C238.196 141.886 238.045 141.829 237.921 141.716C237.804 141.602 237.745 141.457 237.745 141.28C237.745 141.103 237.804 140.958 237.921 140.844C238.045 140.724 238.196 140.664 238.372 140.664C238.549 140.664 238.696 140.724 238.813 140.844C238.931 140.958 238.99 141.103 238.99 141.28C238.99 141.457 238.931 141.602 238.813 141.716C238.696 141.829 238.549 141.886 238.372 141.886Z" fill="#6FD48E"/>
<path d="M242.482 141.915C241.678 141.915 241.064 141.624 240.639 141.043C240.221 140.462 240.012 139.616 240.012 138.505C240.012 137.387 240.221 136.538 240.639 135.957C241.064 135.376 241.678 135.085 242.482 135.085C243.286 135.085 243.897 135.376 244.315 135.957C244.74 136.531 244.952 137.378 244.952 138.495C244.952 139.613 244.74 140.462 244.315 141.043C243.897 141.624 243.286 141.915 242.482 141.915ZM242.482 141.129C242.985 141.129 243.354 140.917 243.589 140.494C243.825 140.071 243.942 139.405 243.942 138.495C243.942 137.586 243.825 136.923 243.589 136.506C243.354 136.083 242.985 135.871 242.482 135.871C241.979 135.871 241.61 136.083 241.374 136.506C241.139 136.923 241.021 137.586 241.021 138.495C241.021 139.398 241.139 140.065 241.374 140.494C241.61 140.917 241.979 141.129 242.482 141.129Z" fill="#6FD48E"/>
<path d="M248.144 135.085C249 135.085 249.656 135.369 250.114 135.938C250.578 136.5 250.81 137.305 250.81 138.353C250.81 139.092 250.702 139.73 250.486 140.267C250.271 140.797 249.96 141.204 249.555 141.488C249.15 141.773 248.67 141.915 248.114 141.915C247.742 141.915 247.369 141.848 246.997 141.716C246.624 141.583 246.307 141.4 246.046 141.166C245.915 141.059 245.85 140.933 245.85 140.788C245.85 140.674 245.883 140.579 245.948 140.503C246.013 140.421 246.092 140.38 246.183 140.38C246.242 140.38 246.294 140.39 246.34 140.409C246.392 140.428 246.451 140.459 246.516 140.503C247.065 140.914 247.588 141.119 248.085 141.119C248.627 141.119 249.049 140.879 249.349 140.399C249.65 139.913 249.8 139.237 249.8 138.372V138.353C249.656 138.675 249.421 138.931 249.094 139.12C248.774 139.304 248.411 139.395 248.006 139.395C247.595 139.395 247.225 139.307 246.899 139.13C246.572 138.947 246.317 138.694 246.134 138.372C245.958 138.05 245.87 137.681 245.87 137.264C245.87 136.847 245.968 136.475 246.164 136.146C246.36 135.811 246.628 135.553 246.967 135.369C247.314 135.18 247.706 135.085 248.144 135.085ZM248.193 138.599C248.604 138.599 248.937 138.476 249.192 138.23C249.454 137.977 249.584 137.649 249.584 137.245C249.584 136.834 249.457 136.506 249.202 136.26C248.947 136.007 248.611 135.881 248.193 135.881C247.787 135.881 247.461 136.007 247.212 136.26C246.971 136.506 246.85 136.834 246.85 137.245C246.85 137.649 246.971 137.977 247.212 138.23C247.461 138.476 247.787 138.599 248.193 138.599Z" fill="#6FD48E"/>
<path d="M254.393 141.754C254.302 141.918 254.174 142 254.011 142C253.913 142 253.825 141.965 253.746 141.896C253.675 141.826 253.639 141.738 253.639 141.631C253.639 141.542 253.665 141.457 253.717 141.375L257.383 135.246C257.481 135.082 257.612 135 257.775 135C257.873 135 257.958 135.035 258.03 135.104C258.108 135.174 258.147 135.262 258.147 135.369C258.147 135.458 258.121 135.543 258.069 135.625L254.393 141.754ZM253.482 139.158C252.952 139.158 252.537 138.985 252.237 138.637C251.936 138.29 251.786 137.782 251.786 137.112C251.786 136.443 251.936 135.938 252.237 135.597C252.537 135.249 252.952 135.076 253.482 135.076C254.018 135.076 254.436 135.249 254.736 135.597C255.037 135.938 255.187 136.443 255.187 137.112C255.187 137.788 255.037 138.3 254.736 138.647C254.436 138.988 254.018 139.158 253.482 139.158ZM253.482 138.514C253.769 138.514 253.982 138.404 254.119 138.183C254.256 137.955 254.325 137.599 254.325 137.112C254.325 136.632 254.256 136.282 254.119 136.061C253.982 135.84 253.769 135.729 253.482 135.729C253.194 135.729 252.982 135.84 252.845 136.061C252.714 136.276 252.649 136.626 252.649 137.112C252.649 137.599 252.714 137.955 252.845 138.183C252.982 138.404 253.194 138.514 253.482 138.514ZM258.294 141.905C257.759 141.905 257.34 141.735 257.04 141.394C256.739 141.046 256.589 140.535 256.589 139.859C256.589 139.19 256.739 138.685 257.04 138.344C257.34 137.996 257.759 137.823 258.294 137.823C258.824 137.823 259.239 137.996 259.539 138.344C259.846 138.685 260 139.19 260 139.859C260 140.529 259.85 141.037 259.549 141.384C259.249 141.732 258.83 141.905 258.294 141.905ZM258.294 141.261C258.582 141.261 258.791 141.151 258.922 140.93C259.059 140.702 259.128 140.346 259.128 139.859C259.128 139.379 259.059 139.029 258.922 138.808C258.785 138.581 258.575 138.467 258.294 138.467C258.007 138.467 257.795 138.577 257.657 138.798C257.52 139.019 257.452 139.373 257.452 139.859C257.452 140.346 257.52 140.702 257.657 140.93C257.795 141.151 258.007 141.261 258.294 141.261Z" fill="#6FD48E"/>
<g filter="url(#filter4_d)">
<path d="M24 49C24 47.3431 25.3431 46 27 46H53C54.6569 46 56 47.3431 56 49C56 50.6569 54.6569 52 53 52H27C25.3431 52 24 50.6569 24 49Z" fill="#466392"/>
</g>
<g filter="url(#filter5_d)">
<path d="M77 49C77 47.3431 78.3431 46 80 46H106C107.657 46 109 47.3431 109 49C109 50.6569 107.657 52 106 52H80C78.3431 52 77 50.6569 77 49Z" fill="#466392"/>
</g>
<g filter="url(#filter6_d)">
<path d="M130 49C130 47.3431 131.343 46 133 46H159C160.657 46 162 47.3431 162 49C162 50.6569 160.657 52 159 52H133C131.343 52 130 50.6569 130 49Z" fill="#466392"/>
</g>
<g filter="url(#filter7_d)">
<path d="M183 49C183 47.3431 184.343 46 186 46H212C213.657 46 215 47.3431 215 49C215 50.6569 213.657 52 212 52H186C184.343 52 183 50.6569 183 49Z" fill="#466392"/>
</g>
<g filter="url(#filter8_d)">
<path d="M236 49C236 47.3431 237.343 46 239 46H265C266.657 46 268 47.3431 268 49C268 50.6569 266.657 52 265 52H239C237.343 52 236 50.6569 236 49Z" fill="#466392"/>
</g>
<path d="M25.1708 32.8225C24.8035 32.8225 24.5127 32.7263 24.2984 32.534C24.0995 32.3269 24 32.0532 24 31.7129V18.2871C24 17.9468 24.0995 17.6805 24.2984 17.4882C24.5127 17.2811 24.8035 17.1775 25.1708 17.1775H33.6192C33.9713 17.1775 34.2391 17.2589 34.4228 17.4216C34.6217 17.5844 34.7212 17.8137 34.7212 18.1096C34.7212 18.4055 34.6217 18.6348 34.4228 18.7975C34.2391 18.9454 33.9713 19.0194 33.6192 19.0194H26.3187V23.9459H33.1601C33.5121 23.9459 33.7799 24.0273 33.9636 24.19C34.1626 24.3528 34.262 24.5821 34.262 24.8779C34.262 25.1738 34.1626 25.4031 33.9636 25.5659C33.7799 25.7286 33.5121 25.81 33.1601 25.81H26.3187V30.9806H33.6192C34.3539 30.9806 34.7212 31.2839 34.7212 31.8904C34.7212 32.1863 34.6217 32.4156 34.4228 32.5784C34.2391 32.7411 33.9713 32.8225 33.6192 32.8225H25.1708Z" fill="#BDCDE8"/>
<path d="M49.5093 31.1803C49.7083 31.3874 49.8078 31.6167 49.8078 31.8682C49.8078 32.1493 49.693 32.4008 49.4634 32.6227C49.2338 32.8299 48.9736 32.9334 48.6828 32.9334C48.3614 32.9334 48.0859 32.8003 47.8564 32.534L42.8746 26.4757L37.8698 32.534C37.6402 32.8003 37.3724 32.9334 37.0663 32.9334C36.7755 32.9334 36.5153 32.8299 36.2857 32.6227C36.0561 32.4008 35.9414 32.1493 35.9414 31.8682C35.9414 31.6315 36.0332 31.4022 36.2169 31.1803L41.4971 24.8558L36.4694 18.8197C36.2857 18.6274 36.1939 18.3981 36.1939 18.1318C36.1939 17.8507 36.301 17.6066 36.5153 17.3994C36.7449 17.1775 37.0051 17.0666 37.2959 17.0666C37.6173 17.0666 37.8928 17.1997 38.1223 17.466L42.8746 23.258L47.6268 17.466C47.8411 17.1997 48.1165 17.0666 48.4533 17.0666C48.744 17.0666 49.0042 17.1775 49.2338 17.3994C49.4634 17.6066 49.5782 17.8507 49.5782 18.1318C49.5782 18.3833 49.4787 18.6126 49.2797 18.8197L44.252 24.8558L49.5093 31.1803Z" fill="#BDCDE8"/>
<path d="M53.4419 32.9334C53.0899 32.9334 52.8067 32.8299 52.5924 32.6227C52.3782 32.4156 52.271 32.1345 52.271 31.7795V18.2205C52.271 17.8803 52.3782 17.6066 52.5924 17.3994C52.8067 17.1775 53.0899 17.0666 53.4419 17.0666C53.8092 17.0666 54.1 17.1701 54.3143 17.3773C54.5285 17.5844 54.6357 17.8655 54.6357 18.2205V31.7795C54.6357 32.1345 54.5285 32.4156 54.3143 32.6227C54.1153 32.8299 53.8245 32.9334 53.4419 32.9334Z" fill="#BDCDE8"/>
<path d="M70.5591 17.0666C70.8958 17.0666 71.1636 17.1775 71.3626 17.3994C71.5769 17.6066 71.684 17.8803 71.684 18.2205V31.7795C71.684 32.1197 71.5769 32.4008 71.3626 32.6227C71.1483 32.8299 70.8728 32.9334 70.5361 32.9334C70.1382 32.9334 69.8321 32.7855 69.6178 32.4896L60.6185 21.0166V31.7795C60.6185 32.1197 60.5113 32.4008 60.297 32.6227C60.0981 32.8299 59.8302 32.9334 59.4935 32.9334C59.1568 32.9334 58.889 32.8299 58.69 32.6227C58.491 32.4156 58.3916 32.1345 58.3916 31.7795V18.2205C58.3916 17.8803 58.4987 17.6066 58.713 17.3994C58.9272 17.1775 59.2027 17.0666 59.5394 17.0666C59.9374 17.0666 60.2435 17.2145 60.4577 17.5104L69.4571 29.0055V18.2205C69.4571 17.8803 69.5566 17.6066 69.7556 17.3994C69.9545 17.1775 70.2224 17.0666 70.5591 17.0666Z" fill="#BDCDE8"/>
<path d="M88.4622 33C86.9317 33 85.6002 32.6745 84.4676 32.0236C83.3504 31.3726 82.4856 30.448 81.8734 29.2497C81.2612 28.0513 80.9551 26.6385 80.9551 25.0111C80.9551 23.3689 81.2536 21.9487 81.8505 20.7503C82.4627 19.5372 83.3351 18.6126 84.4676 17.9764C85.6002 17.3255 86.9317 17 88.4622 17C90.0081 17 91.3473 17.3255 92.4798 17.9764C93.6124 18.6126 94.4771 19.5372 95.074 20.7503C95.6862 21.9487 95.9923 23.3615 95.9923 24.9889C95.9923 26.6163 95.6862 28.0365 95.074 29.2497C94.4771 30.448 93.6124 31.3726 92.4798 32.0236C91.3473 32.6745 90.0081 33 88.4622 33ZM88.4622 31.1359C90.0846 31.1359 91.3473 30.6033 92.2503 29.5381C93.1533 28.473 93.6048 26.9565 93.6048 24.9889C93.6048 23.0213 93.1533 21.5123 92.2503 20.4619C91.3626 19.3967 90.0999 18.8641 88.4622 18.8641C86.8552 18.8641 85.6002 19.3967 84.6972 20.4619C83.8095 21.5123 83.3657 23.0213 83.3657 24.9889C83.3657 26.9565 83.8095 28.473 84.6972 29.5381C85.6002 30.6033 86.8552 31.1359 88.4622 31.1359Z" fill="#BDCDE8"/>
<path d="M111.385 17.0666C111.722 17.0666 111.99 17.1775 112.189 17.3994C112.403 17.6066 112.51 17.8803 112.51 18.2205V31.7795C112.51 32.1197 112.403 32.4008 112.189 32.6227C111.974 32.8299 111.699 32.9334 111.362 32.9334C110.964 32.9334 110.658 32.7855 110.444 32.4896L101.444 21.0166V31.7795C101.444 32.1197 101.337 32.4008 101.123 32.6227C100.924 32.8299 100.656 32.9334 100.319 32.9334C99.9828 32.9334 99.7149 32.8299 99.516 32.6227C99.317 32.4156 99.2175 32.1345 99.2175 31.7795V18.2205C99.2175 17.8803 99.3247 17.6066 99.5389 17.3994C99.7532 17.1775 100.029 17.0666 100.365 17.0666C100.763 17.0666 101.069 17.2145 101.284 17.5104L110.283 29.0055V18.2205C110.283 17.8803 110.383 17.6066 110.582 17.3994C110.781 17.1775 111.048 17.0666 111.385 17.0666Z" fill="#BDCDE8"/>
<path d="M117.45 32.8225C117.082 32.8225 116.792 32.7263 116.577 32.534C116.378 32.3269 116.279 32.0532 116.279 31.7129V18.2871C116.279 17.9468 116.378 17.6805 116.577 17.4882C116.792 17.2811 117.082 17.1775 117.45 17.1775H125.898C126.25 17.1775 126.518 17.2589 126.702 17.4216C126.901 17.5844 127 17.8137 127 18.1096C127 18.4055 126.901 18.6348 126.702 18.7975C126.518 18.9454 126.25 19.0194 125.898 19.0194H118.598V23.9459H125.439C125.791 23.9459 126.059 24.0273 126.242 24.19C126.441 24.3528 126.541 24.5821 126.541 24.8779C126.541 25.1738 126.441 25.4031 126.242 25.5659C126.059 25.7286 125.791 25.81 125.439 25.81H118.598V30.9806H125.898C126.633 30.9806 127 31.2839 127 31.8904C127 32.1863 126.901 32.4156 126.702 32.5784C126.518 32.7411 126.25 32.8225 125.898 32.8225H117.45Z" fill="#BDCDE8"/>
<path d="M57.8759 127.117C57.7772 127.005 57.643 126.95 57.4793 126.95C57.3153 126.95 57.1808 127.005 57.0821 127.118L57.0819 127.118C56.992 127.222 56.9499 127.361 56.9499 127.529V135.471C56.9499 135.639 56.9921 135.781 57.0806 135.893L57.0804 135.893L57.0835 135.896C57.1827 136 57.3167 136.05 57.4793 136.05C57.642 136.05 57.776 136 57.8751 135.896L57.8752 135.896L57.8766 135.894C57.9739 135.783 58.0208 135.64 58.0208 135.471V131.921H62.9791V135.471C62.9791 135.64 63.0259 135.783 63.1233 135.894L63.1232 135.894L63.1247 135.896C63.2239 136 63.3579 136.05 63.5205 136.05C63.683 136.05 63.8142 136 63.9058 135.894M57.8759 127.117C57.9742 127.221 58.0208 127.36 58.0208 127.529V130.94H62.9791V127.529C62.9791 127.36 63.0257 127.221 63.124 127.117C63.2227 127.005 63.3568 126.95 63.5205 126.95C63.6837 126.95 63.8148 127.005 63.9059 127.118C64.0037 127.222 64.05 127.361 64.05 127.529V135.471C64.05 135.64 64.0031 135.783 63.9058 135.894M57.8759 127.117C57.8756 127.117 57.8754 127.117 57.8751 127.117L57.8389 127.151L57.8766 127.118C57.8764 127.118 57.8761 127.118 57.8759 127.117ZM63.9058 135.894L63.8681 135.862M63.9058 135.894C63.9059 135.894 63.9059 135.894 63.906 135.894L63.8681 135.862M63.8681 135.862C63.7882 135.954 63.6724 136 63.5205 136C63.3687 136 63.2488 135.954 63.1609 135.862V127.151C63.2488 127.05 63.3687 127 63.5205 127C63.6724 127 63.7882 127.05 63.8681 127.151C63.956 127.243 64 127.369 64 127.529V135.471C64 135.631 63.956 135.761 63.8681 135.862ZM42.0956 135.833L42.0956 135.833L42.0972 135.835C42.2037 135.937 42.3406 135.987 42.5034 135.987H46.9864C47.1389 135.987 47.2646 135.947 47.3564 135.86C47.4484 135.773 47.4919 135.654 47.4919 135.509C47.4919 135.358 47.4495 135.237 47.3553 135.157C47.2636 135.071 47.1384 135.031 46.9864 135.031H43.0209V131.909H46.7467C46.8992 131.909 47.0249 131.869 47.1166 131.782C47.2087 131.695 47.2521 131.576 47.2521 131.431C47.2521 131.286 47.2087 131.167 47.1166 131.08C47.0249 130.993 46.8992 130.953 46.7467 130.953H43.0209V127.969H46.9864C47.1389 127.969 47.2646 127.929 47.3564 127.842C47.4484 127.755 47.4919 127.636 47.4919 127.491C47.4919 127.346 47.4484 127.227 47.3564 127.14C47.2646 127.053 47.1389 127.013 46.9864 127.013H42.5034C42.3406 127.013 42.2037 127.063 42.0972 127.165L42.0971 127.165L42.0956 127.167C41.9973 127.27 41.95 127.405 41.95 127.566V135.434C41.95 135.595 41.9973 135.73 42.0956 135.833ZM51.968 135.894L51.9678 135.895L51.9709 135.898C52.0775 136 52.2144 136.05 52.3772 136.05C52.5399 136.05 52.6739 136 52.773 135.896L52.773 135.896L52.7745 135.894C52.8718 135.783 52.9186 135.64 52.9186 135.471V127.994H55.4457C55.5983 127.994 55.7239 127.954 55.8157 127.867C55.9084 127.78 55.9512 127.656 55.9512 127.503C55.9512 127.351 55.9084 127.227 55.8157 127.14C55.7239 127.053 55.5983 127.013 55.4457 127.013H49.2967C49.1441 127.013 49.0185 127.053 48.9267 127.14C48.834 127.227 48.7912 127.351 48.7912 127.503C48.7912 127.656 48.834 127.78 48.9267 127.867C49.0185 127.954 49.1441 127.994 49.2967 127.994H51.8238V135.471C51.8238 135.64 51.8706 135.783 51.968 135.894Z" fill="white" stroke="white" stroke-width="0.1"/>
<defs>
<filter id="filter0_d" x="0" y="48" width="293" height="80" filterUnits="userSpaceOnUse" color-interpolation-filters="sRGB">
<feFlood flood-opacity="0" result="BackgroundImageFix"/>
<feColorMatrix in="SourceAlpha" type="matrix" values="0 0 0 0 0 0 0 0 0 0 0 0 0 0 0 0 0 0 127 0" result="hardAlpha"/>
<feOffset/>
<feGaussianBlur stdDeviation="10"/>
<feColorMatrix type="matrix" values="0 0 0 0 0 0 0 0 0 0 0 0 0 0 0 0 0 0 0.06 0"/>
<feBlend mode="normal" in2="BackgroundImageFix" result="effect1_dropShadow"/>
<feBlend mode="normal" in="SourceGraphic" in2="effect1_dropShadow" result="shape"/>
</filter>
<filter id="filter1_d" x="0" y="48" width="46" height="80" filterUnits="userSpaceOnUse" color-interpolation-filters="sRGB">
<feFlood flood-opacity="0" result="BackgroundImageFix"/>
<feColorMatrix in="SourceAlpha" type="matrix" values="0 0 0 0 0 0 0 0 0 0 0 0 0 0 0 0 0 0 127 0" result="hardAlpha"/>
<feOffset/>
<feGaussianBlur stdDeviation="10"/>
<feColorMatrix type="matrix" values="0 0 0 0 0 0 0 0 0 0 0 0 0 0 0 0 0 0 0.06 0"/>
<feBlend mode="normal" in2="BackgroundImageFix" result="effect1_dropShadow"/>
<feBlend mode="normal" in="SourceGraphic" in2="effect1_dropShadow" result="shape"/>
</filter>
<filter id="filter2_d" x="0" y="97" width="293" height="80" filterUnits="userSpaceOnUse" color-interpolation-filters="sRGB">
<feFlood flood-opacity="0" result="BackgroundImageFix"/>
<feColorMatrix in="SourceAlpha" type="matrix" values="0 0 0 0 0 0 0 0 0 0 0 0 0 0 0 0 0 0 127 0" result="hardAlpha"/>
<feOffset/>
<feGaussianBlur stdDeviation="10"/>
<feColorMatrix type="matrix" values="0 0 0 0 0 0 0 0 0 0 0 0 0 0 0 0 0 0 0.06 0"/>
<feBlend mode="normal" in2="BackgroundImageFix" result="effect1_dropShadow"/>
<feBlend mode="normal" in="SourceGraphic" in2="effect1_dropShadow" result="shape"/>
</filter>
<filter id="filter3_d" x="0" y="97" width="46" height="80" filterUnits="userSpaceOnUse" color-interpolation-filters="sRGB">
<feFlood flood-opacity="0" result="BackgroundImageFix"/>
<feColorMatrix in="SourceAlpha" type="matrix" values="0 0 0 0 0 0 0 0 0 0 0 0 0 0 0 0 0 0 127 0" result="hardAlpha"/>
<feOffset/>
<feGaussianBlur stdDeviation="10"/>
<feColorMatrix type="matrix" values="0 0 0 0 0 0 0 0 0 0 0 0 0 0 0 0 0 0 0.06 0"/>
<feBlend mode="normal" in2="BackgroundImageFix" result="effect1_dropShadow"/>
<feBlend mode="normal" in="SourceGraphic" in2="effect1_dropShadow" result="shape"/>
</filter>
<filter id="filter4_d" x="4" y="26" width="72" height="46" filterUnits="userSpaceOnUse" color-interpolation-filters="sRGB">
<feFlood flood-opacity="0" result="BackgroundImageFix"/>
<feColorMatrix in="SourceAlpha" type="matrix" values="0 0 0 0 0 0 0 0 0 0 0 0 0 0 0 0 0 0 127 0" result="hardAlpha"/>
<feOffset/>
<feGaussianBlur stdDeviation="10"/>
<feColorMatrix type="matrix" values="0 0 0 0 0 0 0 0 0 0 0 0 0 0 0 0 0 0 0.06 0"/>
<feBlend mode="normal" in2="BackgroundImageFix" result="effect1_dropShadow"/>
<feBlend mode="normal" in="SourceGraphic" in2="effect1_dropShadow" result="shape"/>
</filter>
<filter id="filter5_d" x="57" y="26" width="72" height="46" filterUnits="userSpaceOnUse" color-interpolation-filters="sRGB">
<feFlood flood-opacity="0" result="BackgroundImageFix"/>
<feColorMatrix in="SourceAlpha" type="matrix" values="0 0 0 0 0 0 0 0 0 0 0 0 0 0 0 0 0 0 127 0" result="hardAlpha"/>
<feOffset/>
<feGaussianBlur stdDeviation="10"/>
<feColorMatrix type="matrix" values="0 0 0 0 0 0 0 0 0 0 0 0 0 0 0 0 0 0 0.06 0"/>
<feBlend mode="normal" in2="BackgroundImageFix" result="effect1_dropShadow"/>
<feBlend mode="normal" in="SourceGraphic" in2="effect1_dropShadow" result="shape"/>
</filter>
<filter id="filter6_d" x="110" y="26" width="72" height="46" filterUnits="userSpaceOnUse" color-interpolation-filters="sRGB">
<feFlood flood-opacity="0" result="BackgroundImageFix"/>
<feColorMatrix in="SourceAlpha" type="matrix" values="0 0 0 0 0 0 0 0 0 0 0 0 0 0 0 0 0 0 127 0" result="hardAlpha"/>
<feOffset/>
<feGaussianBlur stdDeviation="10"/>
<feColorMatrix type="matrix" values="0 0 0 0 0 0 0 0 0 0 0 0 0 0 0 0 0 0 0.06 0"/>
<feBlend mode="normal" in2="BackgroundImageFix" result="effect1_dropShadow"/>
<feBlend mode="normal" in="SourceGraphic" in2="effect1_dropShadow" result="shape"/>
</filter>
<filter id="filter7_d" x="163" y="26" width="72" height="46" filterUnits="userSpaceOnUse" color-interpolation-filters="sRGB">
<feFlood flood-opacity="0" result="BackgroundImageFix"/>
<feColorMatrix in="SourceAlpha" type="matrix" values="0 0 0 0 0 0 0 0 0 0 0 0 0 0 0 0 0 0 127 0" result="hardAlpha"/>
<feOffset/>
<feGaussianBlur stdDeviation="10"/>
<feColorMatrix type="matrix" values="0 0 0 0 0 0 0 0 0 0 0 0 0 0 0 0 0 0 0.06 0"/>
<feBlend mode="normal" in2="BackgroundImageFix" result="effect1_dropShadow"/>
<feBlend mode="normal" in="SourceGraphic" in2="effect1_dropShadow" result="shape"/>
</filter>
<filter id="filter8_d" x="216" y="26" width="72" height="46" filterUnits="userSpaceOnUse" color-interpolation-filters="sRGB">
<feFlood flood-opacity="0" result="BackgroundImageFix"/>
<feColorMatrix in="SourceAlpha" type="matrix" values="0 0 0 0 0 0 0 0 0 0 0 0 0 0 0 0 0 0 127 0" result="hardAlpha"/>
<feOffset/>
<feGaussianBlur stdDeviation="10"/>
<feColorMatrix type="matrix" values="0 0 0 0 0 0 0 0 0 0 0 0 0 0 0 0 0 0 0.06 0"/>
<feBlend mode="normal" in2="BackgroundImageFix" result="effect1_dropShadow"/>
<feBlend mode="normal" in="SourceGraphic" in2="effect1_dropShadow" result="shape"/>
</filter>
<linearGradient id="paint0_linear" x1="60.5" y1="68" x2="273" y2="98.5" gradientUnits="userSpaceOnUse">
<stop stop-color="#466392" stop-opacity="0.78"/>
<stop offset="0.472063" stop-color="#466392"/>
<stop offset="1" stop-color="#466392" stop-opacity="0.78"/>
</linearGradient>
<linearGradient id="paint1_linear" x1="60.5" y1="117" x2="273" y2="147.5" gradientUnits="userSpaceOnUse">
<stop stop-color="#466392" stop-opacity="0.78"/>
<stop offset="0.472063" stop-color="#466392"/>
<stop offset="1" stop-color="#466392" stop-opacity="0.78"/>
</linearGradient>
</defs>
</svg>
