<svg width="285" height="175" viewBox="0 0 285 175" fill="none" xmlns="http://www.w3.org/2000/svg">
<path d="M0 12C0 5.37259 5.37258 0 12 0H273C279.627 0 285 5.37258 285 12V175H0V12Z" fill="#0A244E"/>
<path d="M239 19.5739V18.6149L240.178 18H241.166V23H240.081V19.0286L239 19.5739Z" fill="#64C874"/>
<path d="M243.256 23V18H244.346V20.0754H246.915V18H248V23H246.915V20.9246H244.346V23H243.256Z" fill="#64C874"/>
<path d="M239 31.8887V30.7379L240.153 30H241.119V36H240.057V31.2343L239 31.8887Z" fill="#FA1777"/>
<path d="M243.164 36V30H245.205C246.121 30 246.816 30.2548 247.289 30.7643C247.763 31.2738 248 32.0205 248 33.0044C248 33.9824 247.763 34.7262 247.289 35.2357C246.818 35.7452 246.124 36 245.205 36H243.164ZM244.23 35.0205H245.205C245.82 35.0205 246.262 34.8638 246.531 34.5505C246.803 34.2343 246.938 33.7189 246.938 33.0044C246.938 32.284 246.803 31.7672 246.531 31.4539C246.262 31.1376 245.82 30.9795 245.205 30.9795H244.23V35.0205Z" fill="#FA1777"/>
<path d="M239 44.8887V43.7379L240.153 43H241.119V49H240.057V44.2343L239 44.8887Z" fill="#FA1777"/>
<path d="M243.164 49V43H245.205C246.121 43 246.816 43.2548 247.289 43.7643C247.763 44.2738 248 45.0205 248 46.0044C248 46.9824 247.763 47.7262 247.289 48.2357C246.818 48.7452 246.124 49 245.205 49H243.164ZM244.23 48.0205H245.205C245.82 48.0205 246.262 47.8638 246.531 47.5505C246.803 47.2343 246.938 46.7189 246.938 46.0044C246.938 45.284 246.803 44.7672 246.531 44.4539C246.262 44.1376 245.82 43.9795 245.205 43.9795H244.23V48.0205Z" fill="#FA1777"/>
<rect x="253" y="17" width="14" height="7" rx="2" fill="#64C874"/>
<rect x="253" y="29" width="14" height="7" rx="2" fill="#FA1777"/>
<rect x="253" y="43" width="14" height="7" rx="2" fill="#FA1777"/>
<path d="M63.3515 143C53.7976 144.312 54.3005 134 18.5991 136.5V159C18.5991 161.209 20.39 163 22.5991 163H263C265.209 163 267 161.209 267 159V70.4185C244.372 67 226.414 86 218.728 85.9998C194.675 88.3053 198.264 71.6654 181.015 72.5002C150.139 73.9946 152.531 97.5419 140.285 101C128.04 104.458 131.275 103.81 127.212 105C118.028 107.69 115.599 126.5 105.087 126.5C92.4044 126.5 91.3368 125.408 84.6353 129.954C77.9338 134.5 72.9054 141.689 63.3515 143Z" fill="url(#paint0_linear)"/>
<rect x="117.946" y="83.5791" width="6.13733" height="40.9253" fill="#64C874"/>
<rect x="120.578" y="75.3936" width="0.876762" height="55.0631" fill="#64C874"/>
<rect x="126.714" y="96.9727" width="6.13733" height="7.44096" fill="#64C874"/>
<rect x="129.344" y="72.417" width="0.876762" height="33.4843" fill="#64C874"/>
<rect x="110.054" y="123.016" width="6.13733" height="2.97639" fill="#64C874"/>
<rect x="112.686" y="122.272" width="0.876762" height="8.18506" fill="#64C874"/>
<rect x="101.29" y="125.993" width="6.13733" height="0.744096" fill="#64C874"/>
<rect x="103.917" y="123.76" width="0.876762" height="3.72048" fill="#64C874"/>
<rect x="84.6313" y="125.248" width="6.13733" height="7.44096" fill="#64C874"/>
<rect x="87.2612" y="123.016" width="0.876762" height="11.1614" fill="#64C874"/>
<rect x="67.9707" y="134.178" width="6.13733" height="7.44096" fill="#64C874"/>
<rect x="70.603" y="132.689" width="0.876762" height="10.4173" fill="#64C874"/>
<rect x="25.8882" y="134.921" width="6.13733" height="2.97639" fill="#64C874"/>
<rect x="34.6519" y="136.41" width="6.13733" height="0.744096" fill="#64C874"/>
<rect width="0.876762" height="4.46458" transform="matrix(-1 0 0 1 38.1602 134.178)" fill="#64C874"/>
<rect x="60.0786" y="143.106" width="6.13733" height="1.48819" fill="#64C874"/>
<rect x="62.7104" y="142.362" width="0.876762" height="2.23229" fill="#64C874"/>
<rect x="143.373" y="89.5322" width="6.13733" height="12.6496" fill="#64C874"/>
<rect x="146.004" y="88.0439" width="0.876762" height="16.3701" fill="#64C874"/>
<rect x="151.263" y="78.3691" width="6.13733" height="12.6496" fill="#64C874"/>
<rect width="0.876762" height="15.626" transform="matrix(-1 0 0 1 154.769 76.8809)" fill="#64C874"/>
<rect x="160.033" y="79.8594" width="6.13733" height="8.18506" fill="#64C874"/>
<rect x="162.661" y="78.3691" width="0.876762" height="11.1614" fill="#64C874"/>
<rect x="168.797" y="67.9531" width="6.13733" height="6.69687" fill="#64C874"/>
<rect x="171.429" y="62.7441" width="0.876762" height="19.3465" fill="#64C874"/>
<rect x="185.456" y="69.4414" width="6.13733" height="6.69687" fill="#64C874"/>
<rect x="188.088" y="64.2324" width="0.876762" height="13.3937" fill="#64C874"/>
<rect x="202.116" y="84.3232" width="6.13733" height="6.69687" fill="#64C874"/>
<rect x="204.746" y="91.0195" width="0.876762" height="11.9055" fill="#64C874"/>
<rect x="235.433" y="73.9053" width="6.13733" height="17.8583" fill="#64C874"/>
<rect x="238.061" y="89.5322" width="0.876762" height="4.46458" fill="#64C874"/>
<rect x="210.882" y="84.3232" width="6.13733" height="2.23229" fill="#64C874"/>
<rect x="213.512" y="82.0908" width="0.876762" height="5.95277" fill="#64C874"/>
<rect x="218.774" y="84.3232" width="6.13733" height="2.23229" fill="#64C874"/>
<rect x="221.404" y="85.8115" width="0.876762" height="5.95277" fill="#64C874"/>
<rect x="244.201" y="73.1611" width="6.13733" height="6.69687" fill="#64C874"/>
<rect x="246.829" y="62" width="0.876762" height="11.9055" fill="#64C874"/>
<rect x="252.965" y="67.209" width="6.13733" height="6.69687" fill="#64C874"/>
<rect x="42.5508" y="134.922" width="6.13733" height="2.23229" fill="url(#paint1_linear)"/>
<rect x="76.7422" y="131.201" width="6.13733" height="2.97639" fill="url(#paint2_linear)"/>
<rect x="93.4004" y="125.249" width="6.13733" height="2.97639" fill="url(#paint3_linear)"/>
<rect x="135.482" y="99.9484" width="6.13733" height="5.95277" fill="url(#paint4_linear)"/>
<rect x="138.117" y="89.5314" width="0.876762" height="17.8583" fill="url(#paint5_linear)"/>
<rect x="177.57" y="67.2082" width="6.13733" height="5.95277" fill="url(#paint6_linear)"/>
<rect x="180.199" y="65.7199" width="0.876762" height="17.8583" fill="url(#paint7_linear)"/>
<rect x="193.35" y="67.9533" width="6.13733" height="20.8347" fill="url(#paint8_linear)"/>
<rect x="195.982" y="62.7443" width="0.876762" height="37.2048" fill="url(#paint9_linear)"/>
<rect x="227.545" y="79.1144" width="6.13733" height="12.6496" fill="url(#paint10_linear)"/>
<rect x="230.176" y="76.1378" width="0.876762" height="18.6024" fill="url(#paint11_linear)"/>
<rect x="260.863" y="67.9533" width="6.13733" height="2.23229" fill="url(#paint12_linear)"/>
<rect x="263.492" y="64.9767" width="0.876762" height="7.44096" fill="url(#paint13_linear)"/>
<rect x="18" y="131.201" width="6.13733" height="6.69687" fill="url(#paint14_linear)"/>
<rect x="20.6289" y="128.969" width="0.876762" height="10.4173" fill="url(#paint15_linear)"/>
<rect x="45.1777" y="134.922" width="0.876762" height="4.46458" fill="url(#paint16_linear)"/>
<rect x="53.9453" y="137.154" width="0.876762" height="4.46458" fill="url(#paint17_linear)"/>
<rect x="79.373" y="130.456" width="0.876762" height="4.46458" fill="url(#paint18_linear)"/>
<rect x="96.0273" y="122.272" width="0.876762" height="10.4173" fill="url(#paint19_linear)"/>
<rect x="51.3145" y="138.643" width="6.13733" height="2.23229" fill="url(#paint20_linear)"/>
<path d="M26.3492 23.1524C27.0693 23.3598 27.6242 23.7317 28.0138 24.2683C28.4152 24.8049 28.6159 25.4756 28.6159 26.2805C28.6159 27.3902 28.244 28.2561 27.5002 28.878C26.7683 29.4878 25.7412 29.7927 24.4189 29.7927H19.9032C19.6198 29.7927 19.3955 29.7134 19.2302 29.5549C19.0767 29.3841 19 29.1585 19 28.878V17.811C19 17.5305 19.0767 17.311 19.2302 17.1524C19.3955 16.9817 19.6198 16.8963 19.9032 16.8963H24.2241C25.5109 16.8963 26.5144 17.1951 27.2346 17.7927C27.9666 18.378 28.3326 19.2012 28.3326 20.2622C28.3326 20.9451 28.1555 21.5366 27.8013 22.0366C27.4589 22.5366 26.9749 22.9085 26.3492 23.1524ZM20.7886 22.4756H23.9408C25.688 22.4756 26.5617 21.7927 26.5617 20.4268C26.5617 19.7439 26.3433 19.2378 25.9064 18.9085C25.4814 18.5793 24.8262 18.4146 23.9408 18.4146H20.7886V22.4756ZM24.2241 28.2744C25.1332 28.2744 25.8002 28.1037 26.2252 27.7622C26.6502 27.4207 26.8627 26.8902 26.8627 26.1707C26.8627 25.439 26.6443 24.8963 26.2075 24.5427C25.7825 24.1768 25.1214 23.9939 24.2241 23.9939H20.7886V28.2744H24.2241Z" fill="white"/>
<path d="M34.7249 29.8841C34.4534 29.8841 34.229 29.7988 34.052 29.628C33.8867 29.4451 33.804 29.2134 33.804 28.9329V18.4695H30.2623C29.6956 18.4695 29.4122 18.2073 29.4122 17.6829C29.4122 17.4268 29.4831 17.2317 29.6247 17.0976C29.7782 16.9634 29.9907 16.8963 30.2623 16.8963H39.1875C39.459 16.8963 39.6657 16.9634 39.8073 17.0976C39.9608 17.2317 40.0375 17.4268 40.0375 17.6829C40.0375 18.2073 39.7542 18.4695 39.1875 18.4695H35.6457V28.9329C35.6457 29.2134 35.5631 29.4451 35.3978 29.628C35.2325 29.7988 35.0082 29.8841 34.7249 29.8841Z" fill="white"/>
<path d="M46.2268 29.939C45.0344 29.939 43.9955 29.6768 43.11 29.1524C42.2246 28.6159 41.5457 27.8537 41.0735 26.8659C40.6013 25.8659 40.3652 24.689 40.3652 23.3354C40.3652 21.9939 40.6013 20.8293 41.0735 19.8415C41.5457 18.8415 42.2246 18.0793 43.11 17.5549C43.9955 17.0183 45.0344 16.75 46.2268 16.75C47.006 16.75 47.7438 16.878 48.4404 17.1341C49.1369 17.378 49.7449 17.7378 50.2644 18.2134C50.4887 18.3963 50.6009 18.6402 50.6009 18.9451C50.6009 19.1646 50.5418 19.3537 50.4238 19.5122C50.3057 19.6585 50.164 19.7317 49.9988 19.7317C49.7981 19.7317 49.6033 19.6524 49.4144 19.4939C48.8477 19.0549 48.3282 18.75 47.856 18.5793C47.3956 18.3963 46.8702 18.3049 46.2799 18.3049C44.9813 18.3049 43.9837 18.7378 43.2871 19.6037C42.5906 20.4695 42.2423 21.7134 42.2423 23.3354C42.2423 24.9695 42.5906 26.2195 43.2871 27.0854C43.9837 27.9512 44.9813 28.3841 46.2799 28.3841C46.8466 28.3841 47.3601 28.2927 47.8206 28.1098C48.2928 27.9268 48.8241 27.622 49.4144 27.1951C49.6505 27.0366 49.8453 26.9573 49.9988 26.9573C50.164 26.9573 50.3057 27.0366 50.4238 27.1951C50.5418 27.3415 50.6009 27.5244 50.6009 27.7439C50.6009 28.0488 50.4887 28.2927 50.2644 28.4756C49.7449 28.9512 49.1369 29.3171 48.4404 29.5732C47.7438 29.8171 47.006 29.939 46.2268 29.939Z" fill="white"/>
<path d="M57.2491 30.4329C57.1901 30.628 57.0957 30.7683 56.9658 30.8537C56.8359 30.9512 56.6943 31 56.5408 31C56.3401 31 56.163 30.9329 56.0095 30.7988C55.856 30.6646 55.7793 30.4878 55.7793 30.2683C55.7793 30.1829 55.797 30.0854 55.8324 29.9756L59.9763 16.5671C60.0353 16.372 60.1298 16.2317 60.2596 16.1463C60.3895 16.0488 60.5312 16 60.6846 16C60.8853 16 61.0624 16.0671 61.2159 16.2012C61.3694 16.3354 61.4461 16.5122 61.4461 16.7317C61.4461 16.8171 61.4284 16.9146 61.393 17.0244L57.2491 30.4329Z" fill="#677A99"/>
<path d="M72.3472 29.939C70.6825 29.939 69.4193 29.4939 68.5575 28.6037C67.6956 27.7134 67.2647 26.4024 67.2647 24.6707V17.7561C67.2647 17.4634 67.3474 17.2317 67.5126 17.061C67.6779 16.8902 67.8963 16.8049 68.1679 16.8049C68.4394 16.8049 68.6578 16.8902 68.8231 17.061C68.9884 17.2317 69.071 17.4634 69.071 17.7561V24.7988C69.071 25.9817 69.3426 26.878 69.8856 27.4878C70.4405 28.0976 71.261 28.4024 72.3472 28.4024C73.4215 28.4024 74.2361 28.0976 74.791 27.4878C75.3458 26.878 75.6233 25.9817 75.6233 24.7988V17.7561C75.6233 17.4756 75.7059 17.25 75.8712 17.0793C76.0365 16.8963 76.2549 16.8049 76.5264 16.8049C76.798 16.8049 77.0164 16.8902 77.1817 17.061C77.3469 17.2317 77.4296 17.4634 77.4296 17.7561V24.6707C77.4296 26.3902 76.9928 27.7012 76.1191 28.6037C75.2573 29.4939 74 29.939 72.3472 29.939Z" fill="#677A99"/>
<path d="M84.3633 29.939C83.466 29.939 82.6101 29.811 81.7955 29.5549C80.9927 29.2988 80.3493 28.9451 79.8652 28.4939C79.6409 28.2988 79.5288 28.0488 79.5288 27.7439C79.5288 27.5244 79.5878 27.3415 79.7059 27.1951C79.8239 27.0366 79.9656 26.9573 80.1309 26.9573C80.2962 26.9573 80.4969 27.0366 80.733 27.1951C81.7837 28 82.982 28.4024 84.3279 28.4024C85.2723 28.4024 85.9984 28.2195 86.5061 27.8537C87.0137 27.4878 87.2675 26.9634 87.2675 26.2805C87.2675 25.7439 87.0314 25.3415 86.5592 25.0732C86.0869 24.8049 85.3314 24.5488 84.2925 24.3049C83.3008 24.0854 82.4862 23.8354 81.8486 23.5549C81.2111 23.2744 80.7094 22.8963 80.3434 22.4207C79.9892 21.9329 79.8121 21.3171 79.8121 20.5732C79.8121 19.8293 80.0069 19.1707 80.3965 18.5976C80.7979 18.0122 81.3528 17.561 82.0611 17.2439C82.7695 16.9146 83.5782 16.75 84.4873 16.75C85.3255 16.75 86.0988 16.872 86.8071 17.1159C87.5155 17.3598 88.1176 17.7195 88.6134 18.1951C88.8495 18.4024 88.9676 18.6524 88.9676 18.9451C88.9676 19.1524 88.9027 19.3354 88.7728 19.4939C88.6547 19.6524 88.5131 19.7317 88.3478 19.7317C88.1943 19.7317 87.9995 19.6524 87.7634 19.4939C87.2203 19.0671 86.7068 18.7622 86.2227 18.5793C85.7505 18.3841 85.1779 18.2866 84.505 18.2866C83.5959 18.2866 82.8876 18.4817 82.3799 18.872C81.8722 19.25 81.6184 19.7805 81.6184 20.4634C81.6184 21.0488 81.8427 21.4939 82.2914 21.7988C82.74 22.0915 83.4601 22.3598 84.4518 22.6037C85.4908 22.8476 86.329 23.1037 86.9665 23.372C87.6158 23.628 88.1294 23.9878 88.5072 24.4512C88.8968 24.9024 89.0915 25.4878 89.0915 26.2073C89.0915 26.939 88.8909 27.5915 88.4894 28.1646C88.0999 28.7256 87.545 29.1646 86.8248 29.4817C86.1165 29.7866 85.296 29.939 84.3633 29.939Z" fill="#677A99"/>
<path d="M92.2429 29.7927C91.9595 29.7927 91.7352 29.7134 91.57 29.5549C91.4165 29.3841 91.3397 29.1585 91.3397 28.878V17.811C91.3397 17.5305 91.4165 17.311 91.57 17.1524C91.7352 16.9817 91.9595 16.8963 92.2429 16.8963H95.7138C97.7326 16.8963 99.2969 17.4573 100.407 18.5793C101.516 19.7012 102.071 21.2866 102.071 23.3354C102.071 25.3841 101.516 26.9756 100.407 28.1098C99.2969 29.2317 97.7326 29.7927 95.7138 29.7927H92.2429ZM95.6076 28.2195C98.6771 28.2195 100.212 26.5915 100.212 23.3354C100.212 20.0915 98.6771 18.4695 95.6076 18.4695H93.1637V28.2195H95.6076Z" fill="#677A99"/>
<path d="M107.687 29.8841C107.416 29.8841 107.191 29.7988 107.014 29.628C106.849 29.4451 106.766 29.2134 106.766 28.9329V18.4695H103.225C102.658 18.4695 102.375 18.2073 102.375 17.6829C102.375 17.4268 102.445 17.2317 102.587 17.0976C102.741 16.9634 102.953 16.8963 103.225 16.8963H112.15C112.421 16.8963 112.628 16.9634 112.77 17.0976C112.923 17.2317 113 17.4268 113 17.6829C113 18.2073 112.717 18.4695 112.15 18.4695H108.608V28.9329C108.608 29.2134 108.525 29.4451 108.36 29.628C108.195 29.7988 107.971 29.8841 107.687 29.8841Z" fill="#677A99"/>
<path d="M57.2491 30.4329C57.1901 30.628 57.0957 30.7683 56.9658 30.8537C56.8359 30.9512 56.6943 31 56.5408 31C56.3401 31 56.163 30.9329 56.0095 30.7988C55.856 30.6646 55.7793 30.4878 55.7793 30.2683C55.7793 30.1829 55.797 30.0854 55.8324 29.9756L59.9763 16.5671C60.0353 16.372 60.1298 16.2317 60.2596 16.1463C60.3895 16.0488 60.5312 16 60.6846 16C60.8853 16 61.0624 16.0671 61.2159 16.2012C61.3694 16.3354 61.4461 16.5122 61.4461 16.7317C61.4461 16.8171 61.4284 16.9146 61.393 17.0244L57.2491 30.4329Z" fill="#677A99"/>
<path d="M72.3472 29.939C70.6825 29.939 69.4193 29.4939 68.5575 28.6037C67.6956 27.7134 67.2647 26.4024 67.2647 24.6707V17.7561C67.2647 17.4634 67.3474 17.2317 67.5126 17.061C67.6779 16.8902 67.8963 16.8049 68.1679 16.8049C68.4394 16.8049 68.6578 16.8902 68.8231 17.061C68.9884 17.2317 69.071 17.4634 69.071 17.7561V24.7988C69.071 25.9817 69.3426 26.878 69.8856 27.4878C70.4405 28.0976 71.261 28.4024 72.3472 28.4024C73.4215 28.4024 74.2361 28.0976 74.791 27.4878C75.3458 26.878 75.6233 25.9817 75.6233 24.7988V17.7561C75.6233 17.4756 75.7059 17.25 75.8712 17.0793C76.0365 16.8963 76.2549 16.8049 76.5264 16.8049C76.798 16.8049 77.0164 16.8902 77.1817 17.061C77.3469 17.2317 77.4296 17.4634 77.4296 17.7561V24.6707C77.4296 26.3902 76.9928 27.7012 76.1191 28.6037C75.2573 29.4939 74 29.939 72.3472 29.939Z" fill="#677A99"/>
<path d="M84.3633 29.939C83.466 29.939 82.6101 29.811 81.7955 29.5549C80.9927 29.2988 80.3493 28.9451 79.8652 28.4939C79.6409 28.2988 79.5288 28.0488 79.5288 27.7439C79.5288 27.5244 79.5878 27.3415 79.7059 27.1951C79.8239 27.0366 79.9656 26.9573 80.1309 26.9573C80.2962 26.9573 80.4969 27.0366 80.733 27.1951C81.7837 28 82.982 28.4024 84.3279 28.4024C85.2723 28.4024 85.9984 28.2195 86.5061 27.8537C87.0137 27.4878 87.2675 26.9634 87.2675 26.2805C87.2675 25.7439 87.0314 25.3415 86.5592 25.0732C86.0869 24.8049 85.3314 24.5488 84.2925 24.3049C83.3008 24.0854 82.4862 23.8354 81.8486 23.5549C81.2111 23.2744 80.7094 22.8963 80.3434 22.4207C79.9892 21.9329 79.8121 21.3171 79.8121 20.5732C79.8121 19.8293 80.0069 19.1707 80.3965 18.5976C80.7979 18.0122 81.3528 17.561 82.0611 17.2439C82.7695 16.9146 83.5782 16.75 84.4873 16.75C85.3255 16.75 86.0988 16.872 86.8071 17.1159C87.5155 17.3598 88.1176 17.7195 88.6134 18.1951C88.8495 18.4024 88.9676 18.6524 88.9676 18.9451C88.9676 19.1524 88.9027 19.3354 88.7728 19.4939C88.6547 19.6524 88.5131 19.7317 88.3478 19.7317C88.1943 19.7317 87.9995 19.6524 87.7634 19.4939C87.2203 19.0671 86.7068 18.7622 86.2227 18.5793C85.7505 18.3841 85.1779 18.2866 84.505 18.2866C83.5959 18.2866 82.8876 18.4817 82.3799 18.872C81.8722 19.25 81.6184 19.7805 81.6184 20.4634C81.6184 21.0488 81.8427 21.4939 82.2914 21.7988C82.74 22.0915 83.4601 22.3598 84.4518 22.6037C85.4908 22.8476 86.329 23.1037 86.9665 23.372C87.6158 23.628 88.1294 23.9878 88.5072 24.4512C88.8968 24.9024 89.0915 25.4878 89.0915 26.2073C89.0915 26.939 88.8909 27.5915 88.4894 28.1646C88.0999 28.7256 87.545 29.1646 86.8248 29.4817C86.1165 29.7866 85.296 29.939 84.3633 29.939Z" fill="#677A99"/>
<path d="M92.2429 29.7927C91.9595 29.7927 91.7352 29.7134 91.57 29.5549C91.4165 29.3841 91.3397 29.1585 91.3397 28.878V17.811C91.3397 17.5305 91.4165 17.311 91.57 17.1524C91.7352 16.9817 91.9595 16.8963 92.2429 16.8963H95.7138C97.7326 16.8963 99.2969 17.4573 100.407 18.5793C101.516 19.7012 102.071 21.2866 102.071 23.3354C102.071 25.3841 101.516 26.9756 100.407 28.1098C99.2969 29.2317 97.7326 29.7927 95.7138 29.7927H92.2429ZM95.6076 28.2195C98.6771 28.2195 100.212 26.5915 100.212 23.3354C100.212 20.0915 98.6771 18.4695 95.6076 18.4695H93.1637V28.2195H95.6076Z" fill="#677A99"/>
<path d="M107.687 29.8841C107.416 29.8841 107.191 29.7988 107.014 29.628C106.849 29.4451 106.766 29.2134 106.766 28.9329V18.4695H103.225C102.658 18.4695 102.375 18.2073 102.375 17.6829C102.375 17.4268 102.445 17.2317 102.587 17.0976C102.741 16.9634 102.953 16.8963 103.225 16.8963H112.15C112.421 16.8963 112.628 16.9634 112.77 17.0976C112.923 17.2317 113 17.4268 113 17.6829C113 18.2073 112.717 18.4695 112.15 18.4695H108.608V28.9329C108.608 29.2134 108.525 29.4451 108.36 29.628C108.195 29.7988 107.971 29.8841 107.687 29.8841Z" fill="#677A99"/>
<path d="M22.2393 47.0735C22.9485 47.0735 23.5718 47.2159 24.1091 47.5007C24.6571 47.7855 25.0816 48.1872 25.3825 48.706C25.6834 49.2247 25.8338 49.8197 25.8338 50.491C25.8338 51.1724 25.6672 51.7776 25.3341 52.3065C25.001 52.8354 24.5335 53.2473 23.9318 53.5423C23.3407 53.8373 22.6584 53.9847 21.8847 53.9847C21.2184 53.9847 20.5629 53.8779 19.9182 53.6644C19.2841 53.4508 18.7522 53.1558 18.3224 52.7795C18.1075 52.6066 18 52.4031 18 52.1692C18 51.9861 18.0537 51.8336 18.1612 51.7115C18.2686 51.5793 18.3976 51.5132 18.548 51.5132C18.6448 51.5132 18.7307 51.5284 18.8059 51.5589C18.8919 51.5895 18.9886 51.6403 19.0961 51.7115C19.5367 52.037 19.9773 52.2862 20.4178 52.4591C20.8692 52.6218 21.342 52.7032 21.8363 52.7032C22.5885 52.7032 23.1742 52.515 23.5933 52.1387C24.0124 51.7522 24.2219 51.2131 24.2219 50.5215C24.2219 49.8604 24.007 49.3315 23.5772 48.9348C23.1581 48.5381 22.5939 48.3398 21.8847 48.3398C21.4226 48.3398 21.0089 48.4161 20.6435 48.5687C20.2781 48.7111 19.9343 48.9399 19.6119 49.2552C19.4507 49.3976 19.2573 49.4688 19.0316 49.4688C18.8489 49.4688 18.6931 49.4179 18.5642 49.3162C18.446 49.2043 18.3869 49.062 18.3869 48.889V43.8696C18.3869 43.6357 18.4513 43.4526 18.5803 43.3204C18.72 43.1882 18.9188 43.1221 19.1767 43.1221H24.7216C24.9688 43.1221 25.1622 43.178 25.3019 43.2899C25.4416 43.4018 25.5114 43.5543 25.5114 43.7476C25.5114 43.951 25.4416 44.1086 25.3019 44.2205C25.1622 44.3324 24.9688 44.3883 24.7216 44.3883H20.031V47.7753C20.622 47.3074 21.3581 47.0735 22.2393 47.0735Z" fill="#7ED76B"/>
<path d="M34.5479 52.5811C34.8058 52.5811 34.9992 52.6371 35.1281 52.749C35.2571 52.8608 35.3216 53.0185 35.3216 53.2219C35.3216 53.6593 35.0637 53.8779 34.5479 53.8779H29.1641C28.6376 53.8779 28.3743 53.6593 28.3743 53.2219C28.3743 53.0185 28.4388 52.8608 28.5677 52.749C28.7074 52.6371 28.9062 52.5811 29.1641 52.5811H31.0178V44.9681L29.3576 45.9598C29.2501 46.0208 29.1426 46.0513 29.0352 46.0513C28.8525 46.0513 28.6913 45.975 28.5516 45.8225C28.4227 45.6699 28.3582 45.497 28.3582 45.3037C28.3582 45.0698 28.4656 44.8867 28.6806 44.7545L31.1629 43.2594C31.41 43.117 31.6464 43.0458 31.8721 43.0458C32.1085 43.0458 32.302 43.117 32.4524 43.2594C32.6028 43.4018 32.6781 43.595 32.6781 43.8391V52.5811H34.5479Z" fill="#7ED76B"/>
<path d="M44.7449 50.3994C45.2714 50.3994 45.5347 50.608 45.5347 51.025C45.5347 51.442 45.2714 51.6505 44.7449 51.6505H43.7132V53.1609C43.7132 53.4152 43.638 53.6135 43.4876 53.7559C43.3371 53.8881 43.1383 53.9542 42.8912 53.9542C42.6548 53.9542 42.4613 53.8881 42.3109 53.7559C42.1604 53.6135 42.0852 53.4152 42.0852 53.1609V51.6505H37.5558C37.3194 51.6505 37.1367 51.5895 37.0078 51.4674C36.8788 51.3454 36.8143 51.1877 36.8143 50.9945C36.8143 50.791 36.8842 50.5927 37.0239 50.3994L42.1658 43.3967C42.3378 43.1627 42.5795 43.0458 42.8912 43.0458C43.1168 43.0458 43.3103 43.117 43.4715 43.2594C43.6326 43.3916 43.7132 43.5848 43.7132 43.8391V50.3994H44.7449ZM38.6035 50.3994H42.0852V45.6394L38.6035 50.3994Z" fill="#7ED76B"/>
<path d="M53.9908 43.1221C54.2272 43.1221 54.4045 43.1831 54.5228 43.3051C54.6517 43.4272 54.7162 43.5848 54.7162 43.7781C54.7162 43.9612 54.6571 44.1544 54.5389 44.3578L49.268 53.5728C49.096 53.8576 48.8596 54 48.5587 54C48.3546 54 48.1665 53.9339 47.9946 53.8017C47.8334 53.6593 47.7528 53.4864 47.7528 53.2829C47.7528 53.1609 47.7958 53.0185 47.8818 52.8558L52.7336 44.4189H47.4949C47.237 44.4189 47.0436 44.3629 46.9146 44.251C46.7857 44.1392 46.7212 43.9815 46.7212 43.7781C46.7212 43.3407 46.9791 43.1221 47.4949 43.1221H53.9908Z" fill="#7ED76B"/>
<path d="M57.4662 53.9542C57.1761 53.9542 56.9289 53.8627 56.7248 53.6796C56.5313 53.4965 56.4346 53.2626 56.4346 52.9778C56.4346 52.693 56.5313 52.4591 56.7248 52.276C56.9289 52.0828 57.1761 51.9861 57.4662 51.9861C57.7564 51.9861 57.9982 52.0828 58.1916 52.276C58.385 52.4591 58.4817 52.693 58.4817 52.9778C58.4817 53.2626 58.385 53.4965 58.1916 53.6796C57.9982 53.8627 57.7564 53.9542 57.4662 53.9542Z" fill="#7ED76B"/>
<path d="M66.2878 48.3551C66.9541 48.5381 67.4699 48.8636 67.8352 49.3315C68.2006 49.7994 68.3833 50.3588 68.3833 51.0097C68.3833 51.9454 68.0179 52.6778 67.2872 53.2067C66.5672 53.7254 65.5464 53.9847 64.2246 53.9847C62.9028 53.9847 61.8766 53.7254 61.1459 53.2067C60.4259 52.6778 60.0659 51.9454 60.0659 51.0097C60.0659 50.3486 60.2486 49.7841 60.614 49.3162C60.9901 48.8484 61.5112 48.528 62.1775 48.3551C61.608 48.1516 61.1566 47.8313 60.8235 47.3939C60.5011 46.9565 60.3399 46.448 60.3399 45.8682C60.3399 44.9834 60.6838 44.2866 61.3715 43.7781C62.0593 43.2594 63.0103 43 64.2246 43C65.4389 43 66.3899 43.2594 67.0777 43.7781C67.7654 44.2866 68.1093 44.9834 68.1093 45.8682C68.1093 46.448 67.9427 46.9616 67.6096 47.4092C67.2872 47.8465 66.8466 48.1618 66.2878 48.3551ZM64.2246 44.2663C63.4724 44.2663 62.9028 44.4189 62.516 44.724C62.1291 45.019 61.9357 45.4461 61.9357 46.0055C61.9357 46.5853 62.1291 47.0277 62.516 47.3329C62.9028 47.638 63.4724 47.7906 64.2246 47.7906C64.9768 47.7906 65.5463 47.638 65.9332 47.3329C66.3201 47.0277 66.5135 46.5853 66.5135 46.0055C66.5135 45.4461 66.3201 45.019 65.9332 44.724C65.5463 44.4189 64.9768 44.2663 64.2246 44.2663ZM64.2246 52.7184C65.9332 52.7184 66.7875 52.1133 66.7875 50.9029C66.7875 49.6824 65.9332 49.0721 64.2246 49.0721C62.516 49.0721 61.6617 49.6824 61.6617 50.9029C61.6617 52.1133 62.516 52.7184 64.2246 52.7184Z" fill="#7ED76B"/>
<path d="M74.4055 47.0735C75.1147 47.0735 75.738 47.2159 76.2753 47.5007C76.8233 47.7855 77.2478 48.1872 77.5487 48.706C77.8496 49.2247 78 49.8197 78 50.491C78 51.1724 77.8334 51.7776 77.5003 52.3065C77.1672 52.8354 76.6997 53.2473 76.098 53.5423C75.5069 53.8373 74.8246 53.9847 74.0509 53.9847C73.3846 53.9847 72.7291 53.8779 72.0843 53.6644C71.4503 53.4508 70.9184 53.1558 70.4886 52.7795C70.2737 52.6066 70.1662 52.4031 70.1662 52.1692C70.1662 51.9861 70.2199 51.8336 70.3274 51.7115C70.4348 51.5793 70.5638 51.5132 70.7142 51.5132C70.811 51.5132 70.8969 51.5284 70.9721 51.5589C71.0581 51.5895 71.1548 51.6403 71.2623 51.7115C71.7029 52.037 72.1435 52.2862 72.584 52.4591C73.0354 52.6218 73.5082 52.7032 74.0025 52.7032C74.7547 52.7032 75.3404 52.515 75.7595 52.1387C76.1786 51.7522 76.3881 51.2131 76.3881 50.5215C76.3881 49.8604 76.1732 49.3315 75.7434 48.9348C75.3243 48.5381 74.7601 48.3398 74.0509 48.3398C73.5888 48.3398 73.1751 48.4161 72.8097 48.5687C72.4443 48.7111 72.1005 48.9399 71.7781 49.2552C71.6169 49.3976 71.4235 49.4688 71.1978 49.4688C71.0151 49.4688 70.8593 49.4179 70.7304 49.3162C70.6122 49.2043 70.553 49.062 70.553 48.889V43.8696C70.553 43.6357 70.6175 43.4526 70.7465 43.3204C70.8862 43.1882 71.085 43.1221 71.3429 43.1221H76.8878C77.135 43.1221 77.3284 43.178 77.4681 43.2899C77.6078 43.4018 77.6776 43.5543 77.6776 43.7476C77.6776 43.951 77.6078 44.1086 77.4681 44.2205C77.3284 44.3324 77.135 44.3883 76.8878 44.3883H72.1972V47.7753C72.7882 47.3074 73.5243 47.0735 74.4055 47.0735Z" fill="#7ED76B"/>
<defs>
<linearGradient id="paint0_linear" x1="121.808" y1="101.893" x2="134.81" y2="161.474" gradientUnits="userSpaceOnUse">
<stop stop-color="#01AF66" stop-opacity="0.4"/>
<stop offset="1" stop-color="#64C8C2" stop-opacity="0.1"/>
</linearGradient>
<linearGradient id="paint1_linear" x1="45.6194" y1="134.922" x2="45.6194" y2="137.154" gradientUnits="userSpaceOnUse">
<stop stop-color="#FF1778"/>
<stop offset="1" stop-color="#FF1778" stop-opacity="0.35"/>
</linearGradient>
<linearGradient id="paint2_linear" x1="79.8109" y1="131.201" x2="79.8109" y2="134.178" gradientUnits="userSpaceOnUse">
<stop stop-color="#FF1778"/>
<stop offset="1" stop-color="#FF1778" stop-opacity="0.35"/>
</linearGradient>
<linearGradient id="paint3_linear" x1="96.4691" y1="125.249" x2="96.4691" y2="128.226" gradientUnits="userSpaceOnUse">
<stop stop-color="#FF1778"/>
<stop offset="1" stop-color="#FF1778" stop-opacity="0.35"/>
</linearGradient>
<linearGradient id="paint4_linear" x1="138.551" y1="99.9484" x2="138.551" y2="105.901" gradientUnits="userSpaceOnUse">
<stop stop-color="#FF1778"/>
<stop offset="1" stop-color="#FF1778" stop-opacity="0.35"/>
</linearGradient>
<linearGradient id="paint5_linear" x1="138.556" y1="89.5314" x2="138.556" y2="107.39" gradientUnits="userSpaceOnUse">
<stop stop-color="#FF1778"/>
<stop offset="1" stop-color="#FF1778" stop-opacity="0.35"/>
</linearGradient>
<linearGradient id="paint6_linear" x1="180.639" y1="67.2082" x2="180.639" y2="73.1609" gradientUnits="userSpaceOnUse">
<stop stop-color="#FF1778"/>
<stop offset="1" stop-color="#FF1778" stop-opacity="0.35"/>
</linearGradient>
<linearGradient id="paint7_linear" x1="180.638" y1="65.7199" x2="180.638" y2="83.5782" gradientUnits="userSpaceOnUse">
<stop stop-color="#FF1778"/>
<stop offset="1" stop-color="#FF1778" stop-opacity="0.35"/>
</linearGradient>
<linearGradient id="paint8_linear" x1="196.418" y1="67.9533" x2="196.418" y2="88.788" gradientUnits="userSpaceOnUse">
<stop stop-color="#FF1778"/>
<stop offset="1" stop-color="#FF1778" stop-opacity="0.35"/>
</linearGradient>
<linearGradient id="paint9_linear" x1="196.421" y1="62.7443" x2="196.421" y2="99.9491" gradientUnits="userSpaceOnUse">
<stop stop-color="#FF1778"/>
<stop offset="1" stop-color="#FF1778" stop-opacity="0.35"/>
</linearGradient>
<linearGradient id="paint10_linear" x1="230.614" y1="79.1144" x2="230.614" y2="91.764" gradientUnits="userSpaceOnUse">
<stop stop-color="#FF1778"/>
<stop offset="1" stop-color="#FF1778" stop-opacity="0.35"/>
</linearGradient>
<linearGradient id="paint11_linear" x1="230.614" y1="76.1378" x2="230.614" y2="94.7403" gradientUnits="userSpaceOnUse">
<stop stop-color="#FF1778"/>
<stop offset="1" stop-color="#FF1778" stop-opacity="0.35"/>
</linearGradient>
<linearGradient id="paint12_linear" x1="263.932" y1="67.9533" x2="263.932" y2="70.1856" gradientUnits="userSpaceOnUse">
<stop stop-color="#FF1778"/>
<stop offset="1" stop-color="#FF1778" stop-opacity="0.35"/>
</linearGradient>
<linearGradient id="paint13_linear" x1="263.931" y1="64.9767" x2="263.931" y2="72.4177" gradientUnits="userSpaceOnUse">
<stop stop-color="#FF1778"/>
<stop offset="1" stop-color="#FF1778" stop-opacity="0.35"/>
</linearGradient>
<linearGradient id="paint14_linear" x1="21.0687" y1="131.201" x2="21.0687" y2="137.898" gradientUnits="userSpaceOnUse">
<stop stop-color="#FF1778"/>
<stop offset="1" stop-color="#FF1778" stop-opacity="0.35"/>
</linearGradient>
<linearGradient id="paint15_linear" x1="21.0673" y1="128.969" x2="21.0673" y2="139.386" gradientUnits="userSpaceOnUse">
<stop stop-color="#FF1778"/>
<stop offset="1" stop-color="#FF1778" stop-opacity="0.35"/>
</linearGradient>
<linearGradient id="paint16_linear" x1="45.6161" y1="134.922" x2="45.6161" y2="139.387" gradientUnits="userSpaceOnUse">
<stop stop-color="#FF1778"/>
<stop offset="1" stop-color="#FF1778" stop-opacity="0.35"/>
</linearGradient>
<linearGradient id="paint17_linear" x1="54.3837" y1="137.154" x2="54.3837" y2="141.619" gradientUnits="userSpaceOnUse">
<stop stop-color="#FF1778"/>
<stop offset="1" stop-color="#FF1778" stop-opacity="0.35"/>
</linearGradient>
<linearGradient id="paint18_linear" x1="79.8114" y1="130.456" x2="79.8114" y2="134.921" gradientUnits="userSpaceOnUse">
<stop stop-color="#FF1778"/>
<stop offset="1" stop-color="#FF1778" stop-opacity="0.35"/>
</linearGradient>
<linearGradient id="paint19_linear" x1="96.4657" y1="122.272" x2="96.4657" y2="132.689" gradientUnits="userSpaceOnUse">
<stop stop-color="#FF1778"/>
<stop offset="1" stop-color="#FF1778" stop-opacity="0.35"/>
</linearGradient>
<linearGradient id="paint20_linear" x1="54.3831" y1="138.643" x2="54.3831" y2="140.875" gradientUnits="userSpaceOnUse">
<stop stop-color="#FF1778"/>
<stop offset="1" stop-color="#FF1778" stop-opacity="0.35"/>
</linearGradient>
</defs>
</svg>
