<svg width="294" height="189" viewBox="0 0 294 189" fill="none" xmlns="http://www.w3.org/2000/svg">
<path d="M4 17C4 10.3726 9.37258 5 16 5H277C283.627 5 289 10.3726 289 17V180H4V17Z" fill="#0A244E"/>
<g filter="url(#filter0_d)">
<path d="M20 79C20 76.7909 21.7909 75 24 75H270C272.209 75 274 76.7909 274 79V114C274 116.209 272.209 118 270 118H24C21.7909 118 20 116.209 20 114V79Z" fill="url(#paint0_linear)"/>
</g>
<path d="M70.543 88.5316C70.543 87.4311 71.4351 86.5391 72.5355 86.5391H140.851C141.951 86.5391 142.843 87.4311 142.843 88.5316C142.843 89.632 141.951 90.5241 140.851 90.5241H72.5355C71.4351 90.5241 70.543 89.632 70.543 88.5316Z" fill="#82A5DC"/>
<path d="M70.543 98.2103C70.543 97.1099 71.4351 96.2178 72.5355 96.2178H129.465C130.565 96.2178 131.457 97.1099 131.457 98.2103C131.457 99.3107 130.565 100.203 129.465 100.203H72.5355C71.435 100.203 70.543 99.3107 70.543 98.2103Z" fill="#82A5DC"/>
<path d="M232 111.749C232 111.197 232.448 110.749 233 110.749H249C249.552 110.749 250 111.197 250 111.749C250 112.301 249.552 112.749 249 112.749H233C232.448 112.749 232 112.301 232 111.749Z" fill="#82A5DC"/>
<path d="M30.6934 91.6934C30.6934 87.2751 34.2751 83.6934 38.6934 83.6934H51.158C55.5762 83.6934 59.158 87.2751 59.158 91.6934V104.158C59.158 108.576 55.5762 112.158 51.158 112.158H38.6934C34.2751 112.158 30.6934 108.576 30.6934 104.158V91.6934Z" fill="#D6E2FF"/>
<path d="M30.6934 91.6934C30.6934 87.2751 34.2751 83.6934 38.6934 83.6934H51.158C55.5762 83.6934 59.158 87.2751 59.158 91.6934V104.158C59.158 108.576 55.5762 112.158 51.158 112.158H38.6934C34.2751 112.158 30.6934 108.576 30.6934 104.158V91.6934Z" fill="#82A5DC"/>
<path fill-rule="evenodd" clip-rule="evenodd" d="M46.1941 102.989C48.4145 103.008 49.7941 101.554 49.9032 99.8976C49.9968 98.4759 48.8179 97.5873 47.8378 97.5811C48.491 97.2609 48.8027 96.4445 48.8179 95.6457C48.8357 94.7102 48.3455 93.6321 47.3526 93.0646C46.6534 92.665 45.7601 92.5368 45.7601 92.5368V91.0993L44.49 91.0938L44.4919 92.5368H43.4117L43.4098 91.0938H42.1332V92.5368H40.1606V94.3395H40.6146C41.1669 94.3395 41.6146 94.7873 41.6146 95.3395V100.196C41.6146 100.749 41.1669 101.196 40.6146 101.196H40.167L39.8008 102.989H42.1332V104.429H43.4098L43.4117 102.989H44.49L44.4919 104.429H45.7601V102.989C45.7601 102.989 46.1565 102.989 46.1941 102.989ZM47.0178 99.8687C47.0178 100.922 45.987 101.186 45.4105 101.186H43.4099V98.5518C43.4099 98.5518 44.8706 98.5562 45.1653 98.5518C46.5024 98.532 47.0178 99.3419 47.0178 99.8687ZM45.2411 96.8609H43.4099V94.3378H44.137C45.3087 94.3124 46.5024 94.6012 46.5024 95.6547C46.5024 96.1814 46.2447 96.5975 45.5412 96.8078C45.4424 96.8374 45.2411 96.8609 45.2411 96.8609Z" fill="#0A244E"/>
<circle cx="257.343" cy="111.019" r="3.41575" fill="#DD7A5B"/>
<g filter="url(#filter1_d)">
<path d="M20 130C20 127.791 21.7909 126 24 126H270C272.209 126 274 127.791 274 130V165C274 167.209 272.209 169 270 169H24C21.7909 169 20 167.209 20 165V130Z" fill="url(#paint1_linear)"/>
</g>
<path d="M70.543 139.532C70.543 138.431 71.4351 137.539 72.5355 137.539H140.851C141.951 137.539 142.843 138.431 142.843 139.532C142.843 140.632 141.951 141.524 140.851 141.524H72.5355C71.4351 141.524 70.543 140.632 70.543 139.532Z" fill="#82A5DC"/>
<path d="M70.543 149.21C70.543 148.11 71.4351 147.218 72.5355 147.218H129.465C130.565 147.218 131.457 148.11 131.457 149.21C131.457 150.311 130.565 151.203 129.465 151.203H72.5355C71.435 151.203 70.543 150.311 70.543 149.21Z" fill="#82A5DC"/>
<path d="M232 162.749C232 162.197 232.448 161.749 233 161.749H249C249.552 161.749 250 162.197 250 162.749C250 163.301 249.552 163.749 249 163.749H233C232.448 163.749 232 163.301 232 162.749Z" fill="#82A5DC"/>
<path d="M30.6934 142.693C30.6934 138.275 34.2751 134.693 38.6934 134.693H51.158C55.5762 134.693 59.158 138.275 59.158 142.693V155.158C59.158 159.576 55.5762 163.158 51.158 163.158H38.6934C34.2751 163.158 30.6934 159.576 30.6934 155.158V142.693Z" fill="#D6E2FF"/>
<path d="M30.6934 142.693C30.6934 138.275 34.2751 134.693 38.6934 134.693H51.158C55.5762 134.693 59.158 138.275 59.158 142.693V155.158C59.158 159.576 55.5762 163.158 51.158 163.158H38.6934C34.2751 163.158 30.6934 159.576 30.6934 155.158V142.693Z" fill="#82A5DC"/>
<path fill-rule="evenodd" clip-rule="evenodd" d="M46.1941 153.989C48.4145 154.008 49.7941 152.554 49.9032 150.898C49.9968 149.476 48.8179 148.587 47.8378 148.581C48.491 148.261 48.8027 147.445 48.8179 146.646C48.8357 145.71 48.3455 144.632 47.3526 144.065C46.6534 143.665 45.7601 143.537 45.7601 143.537V142.099L44.49 142.094L44.4919 143.537H43.4117L43.4098 142.094H42.1332V143.537H40.1606V145.34H40.6146C41.1669 145.34 41.6146 145.787 41.6146 146.34V151.196C41.6146 151.749 41.1669 152.196 40.6146 152.196H40.167L39.8008 153.989H42.1332V155.429H43.4098L43.4117 153.989H44.49L44.4919 155.429H45.7601V153.989C45.7601 153.989 46.1565 153.989 46.1941 153.989ZM47.0178 150.869C47.0178 151.922 45.987 152.186 45.4105 152.186H43.4099V149.552C43.4099 149.552 44.8706 149.556 45.1653 149.552C46.5024 149.532 47.0178 150.342 47.0178 150.869ZM45.2411 147.861H43.4099V145.338H44.137C45.3087 145.312 46.5024 145.601 46.5024 146.655C46.5024 147.181 46.2447 147.598 45.5412 147.808C45.4424 147.837 45.2411 147.861 45.2411 147.861Z" fill="#0A244E"/>
<circle cx="257.343" cy="162.019" r="3.41575" fill="#DD7A5B"/>
<g filter="url(#filter2_d)">
<path d="M20 52.5C20 44.4919 26.4919 38 34.5 38H258.5C266.508 38 273 44.4919 273 52.5C273 60.5081 266.508 67 258.5 67H34.5C26.4919 67 20 60.5081 20 52.5Z" fill="url(#paint2_linear)" fill-opacity="0.4"/>
</g>
<circle cx="253" cy="51" r="6" stroke="#82A5DC" stroke-width="2"/>
<path d="M259.293 57.7071C259.683 58.0976 260.317 58.0976 260.707 57.7071C261.098 57.3166 261.098 56.6834 260.707 56.2929L259.293 57.7071ZM257.293 55.7071L259.293 57.7071L260.707 56.2929L258.707 54.2929L257.293 55.7071Z" fill="#82A5DC"/>
<g filter="url(#filter3_d)">
<path d="M212 23C212 21.3431 213.343 20 215 20H271C272.657 20 274 21.3431 274 23C274 24.6569 272.657 26 271 26H215C213.343 26 212 24.6569 212 23Z" fill="#466392"/>
</g>
<g filter="url(#filter4_d)">
<path d="M116 23C116 21.3431 117.343 20 119 20H175C176.657 20 178 21.3431 178 23C178 24.6569 176.657 26 175 26H119C117.343 26 116 24.6569 116 23Z" fill="#466392"/>
</g>
<g filter="url(#filter5_d)">
<path d="M20 23C20 21.3431 21.3431 20 23 20H79C80.6569 20 82 21.3431 82 23C82 24.6569 80.6569 26 79 26H23C21.3431 26 20 24.6569 20 23Z" fill="#466392"/>
</g>
<path d="M39.0399 57.1278C38.2292 57.1278 37.4559 57.0158 36.7199 56.7918C35.9945 56.5678 35.4132 56.2585 34.9759 55.8638C34.7732 55.6931 34.6719 55.4745 34.6719 55.2078C34.6719 55.0158 34.7252 54.8558 34.8319 54.7278C34.9385 54.5891 35.0665 54.5198 35.2159 54.5198C35.3652 54.5198 35.5465 54.5891 35.7599 54.7278C36.7092 55.4318 37.7919 55.7838 39.0079 55.7838C39.8612 55.7838 40.5172 55.6238 40.9759 55.3038C41.4345 54.9838 41.6639 54.5251 41.6639 53.9278C41.6639 53.4585 41.4505 53.1065 41.0239 52.8718C40.5972 52.6371 39.9145 52.4131 38.9759 52.1998C38.0799 52.0078 37.3439 51.7891 36.7679 51.5438C36.1919 51.2985 35.7385 50.9678 35.4079 50.5518C35.0879 50.1251 34.9279 49.5865 34.9279 48.9358C34.9279 48.2851 35.1039 47.7091 35.4559 47.2078C35.8185 46.6958 36.3199 46.3011 36.9599 46.0238C37.5999 45.7358 38.3305 45.5918 39.1519 45.5918C39.9092 45.5918 40.6079 45.6985 41.2479 45.9118C41.8879 46.1251 42.4319 46.4398 42.8799 46.8558C43.0932 47.0371 43.1999 47.2558 43.1999 47.5118C43.1999 47.6931 43.1412 47.8531 43.0239 47.9918C42.9172 48.1305 42.7892 48.1998 42.6399 48.1998C42.5012 48.1998 42.3252 48.1305 42.1119 47.9918C41.6212 47.6185 41.1572 47.3518 40.7199 47.1918C40.2932 47.0211 39.7759 46.9358 39.1679 46.9358C38.3465 46.9358 37.7065 47.1065 37.2479 47.4478C36.7892 47.7785 36.5599 48.2425 36.5599 48.8398C36.5599 49.3518 36.7625 49.7411 37.1679 50.0078C37.5732 50.2638 38.2239 50.4985 39.1199 50.7118C40.0585 50.9251 40.8159 51.1491 41.3919 51.3838C41.9785 51.6078 42.4425 51.9225 42.7839 52.3278C43.1359 52.7225 43.3119 53.2345 43.3119 53.8638C43.3119 54.5038 43.1305 55.0745 42.7679 55.5758C42.4159 56.0665 41.9145 56.4505 41.2639 56.7278C40.6239 56.9945 39.8825 57.1278 39.0399 57.1278Z" fill="#82A5DC"/>
<path d="M51.2631 55.0318C51.4125 55.0318 51.5351 55.0905 51.6311 55.2078C51.7271 55.3251 51.7751 55.4745 51.7751 55.6558C51.7751 55.9651 51.5831 56.2265 51.1991 56.4398C50.8258 56.6531 50.4151 56.8185 49.9671 56.9358C49.5298 57.0531 49.1085 57.1118 48.7031 57.1118C47.4658 57.1118 46.4898 56.7545 45.7751 56.0398C45.0605 55.3145 44.7031 54.3278 44.7031 53.0798C44.7031 52.2798 44.8578 51.5705 45.1671 50.9518C45.4871 50.3331 45.9298 49.8531 46.4951 49.5118C47.0711 49.1705 47.7218 48.9998 48.4471 48.9998C49.4925 48.9998 50.3191 49.3358 50.9271 50.0078C51.5351 50.6798 51.8391 51.5865 51.8391 52.7278C51.8391 53.1545 51.6471 53.3678 51.2631 53.3678H46.3191C46.4258 55.0211 47.2205 55.8478 48.7031 55.8478C49.0978 55.8478 49.4391 55.7945 49.7271 55.6878C50.0151 55.5811 50.3191 55.4425 50.6391 55.2718C50.6711 55.2505 50.7565 55.2078 50.8951 55.1438C51.0445 55.0691 51.1671 55.0318 51.2631 55.0318ZM48.4791 50.1838C47.8605 50.1838 47.3645 50.3811 46.9911 50.7758C46.6178 51.1705 46.3938 51.7251 46.3191 52.4398H50.4471C50.4151 51.7145 50.2285 51.1598 49.8871 50.7758C49.5565 50.3811 49.0871 50.1838 48.4791 50.1838Z" fill="#82A5DC"/>
<path d="M56.8999 48.9998C57.9345 48.9998 58.7025 49.2611 59.2039 49.7838C59.7159 50.3065 59.9719 51.1011 59.9719 52.1678V56.3118C59.9719 56.5571 59.9025 56.7491 59.7639 56.8878C59.6252 57.0158 59.4332 57.0798 59.1879 57.0798C58.9532 57.0798 58.7665 57.0105 58.6279 56.8718C58.4892 56.7331 58.4199 56.5465 58.4199 56.3118V55.7198C58.2172 56.1678 57.9132 56.5145 57.5079 56.7598C57.1132 56.9945 56.6492 57.1118 56.1159 57.1118C55.6039 57.1118 55.1345 57.0105 54.7079 56.8078C54.2812 56.5945 53.9452 56.3011 53.6999 55.9278C53.4652 55.5545 53.3479 55.1385 53.3479 54.6798C53.3479 54.1145 53.4919 53.6718 53.7799 53.3518C54.0785 53.0211 54.5639 52.7865 55.2359 52.6478C55.9185 52.5091 56.8519 52.4398 58.0359 52.4398H58.4039V51.9758C58.4039 51.3785 58.2812 50.9465 58.0359 50.6798C57.7905 50.4131 57.3959 50.2798 56.8519 50.2798C56.4785 50.2798 56.1265 50.3278 55.7959 50.4238C55.4652 50.5198 55.1025 50.6585 54.7079 50.8398C54.4199 50.9998 54.2172 51.0798 54.0999 51.0798C53.9399 51.0798 53.8065 51.0211 53.6999 50.9038C53.6039 50.7865 53.5559 50.6371 53.5559 50.4558C53.5559 50.2958 53.5985 50.1571 53.6839 50.0398C53.7799 49.9118 53.9292 49.7891 54.1319 49.6718C54.5052 49.4691 54.9425 49.3091 55.4439 49.1918C55.9452 49.0638 56.4305 48.9998 56.8999 48.9998ZM56.4039 55.9118C56.9905 55.9118 57.4705 55.7145 57.8439 55.3198C58.2172 54.9145 58.4039 54.3971 58.4039 53.7678V53.3518H58.1159C57.2839 53.3518 56.6439 53.3891 56.1959 53.4638C55.7479 53.5385 55.4279 53.6665 55.2359 53.8478C55.0439 54.0185 54.9479 54.2691 54.9479 54.5998C54.9479 54.9838 55.0865 55.2985 55.3639 55.5438C55.6412 55.7891 55.9879 55.9118 56.4039 55.9118Z" fill="#82A5DC"/>
<path d="M66.2784 49.0318C66.7904 48.9998 67.0464 49.2185 67.0464 49.6878C67.0464 49.9225 66.9877 50.0985 66.8704 50.2158C66.753 50.3331 66.5504 50.4025 66.2624 50.4238L65.7824 50.4718C65.1104 50.5358 64.609 50.7705 64.2784 51.1758C63.9584 51.5811 63.7984 52.0718 63.7984 52.6478V56.3118C63.7984 56.5678 63.7237 56.7598 63.5744 56.8878C63.425 57.0158 63.233 57.0798 62.9984 57.0798C62.7637 57.0798 62.5664 57.0158 62.4064 56.8878C62.257 56.7598 62.1824 56.5678 62.1824 56.3118V49.7998C62.1824 49.5545 62.257 49.3678 62.4064 49.2398C62.5664 49.1011 62.7637 49.0318 62.9984 49.0318C63.2117 49.0318 63.3877 49.1011 63.5264 49.2398C63.6757 49.3678 63.7504 49.5491 63.7504 49.7838V50.5518C63.9637 50.0825 64.273 49.7251 64.6784 49.4798C65.0837 49.2345 65.5424 49.0905 66.0544 49.0478L66.2784 49.0318Z" fill="#82A5DC"/>
<path d="M71.2295 57.1118C70.4722 57.1118 69.8055 56.9465 69.2295 56.6158C68.6642 56.2851 68.2215 55.8158 67.9015 55.2078C67.5922 54.5998 67.4375 53.8958 67.4375 53.0958C67.4375 52.2851 67.5975 51.5705 67.9175 50.9518C68.2482 50.3331 68.7068 49.8531 69.2935 49.5118C69.8802 49.1705 70.5522 48.9998 71.3095 48.9998C71.7148 48.9998 72.1202 49.0585 72.5255 49.1758C72.9415 49.2931 73.3095 49.4531 73.6295 49.6558C73.9708 49.8905 74.1415 50.1625 74.1415 50.4718C74.1415 50.6531 74.0935 50.8078 73.9975 50.9358C73.9015 51.0531 73.7788 51.1118 73.6295 51.1118C73.5335 51.1118 73.4375 51.0905 73.3415 51.0478C73.2455 50.9945 73.1228 50.9198 72.9735 50.8238C72.7068 50.6531 72.4562 50.5251 72.2215 50.4398C71.9975 50.3438 71.7255 50.2958 71.4055 50.2958C70.6802 50.2958 70.1148 50.5411 69.7095 51.0318C69.3148 51.5225 69.1175 52.2051 69.1175 53.0798C69.1175 53.9545 69.3148 54.6318 69.7095 55.1118C70.1042 55.5811 70.6642 55.8158 71.3895 55.8158C71.7095 55.8158 71.9922 55.7678 72.2375 55.6718C72.4828 55.5758 72.7335 55.4478 72.9895 55.2878C73.1068 55.2131 73.2242 55.1491 73.3415 55.0958C73.4588 55.0425 73.5655 55.0158 73.6615 55.0158C73.8108 55.0158 73.9335 55.0798 74.0295 55.2078C74.1255 55.3251 74.1735 55.4745 74.1735 55.6558C74.1735 55.8051 74.1308 55.9438 74.0455 56.0718C73.9708 56.1891 73.8375 56.3118 73.6455 56.4398C73.3255 56.6531 72.9522 56.8185 72.5255 56.9358C72.0988 57.0531 71.6668 57.1118 71.2295 57.1118Z" fill="#82A5DC"/>
<path d="M79.8439 48.9998C81.6999 48.9998 82.6279 50.0505 82.6279 52.1518V56.3118C82.6279 56.5465 82.5532 56.7331 82.4039 56.8718C82.2545 57.0105 82.0572 57.0798 81.8119 57.0798C81.5665 57.0798 81.3692 57.0105 81.2199 56.8718C81.0812 56.7331 81.0119 56.5465 81.0119 56.3118V52.1678C81.0119 51.5278 80.8785 51.0585 80.6119 50.7598C80.3559 50.4611 79.9505 50.3118 79.3959 50.3118C78.7452 50.3118 78.2225 50.5145 77.8279 50.9198C77.4332 51.3251 77.2359 51.8691 77.2359 52.5518V56.3118C77.2359 56.5465 77.1612 56.7331 77.0119 56.8718C76.8732 57.0105 76.6812 57.0798 76.4359 57.0798C76.1905 57.0798 75.9932 57.0105 75.8439 56.8718C75.6945 56.7331 75.6199 56.5465 75.6199 56.3118V46.4078C75.6199 46.1731 75.6945 45.9865 75.8439 45.8478C76.0039 45.7091 76.2065 45.6398 76.4519 45.6398C76.6865 45.6398 76.8732 45.7091 77.0119 45.8478C77.1612 45.9758 77.2359 46.1518 77.2359 46.3758V50.3758C77.5025 49.9278 77.8599 49.5865 78.3079 49.3518C78.7559 49.1171 79.2679 48.9998 79.8439 48.9998Z" fill="#82A5DC"/>
<defs>
<filter id="filter0_d" x="0" y="55" width="294" height="83" filterUnits="userSpaceOnUse" color-interpolation-filters="sRGB">
<feFlood flood-opacity="0" result="BackgroundImageFix"/>
<feColorMatrix in="SourceAlpha" type="matrix" values="0 0 0 0 0 0 0 0 0 0 0 0 0 0 0 0 0 0 127 0" result="hardAlpha"/>
<feOffset/>
<feGaussianBlur stdDeviation="10"/>
<feColorMatrix type="matrix" values="0 0 0 0 0 0 0 0 0 0 0 0 0 0 0 0 0 0 0.06 0"/>
<feBlend mode="normal" in2="BackgroundImageFix" result="effect1_dropShadow"/>
<feBlend mode="normal" in="SourceGraphic" in2="effect1_dropShadow" result="shape"/>
</filter>
<filter id="filter1_d" x="0" y="106" width="294" height="83" filterUnits="userSpaceOnUse" color-interpolation-filters="sRGB">
<feFlood flood-opacity="0" result="BackgroundImageFix"/>
<feColorMatrix in="SourceAlpha" type="matrix" values="0 0 0 0 0 0 0 0 0 0 0 0 0 0 0 0 0 0 127 0" result="hardAlpha"/>
<feOffset/>
<feGaussianBlur stdDeviation="10"/>
<feColorMatrix type="matrix" values="0 0 0 0 0 0 0 0 0 0 0 0 0 0 0 0 0 0 0.06 0"/>
<feBlend mode="normal" in2="BackgroundImageFix" result="effect1_dropShadow"/>
<feBlend mode="normal" in="SourceGraphic" in2="effect1_dropShadow" result="shape"/>
</filter>
<filter id="filter2_d" x="0" y="18" width="293" height="69" filterUnits="userSpaceOnUse" color-interpolation-filters="sRGB">
<feFlood flood-opacity="0" result="BackgroundImageFix"/>
<feColorMatrix in="SourceAlpha" type="matrix" values="0 0 0 0 0 0 0 0 0 0 0 0 0 0 0 0 0 0 127 0" result="hardAlpha"/>
<feOffset/>
<feGaussianBlur stdDeviation="10"/>
<feColorMatrix type="matrix" values="0 0 0 0 0 0 0 0 0 0 0 0 0 0 0 0 0 0 0.06 0"/>
<feBlend mode="normal" in2="BackgroundImageFix" result="effect1_dropShadow"/>
<feBlend mode="normal" in="SourceGraphic" in2="effect1_dropShadow" result="shape"/>
</filter>
<filter id="filter3_d" x="192" y="0" width="102" height="46" filterUnits="userSpaceOnUse" color-interpolation-filters="sRGB">
<feFlood flood-opacity="0" result="BackgroundImageFix"/>
<feColorMatrix in="SourceAlpha" type="matrix" values="0 0 0 0 0 0 0 0 0 0 0 0 0 0 0 0 0 0 127 0" result="hardAlpha"/>
<feOffset/>
<feGaussianBlur stdDeviation="10"/>
<feColorMatrix type="matrix" values="0 0 0 0 0 0 0 0 0 0 0 0 0 0 0 0 0 0 0.06 0"/>
<feBlend mode="normal" in2="BackgroundImageFix" result="effect1_dropShadow"/>
<feBlend mode="normal" in="SourceGraphic" in2="effect1_dropShadow" result="shape"/>
</filter>
<filter id="filter4_d" x="96" y="0" width="102" height="46" filterUnits="userSpaceOnUse" color-interpolation-filters="sRGB">
<feFlood flood-opacity="0" result="BackgroundImageFix"/>
<feColorMatrix in="SourceAlpha" type="matrix" values="0 0 0 0 0 0 0 0 0 0 0 0 0 0 0 0 0 0 127 0" result="hardAlpha"/>
<feOffset/>
<feGaussianBlur stdDeviation="10"/>
<feColorMatrix type="matrix" values="0 0 0 0 0 0 0 0 0 0 0 0 0 0 0 0 0 0 0.06 0"/>
<feBlend mode="normal" in2="BackgroundImageFix" result="effect1_dropShadow"/>
<feBlend mode="normal" in="SourceGraphic" in2="effect1_dropShadow" result="shape"/>
</filter>
<filter id="filter5_d" x="0" y="0" width="102" height="46" filterUnits="userSpaceOnUse" color-interpolation-filters="sRGB">
<feFlood flood-opacity="0" result="BackgroundImageFix"/>
<feColorMatrix in="SourceAlpha" type="matrix" values="0 0 0 0 0 0 0 0 0 0 0 0 0 0 0 0 0 0 127 0" result="hardAlpha"/>
<feOffset/>
<feGaussianBlur stdDeviation="10"/>
<feColorMatrix type="matrix" values="0 0 0 0 0 0 0 0 0 0 0 0 0 0 0 0 0 0 0.06 0"/>
<feBlend mode="normal" in2="BackgroundImageFix" result="effect1_dropShadow"/>
<feBlend mode="normal" in="SourceGraphic" in2="effect1_dropShadow" result="shape"/>
</filter>
<linearGradient id="paint0_linear" x1="60.6601" y1="78.0001" x2="273.966" y2="108.737" gradientUnits="userSpaceOnUse">
<stop stop-color="#466392" stop-opacity="0.78"/>
<stop offset="0.472063" stop-color="#466392"/>
<stop offset="1" stop-color="#466392" stop-opacity="0.78"/>
</linearGradient>
<linearGradient id="paint1_linear" x1="60.6601" y1="129" x2="273.966" y2="159.737" gradientUnits="userSpaceOnUse">
<stop stop-color="#466392" stop-opacity="0.78"/>
<stop offset="0.472063" stop-color="#466392"/>
<stop offset="1" stop-color="#466392" stop-opacity="0.78"/>
</linearGradient>
<linearGradient id="paint2_linear" x1="60.5" y1="38" x2="269.198" y2="79.3163" gradientUnits="userSpaceOnUse">
<stop stop-color="#466392" stop-opacity="0.78"/>
<stop offset="0.472063" stop-color="#466392"/>
<stop offset="1" stop-color="#466392" stop-opacity="0.78"/>
</linearGradient>
</defs>
</svg>
