<svg width="24" height="24" viewBox="0 0 24 24" fill="none" xmlns="http://www.w3.org/2000/svg">
<path d="M0 12.3176C0 17.698 3.35859 22.2723 8.03906 23.9519C8.66953 24.1155 8.57344 23.6535 8.57344 23.3407V21.2063C4.93359 21.6443 4.78828 19.1706 4.54219 18.7592C4.04766 17.8929 2.88281 17.6715 3.22969 17.2601C4.05938 16.8221 4.90312 17.3708 5.88047 18.8554C6.58828 19.931 7.96875 19.7506 8.66953 19.5701C8.82187 18.9228 9.15 18.3453 9.6 17.8953C5.83125 17.2023 4.25859 14.8394 4.25859 12.0289C4.25859 10.6669 4.69688 9.41328 5.55469 8.40265C5.00859 6.73511 5.60625 5.31061 5.68594 5.09886C7.24453 4.95448 8.86172 6.24424 8.98828 6.3453C9.87422 6.09986 10.8844 5.96992 12.0141 5.96992C13.1508 5.96992 14.1656 6.10467 15.0563 6.35252C15.3586 6.1167 16.8609 5.00983 18.3094 5.14458C18.3867 5.35633 18.9703 6.74955 18.457 8.39302C19.3266 9.40606 19.7695 10.6693 19.7695 12.0361C19.7695 14.8514 18.1875 17.2168 14.407 17.9001C15.0375 18.5402 15.4289 19.4257 15.4289 20.4075V23.5067C15.45 23.7546 15.4289 24 15.832 24C20.5805 22.3565 24 17.7485 24 12.32C24 5.51273 18.6258 7.87431e-07 12 7.87431e-07C5.36953 -0.00240547 0 5.51033 0 12.3176Z" fill="black"/>
</svg>
