<svg width="24" height="24" viewBox="0 0 24 24" fill="none" xmlns="http://www.w3.org/2000/svg">
<g clip-path="url(#clip0)">
<path d="M22.4564 4.5H12.3164L11.261 8.58281L10.8821 11.266L12.9131 16.9306L13.2392 23.8043H22.4564C23.3088 23.8043 24.0001 23.113 24.0001 22.2607V6.04369C24 5.19131 23.3087 4.5 22.4564 4.5Z" fill="#E6E6E6"/>
<path d="M17.2825 19.5L13.2391 23.8043L11.8069 19.5L12.3912 17.9307L17.2825 19.5Z" fill="#3A5BBC"/>
<path d="M22.011 11.4457V10.4674H18.2936V9.0979H17.3153V10.4674H13.9651V11.4457H19.3974C19.0953 12.0819 18.5715 13.0964 17.8516 14.1661C17.1892 13.3388 16.7706 12.7631 16.7656 12.7563L16.4783 12.3604L15.6865 12.9349L15.9737 13.3307C15.996 13.3616 16.4835 14.0321 17.2552 14.9854C16.7291 15.6299 15.7642 16.6779 15.2557 17.1863L15.9474 17.878C16.3862 17.4391 17.2962 16.4617 17.8892 15.7533C18.6607 16.6698 19.4138 17.4967 20.1324 18.2154L20.4782 18.5613L21.17 17.8696L20.8242 17.5238C20.0817 16.7813 19.2998 15.9176 18.497 14.9551C19.5345 13.4634 20.207 12.0509 20.4751 11.4457H22.011Z" fill="#808080"/>
<path d="M16.3748 16.759L17.2826 19.5001H1.54369C0.690656 19.5001 0 18.8088 0 17.9565V1.73949C0 0.887113 0.690656 0.195801 1.54369 0.195801H10.8913L12.3163 4.50014L14.4541 10.9567L16.3748 16.759Z" fill="#518EF8"/>
<path d="M6.99841 13.4707C4.99356 13.4707 3.36255 11.8397 3.36255 9.83483C3.36255 7.82999 4.99356 6.19897 6.99841 6.19897C7.96891 6.19897 8.88194 6.57702 9.56927 7.2636L8.87791 7.95575C8.37527 7.45372 7.70786 7.17725 6.99836 7.17725C5.53291 7.17725 4.34074 8.36943 4.34074 9.83488C4.34074 11.3003 5.53291 12.4925 6.99836 12.4925C8.29671 12.4925 9.38055 11.5565 9.61085 10.324H6.99846V9.34574H10.6343V9.83488C10.6343 11.8397 9.00325 13.4707 6.99841 13.4707Z" fill="white"/>
</g>
<defs>
<clipPath id="clip0">
<rect width="24" height="24" fill="white"/>
</clipPath>
</defs>
</svg>
