<svg width="285" height="175" viewBox="0 0 285 175" fill="none" xmlns="http://www.w3.org/2000/svg">
<path d="M0 12C0 5.37259 5.37258 0 12 0H273C279.627 0 285 5.37258 285 12V175H0V12Z" fill="#0A244E"/>
<g opacity="0.8">
<mask id="mask0" mask-type="alpha" maskUnits="userSpaceOnUse" x="0" y="0" width="284" height="175">
<path d="M0 163C0 169.627 5.37258 175 12 175H272C278.627 175 284 169.627 284 163V0H0V163Z" fill="#3D75E3"/>
</mask>
<g mask="url(#mask0)">
<path fill-rule="evenodd" clip-rule="evenodd" d="M29.5093 175V159.362L29 159.07L29.5093 158.779V137.06L29 136.769L29.5093 136.477V114.821H29.5076V92.6254L29.0045 92.3353L29.5076 92.0451V70.1396L29.0045 69.8495L29.5076 69.5593V47.0803L49.4983 35L69.489 47.0803V69.5593L69.9921 69.8495L69.489 70.1396V92.0451L69.9921 92.3353L69.489 92.6254V114.181L69.4907 114.182V136.477L70 136.769L69.4907 137.06V158.779L70 159.07L69.4907 159.362V175H68.4912V159.933L49.9998 170.512V175H49.0002V170.512L30.5088 159.933V175H29.5093ZM68.4895 113.582L51.1618 103.197L68.4895 93.202V113.582ZM49.9981 102.5L50.1781 102.608L67.9865 92.3353L49.9981 81.9591V102.5ZM48.8202 102.609L48.9985 102.502V81.9591L31.0102 92.3353L48.8202 102.609ZM49.0002 103.869L48.8299 103.771L31.0005 114.457L49.0002 124.755V103.869ZM50.1685 103.77L49.9998 103.867V124.755L67.9995 114.457L50.1685 103.77ZM47.8366 103.198L30.5071 93.202V113.584L47.8366 103.198ZM30.5088 137.632V158.207L48.491 147.919L30.5088 137.632ZM31.0181 136.769L49.0002 147.056V126.481L31.0181 136.769ZM30.5088 135.905L48.491 125.618L30.5088 115.33V135.905ZM50.509 125.618L68.4912 115.33V135.905L50.509 125.618ZM68.4912 158.207V137.632L50.509 147.919L68.4912 158.207ZM67.9819 159.07L49.9998 148.783V169.358L67.9819 159.07ZM31.0181 159.07L49.0002 169.358V148.783L31.0181 159.07ZM67.9819 136.769L49.9998 147.056V126.481L67.9819 136.769ZM48.4955 81.0924L30.5071 70.7162V91.4685L48.4955 81.0924ZM31.0102 69.8495L48.9985 80.2256V59.4733L31.0102 69.8495ZM30.5071 68.9827L48.4955 58.6066L30.5071 48.2304V68.9827ZM48.9985 36.4728L30.9927 47.3536L48.9985 57.7398V36.4728ZM49.9981 36.4728V57.7398L68.0039 47.3536L49.9981 36.4728ZM50.5011 58.6066L68.4895 48.2304V68.9827L50.5011 58.6066ZM68.4895 91.4685V70.7162L50.5011 81.0924L68.4895 91.4685ZM67.9865 69.8495L49.9981 80.2256V59.4733L67.9865 69.8495Z" fill="url(#paint0_linear)" fill-opacity="0.5"/>
<path fill-rule="evenodd" clip-rule="evenodd" d="M-9.49073 175V159.362L-10 159.07L-9.49073 158.779V137.06L-10 136.769L-9.49073 136.477V114.821H-9.49242V92.6254L-9.99546 92.3353L-9.49242 92.0451V70.1396L-9.99546 69.8495L-9.49242 69.5593V47.0803L10.4983 35L30.489 47.0803V69.5593L30.9921 69.8495L30.489 70.1396V92.0451L30.9921 92.3353L30.489 92.6254V114.181L30.4907 114.182V136.477L31 136.769L30.4907 137.06V158.779L31 159.07L30.4907 159.362V175H29.4912V159.933L10.9998 170.512V175H10.0002V170.512L-8.49119 159.933V175H-9.49073ZM29.4895 113.582L12.1618 103.197L29.4895 93.202V113.582ZM10.9981 102.5L11.1781 102.608L28.9865 92.3353L10.9981 81.9591V102.5ZM9.8202 102.609L9.99854 102.502V81.9591L-7.98985 92.3353L9.8202 102.609ZM10.0002 103.869L9.82987 103.771L-7.99953 114.457L10.0002 124.755V103.869ZM11.1685 103.77L10.9998 103.867V124.755L28.9995 114.457L11.1685 103.77ZM8.83659 103.198L-8.49289 93.202V113.584L8.83659 103.198ZM-8.49119 137.632V158.207L9.49096 147.919L-8.49119 137.632ZM-7.98192 136.769L10.0002 147.056V126.481L-7.98192 136.769ZM-8.49119 135.905L9.49096 125.618L-8.49119 115.33V135.905ZM11.509 125.618L29.4912 115.33V135.905L11.509 125.618ZM29.4912 158.207V137.632L11.509 147.919L29.4912 158.207ZM28.9819 159.07L10.9998 148.783V169.358L28.9819 159.07ZM-7.98192 159.07L10.0002 169.358V148.783L-7.98192 159.07ZM28.9819 136.769L10.9998 147.056V126.481L28.9819 136.769ZM9.4955 81.0924L-8.49289 70.7162V91.4685L9.4955 81.0924ZM-7.98985 69.8495L9.99854 80.2256V59.4733L-7.98985 69.8495ZM-8.49289 68.9827L9.4955 58.6066L-8.49289 48.2304V68.9827ZM9.99854 36.4728L-8.00727 47.3536L9.99854 57.7398V36.4728ZM10.9981 36.4728V57.7398L29.0039 47.3536L10.9981 36.4728ZM11.5011 58.6066L29.4895 48.2304V68.9827L11.5011 58.6066ZM29.4895 91.4685V70.7162L11.5011 81.0924L29.4895 91.4685ZM28.9865 69.8495L10.9981 80.2256V59.4733L28.9865 69.8495Z" fill="url(#paint1_linear)" fill-opacity="0.5"/>
<path fill-rule="evenodd" clip-rule="evenodd" d="M68.5093 175V159.362L68 159.07L68.5093 158.779V137.06L68 136.769L68.5093 136.477V114.821H68.5076V92.6254L68.0045 92.3353L68.5076 92.0451V70.1396L68.0045 69.8495L68.5076 69.5593V47.0803L88.4983 35L108.489 47.0803V69.5593L108.992 69.8495L108.489 70.1396V92.0451L108.992 92.3353L108.489 92.6254V114.181L108.491 114.182V136.477L109 136.769L108.491 137.06V158.779L109 159.07L108.491 159.362V175H107.491V159.933L88.9998 170.512V175H88.0002V170.512L69.5088 159.933V175H68.5093ZM107.49 113.582L90.1618 103.197L107.49 93.202V113.582ZM88.9981 102.5L89.1781 102.608L106.986 92.3353L88.9981 81.9591V102.5ZM87.8202 102.609L87.9985 102.502V81.9591L70.0102 92.3353L87.8202 102.609ZM88.0002 103.869L87.8299 103.771L70.0005 114.457L88.0002 124.755V103.869ZM89.1685 103.77L88.9998 103.867V124.755L107 114.457L89.1685 103.77ZM86.8366 103.198L69.5071 93.202V113.584L86.8366 103.198ZM69.5088 137.632V158.207L87.491 147.919L69.5088 137.632ZM70.0181 136.769L88.0002 147.056V126.481L70.0181 136.769ZM69.5088 135.905L87.491 125.618L69.5088 115.33V135.905ZM89.509 125.618L107.491 115.33V135.905L89.509 125.618ZM107.491 158.207V137.632L89.509 147.919L107.491 158.207ZM106.982 159.07L88.9998 148.783V169.358L106.982 159.07ZM70.0181 159.07L88.0002 169.358V148.783L70.0181 159.07ZM106.982 136.769L88.9998 147.056V126.481L106.982 136.769ZM87.4955 81.0924L69.5071 70.7162V91.4685L87.4955 81.0924ZM70.0102 69.8495L87.9985 80.2256V59.4733L70.0102 69.8495ZM69.5071 68.9827L87.4955 58.6066L69.5071 48.2304V68.9827ZM87.9985 36.4728L69.9927 47.3536L87.9985 57.7398V36.4728ZM88.9981 36.4728V57.7398L107.004 47.3536L88.9981 36.4728ZM89.5011 58.6066L107.49 48.2304V68.9827L89.5011 58.6066ZM107.49 91.4685V70.7162L89.5011 81.0924L107.49 91.4685ZM106.986 69.8495L88.9981 80.2256V59.4733L106.986 69.8495Z" fill="url(#paint2_linear)" fill-opacity="0.5"/>
<path fill-rule="evenodd" clip-rule="evenodd" d="M107.522 175V159.362L107 159.07L107.522 158.779V137.06L107 136.769L107.522 136.477V114.821H107.52V92.6254L107.005 92.3353L107.52 92.0451V70.1396L107.005 69.8495L107.52 69.5593V47.0803L127.998 35L148.477 47.0803V69.5593L148.992 69.8495L148.477 70.1396V92.0451L148.992 92.3353L148.477 92.6254V114.181L148.478 114.182V136.477L149 136.769L148.478 137.06V158.779V159.07V159.362V175H147.454V159.933L128.512 170.512V175H127.488V170.512L108.546 159.933V175H107.522ZM147.453 113.582L129.702 103.197L147.453 93.202V113.582ZM128.51 102.5L128.695 102.608L146.937 92.3353L128.51 81.9591V102.5ZM127.304 102.609L127.486 102.502V81.9591L109.059 92.3353L127.304 102.609ZM127.488 103.869L127.314 103.771L109.049 114.457L127.488 124.755V103.869ZM128.685 103.77L128.512 103.867V124.755L146.951 114.457L128.685 103.77ZM126.296 103.198L108.544 93.202V113.584L126.296 103.198ZM108.546 137.632V158.207L126.966 147.919L108.546 137.632ZM109.067 136.769L127.488 147.056V126.481L109.067 136.769ZM108.546 135.905L126.966 125.618L108.546 115.33V135.905ZM129.034 125.618L147.454 115.33V135.905L129.034 125.618ZM147.454 158.207V137.632L129.034 147.919L147.454 158.207ZM146.933 159.07L128.512 148.783V169.358L146.933 159.07ZM109.067 159.07L127.488 169.358V148.783L109.067 159.07ZM146.933 136.769L128.512 147.056V126.481L146.933 136.769ZM126.971 81.0924L108.544 70.7162V91.4685L126.971 81.0924ZM109.059 69.8495L127.486 80.2256V59.4733L109.059 69.8495ZM108.544 68.9827L126.971 58.6066L108.544 48.2304V68.9827ZM127.486 36.4728L109.041 47.3536L127.486 57.7398V36.4728ZM128.51 36.4728V57.7398L146.955 47.3536L128.51 36.4728ZM129.026 58.6066L147.453 48.2304V68.9827L129.026 58.6066ZM147.453 91.4685V70.7162L129.026 81.0924L147.453 91.4685ZM146.937 69.8495L128.51 80.2256V59.4733L146.937 69.8495Z" fill="url(#paint3_linear)" fill-opacity="0.5"/>
<path fill-rule="evenodd" clip-rule="evenodd" d="M147.522 175V159.362V159.07V158.779V137.06L147 136.769L147.522 136.477V114.821H147.52V92.6254L147.005 92.3353L147.52 92.0451V70.1396L147.005 69.8495L147.52 69.5593V47.0803L167.998 35L188.477 47.0803V69.5593L188.992 69.8495L188.477 70.1396V92.0451L188.992 92.3353L188.477 92.6254V114.181L188.478 114.182V136.477L189 136.769L188.478 137.06V158.779L189 159.07L188.478 159.362V175H187.454V159.933L168.512 170.512V175H167.488V170.512L148.546 159.933V175H147.522ZM187.453 113.582L169.702 103.197L187.453 93.202V113.582ZM168.51 102.5L168.695 102.608L186.937 92.3353L168.51 81.9591V102.5ZM167.304 102.609L167.486 102.502V81.9591L149.059 92.3353L167.304 102.609ZM167.488 103.869L167.314 103.771L149.049 114.457L167.488 124.755V103.869ZM168.685 103.77L168.512 103.867V124.755L186.951 114.457L168.685 103.77ZM166.296 103.198L148.544 93.202V113.584L166.296 103.198ZM148.546 137.632V158.207L166.966 147.919L148.546 137.632ZM149.067 136.769L167.488 147.056V126.481L149.067 136.769ZM148.546 135.905L166.966 125.618L148.546 115.33V135.905ZM169.034 125.618L187.454 115.33V135.905L169.034 125.618ZM187.454 158.207V137.632L169.034 147.919L187.454 158.207ZM186.933 159.07L168.512 148.783V169.358L186.933 159.07ZM149.067 159.07L167.488 169.358V148.783L149.067 159.07ZM186.933 136.769L168.512 147.056V126.481L186.933 136.769ZM166.971 81.0924L148.544 70.7162V91.4685L166.971 81.0924ZM149.059 69.8495L167.486 80.2256V59.4733L149.059 69.8495ZM148.544 68.9827L166.971 58.6066L148.544 48.2304V68.9827ZM167.486 36.4728L149.041 47.3536L167.486 57.7398V36.4728ZM168.51 36.4728V57.7398L186.955 47.3536L168.51 36.4728ZM169.026 58.6066L187.453 48.2304V68.9827L169.026 58.6066ZM187.453 91.4685V70.7162L169.026 81.0924L187.453 91.4685ZM186.937 69.8495L168.51 80.2256V59.4733L186.937 69.8495Z" fill="url(#paint4_linear)" fill-opacity="0.5"/>
<path fill-rule="evenodd" clip-rule="evenodd" d="M187.509 175V159.362L187 159.07L187.509 158.779V137.06L187 136.769L187.509 136.477V114.821H187.508V92.6254L187.005 92.3353L187.508 92.0451V70.1396L187.005 69.8495L187.508 69.5593V47.0803L207.498 35L227.489 47.0803V69.5593L227.992 69.8495L227.489 70.1396V92.0451L227.992 92.3353L227.489 92.6254V114.181L227.491 114.182V136.477L228 136.769L227.491 137.06V158.779L228 159.07L227.491 159.362V175H226.491V159.933L208 170.512V175H207V170.512L188.509 159.933V175H187.509ZM226.49 113.582L209.162 103.197L226.49 93.202V113.582ZM207.998 102.5L208.178 102.608L225.986 92.3353L207.998 81.9591V102.5ZM206.82 102.609L206.999 102.502V81.9591L189.01 92.3353L206.82 102.609ZM207 103.869L206.83 103.771L189 114.457L207 124.755V103.869ZM208.168 103.77L208 103.867V124.755L226 114.457L208.168 103.77ZM205.837 103.198L188.507 93.202V113.584L205.837 103.198ZM188.509 137.632V158.207L206.491 147.919L188.509 137.632ZM189.018 136.769L207 147.056V126.481L189.018 136.769ZM188.509 135.905L206.491 125.618L188.509 115.33V135.905ZM208.509 125.618L226.491 115.33V135.905L208.509 125.618ZM226.491 158.207V137.632L208.509 147.919L226.491 158.207ZM225.982 159.07L208 148.783V169.358L225.982 159.07ZM189.018 159.07L207 169.358V148.783L189.018 159.07ZM225.982 136.769L208 147.056V126.481L225.982 136.769ZM206.496 81.0924L188.507 70.7162V91.4685L206.496 81.0924ZM189.01 69.8495L206.999 80.2256V59.4733L189.01 69.8495ZM188.507 68.9827L206.496 58.6066L188.507 48.2304V68.9827ZM206.999 36.4728L188.993 47.3536L206.999 57.7398V36.4728ZM207.998 36.4728V57.7398L226.004 47.3536L207.998 36.4728ZM208.501 58.6066L226.49 48.2304V68.9827L208.501 58.6066ZM226.49 91.4685V70.7162L208.501 81.0924L226.49 91.4685ZM225.986 69.8495L207.998 80.2256V59.4733L225.986 69.8495Z" fill="url(#paint5_linear)" fill-opacity="0.5"/>
<path fill-rule="evenodd" clip-rule="evenodd" d="M226.509 175V159.362L226 159.07L226.509 158.779V137.06L226 136.769L226.509 136.477V114.821H226.508V92.6254L226.005 92.3353L226.508 92.0451V70.1396L226.005 69.8495L226.508 69.5593V47.0803L246.498 35L266.489 47.0803V69.5593L266.992 69.8495L266.489 70.1396V92.0451L266.992 92.3353L266.489 92.6254V114.181L266.491 114.182V136.477L267 136.769L266.491 137.06V158.779L267 159.07L266.491 159.362V175H265.491V159.933L247 170.512V175H246V170.512L227.509 159.933V175H226.509ZM265.49 113.582L248.162 103.197L265.49 93.202V113.582ZM246.998 102.5L247.178 102.608L264.986 92.3353L246.998 81.9591V102.5ZM245.82 102.609L245.999 102.502V81.9591L228.01 92.3353L245.82 102.609ZM246 103.869L245.83 103.771L228 114.457L246 124.755V103.869ZM247.168 103.77L247 103.867V124.755L265 114.457L247.168 103.77ZM244.837 103.198L227.507 93.202V113.584L244.837 103.198ZM227.509 137.632V158.207L245.491 147.919L227.509 137.632ZM228.018 136.769L246 147.056V126.481L228.018 136.769ZM227.509 135.905L245.491 125.618L227.509 115.33V135.905ZM247.509 125.618L265.491 115.33V135.905L247.509 125.618ZM265.491 158.207V137.632L247.509 147.919L265.491 158.207ZM264.982 159.07L247 148.783V169.358L264.982 159.07ZM228.018 159.07L246 169.358V148.783L228.018 159.07ZM264.982 136.769L247 147.056V126.481L264.982 136.769ZM245.496 81.0924L227.507 70.7162V91.4685L245.496 81.0924ZM228.01 69.8495L245.999 80.2256V59.4733L228.01 69.8495ZM227.507 68.9827L245.496 58.6066L227.507 48.2304V68.9827ZM245.999 36.4728L227.993 47.3536L245.999 57.7398V36.4728ZM246.998 36.4728V57.7398L265.004 47.3536L246.998 36.4728ZM247.501 58.6066L265.49 48.2304V68.9827L247.501 58.6066ZM265.49 91.4685V70.7162L247.501 81.0924L265.49 91.4685ZM264.986 69.8495L246.998 80.2256V59.4733L264.986 69.8495Z" fill="url(#paint6_linear)" fill-opacity="0.5"/>
<path fill-rule="evenodd" clip-rule="evenodd" d="M265.509 175V159.362L265 159.07L265.509 158.779V137.06L265 136.769L265.509 136.477V114.821H265.508V92.6254L265.005 92.3353L265.508 92.0451V70.1396L265.005 69.8495L265.508 69.5593V47.0803L285.498 35L305.489 47.0803V69.5593L305.992 69.8495L305.489 70.1396V92.0451L305.992 92.3353L305.489 92.6254V114.181L305.491 114.182V136.477L306 136.769L305.491 137.06V158.779L306 159.07L305.491 159.362V175H304.491V159.933L286 170.512V175H285V170.512L266.509 159.933V175H265.509ZM304.49 113.582L287.162 103.197L304.49 93.202V113.582ZM285.998 102.5L286.178 102.608L303.986 92.3353L285.998 81.9591V102.5ZM284.82 102.609L284.999 102.502V81.9591L267.01 92.3353L284.82 102.609ZM285 103.869L284.83 103.771L267 114.457L285 124.755V103.869ZM286.168 103.77L286 103.867V124.755L304 114.457L286.168 103.77ZM283.837 103.198L266.507 93.202V113.584L283.837 103.198ZM266.509 137.632V158.207L284.491 147.919L266.509 137.632ZM267.018 136.769L285 147.056V126.481L267.018 136.769ZM266.509 135.905L284.491 125.618L266.509 115.33V135.905ZM286.509 125.618L304.491 115.33V135.905L286.509 125.618ZM304.491 158.207V137.632L286.509 147.919L304.491 158.207ZM303.982 159.07L286 148.783V169.358L303.982 159.07ZM267.018 159.07L285 169.358V148.783L267.018 159.07ZM303.982 136.769L286 147.056V126.481L303.982 136.769ZM284.496 81.0924L266.507 70.7162V91.4685L284.496 81.0924ZM267.01 69.8495L284.999 80.2256V59.4733L267.01 69.8495ZM266.507 68.9827L284.496 58.6066L266.507 48.2304V68.9827ZM284.999 36.4728L266.993 47.3536L284.999 57.7398V36.4728ZM285.998 36.4728V57.7398L304.004 47.3536L285.998 36.4728ZM286.501 58.6066L304.49 48.2304V68.9827L286.501 58.6066ZM304.49 91.4685V70.7162L286.501 81.0924L304.49 91.4685ZM303.986 69.8495L285.998 80.2256V59.4733L303.986 69.8495Z" fill="url(#paint7_linear)" fill-opacity="0.5"/>
<path opacity="0.06" d="M127.904 102.947L108.312 92.1714C108.175 92.0962 108.173 91.9005 108.308 91.8227L127.9 80.5578C127.962 80.5223 128.038 80.5223 128.1 80.5578L147.692 91.8227C147.827 91.9005 147.825 92.0962 147.688 92.1714L128.096 102.947C128.036 102.98 127.964 102.98 127.904 102.947Z" stroke="url(#paint8_linear)"/>
<path opacity="0.8" d="M167.904 124.947L148.312 114.171C148.175 114.096 148.173 113.9 148.308 113.823L167.9 102.558C167.962 102.522 168.038 102.522 168.1 102.558L187.692 113.823C187.827 113.9 187.825 114.096 187.688 114.171L168.096 124.947C168.036 124.98 167.964 124.98 167.904 124.947Z" stroke="url(#paint9_linear)"/>
<path opacity="0.4" d="M265.904 91.947L246.312 81.1714C246.175 81.0962 246.173 80.9005 246.308 80.8227L265.9 69.5578C265.962 69.5223 266.038 69.5223 266.1 69.5578L285.692 80.8227C285.827 80.9005 285.825 81.0962 285.688 81.1714L266.096 91.947C266.036 91.98 265.964 91.98 265.904 91.947Z" fill="url(#paint10_linear)" stroke="url(#paint11_linear)" stroke-opacity="0.8"/>
<path d="M88.4017 125.445L69.302 114.67C69.1678 114.595 69.166 114.402 69.2986 114.324L88.3984 103.06C88.4611 103.023 88.5389 103.023 88.6016 103.06L107.701 114.324C107.834 114.402 107.832 114.595 107.698 114.67L88.5983 125.445C88.5373 125.479 88.4627 125.479 88.4017 125.445Z" stroke="url(#paint12_linear)"/>
<path opacity="0.7" d="M167.904 80.947L148.312 70.1714C148.175 70.0962 148.173 69.9005 148.308 69.8227L167.9 58.5578C167.962 58.5223 168.038 58.5223 168.1 58.5578L187.692 69.8227C187.827 69.9005 187.825 70.0962 187.688 70.1714L168.096 80.947C168.036 80.98 167.964 80.98 167.904 80.947Z" stroke="url(#paint13_linear)" stroke-opacity="0.8"/>
<path opacity="0.7" d="M207.4 103.442L188.3 92.4175C188.167 92.3405 188.167 92.148 188.3 92.071L207.4 81.0576C207.462 81.022 207.538 81.022 207.6 81.0576L226.7 92.071C226.833 92.148 226.833 92.3405 226.7 92.4175L207.6 103.442C207.538 103.478 207.462 103.478 207.4 103.442Z" stroke="url(#paint14_linear)" stroke-opacity="0.8"/>
<path d="M206.904 58.947L187.312 48.1714C187.175 48.0962 187.173 47.9005 187.308 47.8227L206.9 36.5578C206.962 36.5223 207.038 36.5223 207.1 36.5578L226.692 47.8227C226.827 47.9005 226.825 48.0962 226.688 48.1714L207.096 58.947C207.036 58.98 206.964 58.98 206.904 58.947Z" stroke="url(#paint15_linear)" stroke-opacity="0.5"/>
<path d="M246.404 34.447L226.812 23.6714C226.675 23.5962 226.673 23.4005 226.808 23.3227L246.4 12.0578C246.462 12.0223 246.538 12.0223 246.6 12.0578L266.192 23.3227C266.327 23.4005 266.325 23.5962 266.188 23.6714L246.596 34.447C246.536 34.48 246.464 34.48 246.404 34.447Z" stroke="url(#paint16_linear)" stroke-opacity="0.3"/>
<path d="M285.904 34.447L266.312 23.6714C266.175 23.5962 266.173 23.4005 266.308 23.3227L285.9 12.0578C285.962 12.0223 286.038 12.0223 286.1 12.0578L305.692 23.3227C305.827 23.4005 305.825 23.5962 305.688 23.6714L286.096 34.447C286.036 34.48 285.964 34.48 285.904 34.447Z" stroke="url(#paint17_linear)" stroke-opacity="0.3"/>
<path d="M49.403 34.4453L30.302 23.6703C30.1678 23.5947 30.166 23.4021 30.2987 23.3239L49.3997 12.0597C49.4617 12.0231 49.5386 12.0227 49.601 12.0585L69.1917 23.3227C69.3269 23.4005 69.3251 23.5962 69.1884 23.6714L49.5976 34.4463C49.5369 34.4797 49.4633 34.4793 49.403 34.4453Z" stroke="url(#paint18_linear)" stroke-opacity="0.3"/>
<path d="M10.9011 34.4456L-8.68841 23.6714C-8.82508 23.5962 -8.82693 23.4005 -8.69172 23.3227L10.8977 12.0593C10.9608 12.023 11.0387 12.0239 11.101 12.0616L29.711 23.3251C29.841 23.4038 29.8392 23.5931 29.7076 23.6693L11.0977 34.4434C11.0371 34.4785 10.9625 34.4794 10.9011 34.4456Z" stroke="url(#paint19_linear)" stroke-opacity="0.3"/>
<path d="M9.90362 58.4465L-9.68841 47.6709C-9.82508 47.5957 -9.82693 47.4 -9.69172 47.3223L9.90031 36.0573C9.96203 36.0218 10.038 36.0218 10.0997 36.0573L29.6917 47.3223C29.8269 47.4 29.8251 47.5957 29.6884 47.6709L10.0964 58.4465C10.0364 58.4795 9.96363 58.4795 9.90362 58.4465Z" stroke="url(#paint20_linear)" stroke-opacity="0.3"/>
<path d="M285.904 58.4465L266.312 47.6709C266.175 47.5957 266.173 47.4 266.308 47.3223L285.9 36.0573C285.962 36.0218 286.038 36.0218 286.1 36.0573L305.692 47.3223C305.827 47.4 305.825 47.5957 305.688 47.6709L286.096 58.4465C286.036 58.4795 285.964 58.4795 285.904 58.4465Z" stroke="url(#paint21_linear)" stroke-opacity="0.3"/>
<path opacity="0.4" d="M30.4017 92.4446L11.302 81.6703C11.1678 81.5947 11.166 81.4021 11.2986 81.3239L30.3984 70.0599C30.4611 70.0229 30.5389 70.0229 30.6016 70.0599L49.7014 81.3239C49.834 81.4021 49.8322 81.5947 49.698 81.6703L30.5983 92.4446C30.5373 92.479 30.4627 92.479 30.4017 92.4446Z" fill="url(#paint22_linear)" stroke="url(#paint23_linear)"/>
<path opacity="0.7" d="M88.4017 80.9446L69.302 70.1703C69.1678 70.0947 69.166 69.9021 69.2986 69.8239L88.3984 58.5599C88.4611 58.5229 88.5389 58.5229 88.6016 58.5599L107.701 69.8239C107.834 69.9021 107.832 70.0947 107.698 70.1703L88.5983 80.9446C88.5373 80.979 88.4627 80.979 88.4017 80.9446Z" stroke="url(#paint24_linear)" stroke-opacity="0.7"/>
<path d="M128.402 58.9446L109.302 48.1703C109.168 48.0947 109.166 47.9021 109.299 47.8239L128.398 36.5599C128.461 36.5229 128.539 36.5229 128.602 36.5599L147.701 47.8239C147.834 47.9021 147.832 48.0947 147.698 48.1703L128.598 58.9446C128.537 58.979 128.463 58.979 128.402 58.9446Z" stroke="url(#paint25_linear)" stroke-opacity="0.5"/>
<path opacity="0.7" d="M128.402 147.945L109.302 137.17C109.168 137.095 109.166 136.902 109.299 136.824L128.398 125.56C128.461 125.523 128.539 125.523 128.602 125.56L147.701 136.824C147.834 136.902 147.832 137.095 147.698 137.17L128.598 147.945C128.537 147.979 128.463 147.979 128.402 147.945Z" fill="url(#paint26_linear)" stroke="url(#paint27_linear)"/>
<path opacity="0.7" d="M167.904 169.947L148.319 159.175C148.18 159.099 148.18 158.901 148.319 158.825L167.904 148.053C167.964 148.02 168.036 148.02 168.096 148.053L187.681 158.825C187.82 158.901 187.82 159.099 187.681 159.175L168.096 169.947C168.036 169.98 167.964 169.98 167.904 169.947Z" stroke="url(#paint28_linear)"/>
<path d="M88.4017 169.945L69.3088 159.174C69.1732 159.098 69.1732 158.902 69.3088 158.826L88.4017 148.055C88.4627 148.021 88.5373 148.021 88.5983 148.055L107.691 158.826C107.827 158.902 107.827 159.098 107.691 159.174L88.5983 169.945C88.5373 169.979 88.4627 169.979 88.4017 169.945Z" fill="url(#paint29_linear)" stroke="url(#paint30_linear)"/>
<path d="M49.4017 147.945L30.3088 137.174C30.1732 137.098 30.1732 136.902 30.3088 136.826L49.4017 126.055C49.4627 126.021 49.5373 126.021 49.5983 126.055L68.6912 136.826C68.8268 136.902 68.8268 137.098 68.6912 137.174L49.5983 147.945C49.5373 147.979 49.4627 147.979 49.4017 147.945Z" fill="url(#paint31_linear)" stroke="url(#paint32_linear)"/>
<path opacity="0.6" d="M246.904 169.947L227.319 159.175C227.18 159.099 227.18 158.901 227.319 158.825L246.904 148.053C246.964 148.02 247.036 148.02 247.096 148.053L266.681 158.825C266.82 158.901 266.82 159.099 266.681 159.175L247.096 169.947C247.036 169.98 246.964 169.98 246.904 169.947Z" fill="url(#paint33_linear)" stroke="url(#paint34_linear)"/>
<path d="M207.904 147.947L188.319 137.175C188.18 137.099 188.18 136.901 188.319 136.825L207.904 126.053C207.964 126.02 208.036 126.02 208.096 126.053L227.681 136.825C227.82 136.901 227.82 137.099 227.681 137.175L208.096 147.947C208.036 147.98 207.964 147.98 207.904 147.947Z" fill="url(#paint35_linear)" stroke="url(#paint36_linear)"/>
<path opacity="0.6" d="M246.402 125.445L227.302 114.67C227.168 114.595 227.166 114.402 227.299 114.324L246.398 103.06C246.461 103.023 246.539 103.023 246.602 103.06L265.701 114.324C265.834 114.402 265.832 114.595 265.698 114.67L246.598 125.445C246.537 125.479 246.463 125.479 246.402 125.445Z" fill="url(#paint37_linear)" stroke="url(#paint38_linear)"/>
</g>
</g>
<line x1="266.5" y1="24" x2="266.5" y2="47" stroke="#093E5E"/>
<line x1="266.5" y1="-2.18557e-08" x2="266.5" y2="23" stroke="url(#paint39_linear)"/>
<path d="M69 24V47" stroke="#093E5E"/>
<line x1="226.5" y1="24" x2="226.5" y2="47" stroke="#093E5E"/>
<path d="M30 24V47" stroke="#093E5E"/>
<path d="M30 0.5L30 23" stroke="url(#paint40_linear)"/>
<line x1="49.5" y1="1" x2="49.5" y2="35" stroke="url(#paint41_linear)"/>
<line x1="11" y1="12" x2="11" y2="35" stroke="#093E5E"/>
<g opacity="0.9">
<path opacity="0.96" d="M115.197 79.51C115.438 79.51 115.622 79.586 115.748 79.738C115.888 79.8773 115.957 80.0673 115.957 80.308V92.335C115.957 92.563 115.894 92.7467 115.767 92.886C115.641 93.0253 115.463 93.095 115.235 93.095C115.007 93.095 114.836 93.0253 114.722 92.886C114.608 92.7467 114.551 92.563 114.551 92.335V82.626L110.428 90.53C110.251 90.8973 109.991 91.081 109.649 91.081C109.32 91.081 109.06 90.8973 108.87 90.53L104.728 82.721V92.335C104.728 92.563 104.665 92.7467 104.538 92.886C104.424 93.0253 104.253 93.095 104.025 93.095C103.797 93.095 103.62 93.0253 103.493 92.886C103.367 92.7467 103.303 92.563 103.303 92.335V80.308C103.303 80.0673 103.373 79.8773 103.512 79.738C103.652 79.586 103.842 79.51 104.082 79.51C104.399 79.51 104.652 79.6937 104.842 80.061L109.668 89.314L114.437 80.061C114.539 79.8583 114.646 79.719 114.76 79.643C114.887 79.5543 115.033 79.51 115.197 79.51ZM120.03 93.095C119.802 93.095 119.612 93.0317 119.46 92.905C119.321 92.7657 119.251 92.5757 119.251 92.335V84.317C119.251 84.0763 119.321 83.8927 119.46 83.766C119.612 83.6267 119.802 83.557 120.03 83.557C120.258 83.557 120.442 83.6267 120.581 83.766C120.72 83.8927 120.79 84.0763 120.79 84.317V92.335C120.79 92.5883 120.72 92.7783 120.581 92.905C120.442 93.0317 120.258 93.095 120.03 93.095ZM120.03 81.562C119.726 81.562 119.479 81.4733 119.289 81.296C119.099 81.1187 119.004 80.8843 119.004 80.593C119.004 80.3143 119.099 80.0863 119.289 79.909C119.479 79.7317 119.726 79.643 120.03 79.643C120.334 79.643 120.581 79.7317 120.771 79.909C120.961 80.0863 121.056 80.3143 121.056 80.593C121.056 80.8843 120.961 81.1187 120.771 81.296C120.581 81.4733 120.334 81.562 120.03 81.562ZM131.467 91.822C131.619 91.974 131.695 92.1577 131.695 92.373C131.695 92.563 131.625 92.7277 131.486 92.867C131.347 93.0063 131.182 93.076 130.992 93.076C130.789 93.076 130.606 92.9873 130.441 92.81L127.363 89.295L124.304 92.81C124.139 92.9873 123.956 93.076 123.753 93.076C123.563 93.076 123.392 93.0063 123.24 92.867C123.101 92.7277 123.031 92.5567 123.031 92.354C123.031 92.164 123.107 91.9867 123.259 91.822L126.413 88.269L123.392 84.83C123.24 84.6527 123.164 84.4753 123.164 84.298C123.164 84.0953 123.234 83.9243 123.373 83.785C123.525 83.6457 123.69 83.576 123.867 83.576C124.07 83.576 124.253 83.6647 124.418 83.842L127.363 87.224L130.308 83.842C130.473 83.6647 130.656 83.576 130.859 83.576C131.049 83.576 131.214 83.6457 131.353 83.785C131.492 83.9243 131.562 84.089 131.562 84.279C131.562 84.4943 131.486 84.678 131.334 84.83L128.313 88.269L131.467 91.822ZM134.68 93.095C134.452 93.095 134.262 93.0317 134.11 92.905C133.971 92.7657 133.901 92.5757 133.901 92.335V84.317C133.901 84.0763 133.971 83.8927 134.11 83.766C134.262 83.6267 134.452 83.557 134.68 83.557C134.908 83.557 135.092 83.6267 135.231 83.766C135.37 83.8927 135.44 84.0763 135.44 84.317V92.335C135.44 92.5883 135.37 92.7783 135.231 92.905C135.092 93.0317 134.908 93.095 134.68 93.095ZM134.68 81.562C134.376 81.562 134.129 81.4733 133.939 81.296C133.749 81.1187 133.654 80.8843 133.654 80.593C133.654 80.3143 133.749 80.0863 133.939 79.909C134.129 79.7317 134.376 79.643 134.68 79.643C134.984 79.643 135.231 79.7317 135.421 79.909C135.611 80.0863 135.706 80.3143 135.706 80.593C135.706 80.8843 135.611 81.1187 135.421 81.296C135.231 81.4733 134.984 81.562 134.68 81.562ZM143.172 83.519C145.389 83.519 146.497 84.7413 146.497 87.186V92.335C146.497 92.5757 146.427 92.7657 146.288 92.905C146.161 93.0317 145.978 93.095 145.737 93.095C145.496 93.095 145.306 93.0317 145.167 92.905C145.028 92.7657 144.958 92.5757 144.958 92.335V87.281C144.958 86.4197 144.787 85.7927 144.445 85.4C144.116 85.0073 143.584 84.811 142.849 84.811C142 84.811 141.323 85.0707 140.816 85.59C140.309 86.1093 140.056 86.8123 140.056 87.699V92.335C140.056 92.5757 139.986 92.7657 139.847 92.905C139.72 93.0317 139.537 93.095 139.296 93.095C139.055 93.095 138.865 93.0317 138.726 92.905C138.587 92.7657 138.517 92.5757 138.517 92.335V84.317C138.517 84.089 138.587 83.9053 138.726 83.766C138.865 83.6267 139.055 83.557 139.296 83.557C139.524 83.557 139.701 83.6267 139.828 83.766C139.967 83.9053 140.037 84.0827 140.037 84.298V85.267C140.341 84.697 140.765 84.2663 141.31 83.975C141.855 83.671 142.475 83.519 143.172 83.519ZM164.855 79.51C165.083 79.51 165.261 79.586 165.387 79.738C165.514 79.8773 165.577 80.0673 165.577 80.308V92.297C165.577 92.5377 165.508 92.734 165.368 92.886C165.242 93.0253 165.058 93.095 164.817 93.095C164.577 93.095 164.368 92.9873 164.19 92.772L156.305 82.227V92.297C156.305 92.5377 156.236 92.734 156.096 92.886C155.97 93.0253 155.792 93.095 155.564 93.095C155.336 93.095 155.159 93.0253 155.032 92.886C154.906 92.734 154.842 92.5377 154.842 92.297V80.308C154.842 80.0673 154.906 79.8773 155.032 79.738C155.172 79.586 155.362 79.51 155.602 79.51C155.856 79.51 156.071 79.6177 156.248 79.833L164.114 90.378V80.308C164.114 80.0673 164.178 79.8773 164.304 79.738C164.444 79.586 164.627 79.51 164.855 79.51ZM176.023 90.853C176.162 90.853 176.283 90.91 176.384 91.024C176.485 91.138 176.536 91.2837 176.536 91.461C176.536 91.7777 176.314 92.069 175.871 92.335C175.415 92.601 174.934 92.8037 174.427 92.943C173.92 93.0697 173.426 93.133 172.945 93.133C171.514 93.133 170.38 92.7087 169.544 91.86C168.721 91.0113 168.309 89.8397 168.309 88.345C168.309 87.395 168.493 86.559 168.86 85.837C169.227 85.1023 169.74 84.5323 170.399 84.127C171.07 83.7217 171.83 83.519 172.679 83.519C173.882 83.519 174.839 83.9117 175.548 84.697C176.257 85.4823 176.612 86.5463 176.612 87.889C176.612 88.1423 176.561 88.326 176.46 88.44C176.359 88.554 176.194 88.611 175.966 88.611H169.848C169.962 90.7897 170.994 91.879 172.945 91.879C173.439 91.879 173.863 91.8157 174.218 91.689C174.573 91.5497 174.953 91.366 175.358 91.138C175.687 90.948 175.909 90.853 176.023 90.853ZM172.698 84.716C171.887 84.716 171.235 84.9693 170.741 85.476C170.26 85.9827 169.975 86.6983 169.886 87.623H175.263C175.238 86.6857 175.003 85.97 174.56 85.476C174.117 84.9693 173.496 84.716 172.698 84.716ZM183.299 91.879C183.742 91.917 183.964 92.1197 183.964 92.487C183.964 92.7023 183.882 92.867 183.717 92.981C183.565 93.0823 183.331 93.1203 183.014 93.095L182.501 93.057C181.488 92.981 180.74 92.677 180.259 92.145C179.778 91.613 179.537 90.8087 179.537 89.732V84.963H178.264C178.049 84.963 177.878 84.9123 177.751 84.811C177.637 84.697 177.58 84.5513 177.58 84.374C177.58 84.184 177.637 84.032 177.751 83.918C177.878 83.804 178.049 83.747 178.264 83.747H179.537V81.6C179.537 81.3593 179.607 81.1757 179.746 81.049C179.885 80.9097 180.075 80.84 180.316 80.84C180.544 80.84 180.728 80.9097 180.867 81.049C181.006 81.1757 181.076 81.3593 181.076 81.6V83.747H183.185C183.388 83.747 183.546 83.804 183.66 83.918C183.787 84.032 183.85 84.184 183.85 84.374C183.85 84.5513 183.787 84.697 183.66 84.811C183.546 84.9123 183.388 84.963 183.185 84.963H181.076V89.808C181.076 90.5047 181.215 91.0113 181.494 91.328C181.785 91.632 182.216 91.803 182.786 91.841L183.299 91.879ZM198.446 84.051C198.573 83.747 198.782 83.595 199.073 83.595C199.263 83.595 199.434 83.6583 199.586 83.785C199.738 83.9117 199.814 84.07 199.814 84.26C199.814 84.3487 199.795 84.4437 199.757 84.545L196.603 92.525C196.527 92.6897 196.413 92.8227 196.261 92.924C196.122 93.0127 195.964 93.057 195.786 93.057C195.622 93.057 195.463 93.0127 195.311 92.924C195.172 92.8227 195.064 92.6897 194.988 92.525L192.366 85.856L189.763 92.525C189.7 92.6897 189.592 92.8227 189.44 92.924C189.288 93.0127 189.124 93.057 188.946 93.057C188.782 93.057 188.623 93.0127 188.471 92.924C188.319 92.8227 188.205 92.6897 188.129 92.525L184.975 84.564C184.937 84.4627 184.918 84.374 184.918 84.298C184.918 84.0953 185.001 83.9243 185.165 83.785C185.343 83.6457 185.533 83.576 185.735 83.576C186.039 83.576 186.255 83.728 186.381 84.032L188.984 91.043L191.663 84.089C191.739 83.9243 191.841 83.7977 191.967 83.709C192.107 83.6203 192.252 83.576 192.404 83.576C192.569 83.576 192.715 83.6203 192.841 83.709C192.981 83.7977 193.082 83.9243 193.145 84.089L195.824 91.024L198.446 84.051ZM205.713 93.133C204.839 93.133 204.067 92.9367 203.395 92.544C202.737 92.1513 202.224 91.594 201.856 90.872C201.502 90.1373 201.324 89.2887 201.324 88.326C201.324 87.3633 201.502 86.521 201.856 85.799C202.224 85.0643 202.737 84.5007 203.395 84.108C204.067 83.7153 204.839 83.519 205.713 83.519C206.587 83.519 207.36 83.7153 208.031 84.108C208.703 84.5007 209.216 85.0643 209.57 85.799C209.938 86.521 210.121 87.3633 210.121 88.326C210.121 89.2887 209.938 90.1373 209.57 90.872C209.216 91.594 208.703 92.1513 208.031 92.544C207.36 92.9367 206.587 93.133 205.713 93.133ZM205.713 91.86C206.625 91.86 207.322 91.5623 207.803 90.967C208.297 90.359 208.544 89.4787 208.544 88.326C208.544 87.1987 208.297 86.331 207.803 85.723C207.309 85.1023 206.613 84.792 205.713 84.792C204.814 84.792 204.117 85.1023 203.623 85.723C203.129 86.331 202.882 87.1987 202.882 88.326C202.882 89.466 203.123 90.34 203.604 90.948C204.098 91.556 204.801 91.86 205.713 91.86ZM217.193 83.557C217.725 83.519 217.991 83.7343 217.991 84.203C217.991 84.4057 217.934 84.5703 217.82 84.697C217.706 84.811 217.51 84.8807 217.231 84.906L216.661 84.963C215.813 85.039 215.179 85.343 214.761 85.875C214.356 86.3943 214.153 87.0087 214.153 87.718V92.335C214.153 92.5883 214.084 92.7783 213.944 92.905C213.805 93.0317 213.621 93.095 213.393 93.095C213.165 93.095 212.975 93.0317 212.823 92.905C212.684 92.7657 212.614 92.5757 212.614 92.335V84.317C212.614 84.0763 212.69 83.8927 212.842 83.766C212.994 83.6267 213.178 83.557 213.393 83.557C213.596 83.557 213.767 83.6267 213.906 83.766C214.046 83.8927 214.115 84.07 214.115 84.298V85.362C214.381 84.8047 214.755 84.3803 215.236 84.089C215.73 83.7977 216.294 83.6267 216.927 83.576L217.193 83.557ZM226.904 91.784C227.106 91.974 227.208 92.1767 227.208 92.392C227.208 92.582 227.138 92.7467 226.999 92.886C226.872 93.0253 226.714 93.095 226.524 93.095C226.359 93.095 226.188 93.019 226.011 92.867L221.052 88.592V92.335C221.052 92.5757 220.976 92.7657 220.824 92.905C220.684 93.0317 220.507 93.095 220.292 93.095C220.064 93.095 219.874 93.0317 219.722 92.905C219.582 92.7657 219.513 92.5757 219.513 92.335V80.27C219.513 80.0293 219.582 79.8457 219.722 79.719C219.874 79.5797 220.064 79.51 220.292 79.51C220.507 79.51 220.684 79.5797 220.824 79.719C220.976 79.8457 221.052 80.0293 221.052 80.27V87.984L225.593 83.823C225.745 83.671 225.916 83.595 226.106 83.595C226.296 83.595 226.46 83.6647 226.6 83.804C226.739 83.9433 226.809 84.108 226.809 84.298C226.809 84.5133 226.72 84.7033 226.543 84.868L222.8 88.212L226.904 91.784Z" fill="white"/>
<g opacity="0.96">
<path d="M61.4004 81.3381V91.1855C61.4004 91.7593 61.0112 92.292 60.3724 92.5928L57.6461 93.8761C56.9265 94.2149 56 93.8188 56 93.1725V79.51C56 78.8848 56.8726 78.4861 57.5921 78.7825L60.2644 79.8832C60.9641 80.1714 61.4004 80.7302 61.4004 81.3381Z" stroke="white"/>
<path d="M76.2505 81.3381V91.1855C76.2505 91.7593 76.6397 92.292 77.2785 92.5928L80.0047 93.8761C80.7244 94.2149 81.6509 93.8188 81.6509 93.1725V79.51C81.6509 78.8848 80.7783 78.4861 80.0587 78.7825L77.3865 79.8832C76.6868 80.1714 76.2505 80.7302 76.2505 81.3381Z" stroke="white"/>
<path d="M64.1006 84.4091V88.2727C64.1006 88.9451 64.497 89.561 65.1275 89.868L67.9627 91.2488C68.5046 91.5127 69.1473 91.5127 69.6891 91.2488L72.5243 89.868C73.1548 89.561 73.5513 88.9451 73.5513 88.2727V84.4091C73.5513 83.7367 73.1548 83.1208 72.5243 82.8138L69.6891 81.433C69.1473 81.1691 68.5046 81.1691 67.9627 81.433L65.1275 82.8138C64.497 83.1208 64.1006 83.7367 64.1006 84.4091Z" stroke="white"/>
</g>
<path d="M93.1504 78.5V93.5" stroke="white" stroke-opacity="0.8" stroke-linecap="round"/>
</g>
<defs>
<linearGradient id="paint0_linear" x1="49.4995" y1="175" x2="49.4995" y2="35.002" gradientUnits="userSpaceOnUse">
<stop stop-color="#34CDC8"/>
<stop offset="0.44602" stop-color="#34CDC8" stop-opacity="0.36"/>
<stop offset="1" stop-color="#34CDC8" stop-opacity="0.25"/>
</linearGradient>
<linearGradient id="paint1_linear" x1="10.4995" y1="175" x2="10.4995" y2="35.002" gradientUnits="userSpaceOnUse">
<stop stop-color="#34CDC8"/>
<stop offset="0.44602" stop-color="#34CDC8" stop-opacity="0.36"/>
<stop offset="1" stop-color="#34CDC8" stop-opacity="0"/>
</linearGradient>
<linearGradient id="paint2_linear" x1="88.4995" y1="175" x2="88.4995" y2="35.002" gradientUnits="userSpaceOnUse">
<stop stop-color="#34CDC8"/>
<stop offset="0.0001" stop-color="#34CDC8" stop-opacity="0.57"/>
<stop offset="1" stop-color="#34CDC8" stop-opacity="0"/>
</linearGradient>
<linearGradient id="paint3_linear" x1="128" y1="175" x2="128" y2="35.002" gradientUnits="userSpaceOnUse">
<stop stop-color="#34CDC8"/>
<stop offset="0.0001" stop-color="#34CDC8" stop-opacity="0.57"/>
<stop offset="1" stop-color="#34CDC8" stop-opacity="0"/>
</linearGradient>
<linearGradient id="paint4_linear" x1="168" y1="175" x2="168" y2="35.002" gradientUnits="userSpaceOnUse">
<stop stop-color="#34CDC8" stop-opacity="0.73"/>
<stop offset="0.44602" stop-color="#34CDC8" stop-opacity="0.36"/>
<stop offset="1" stop-color="#34CDC8" stop-opacity="0"/>
</linearGradient>
<linearGradient id="paint5_linear" x1="207.5" y1="175" x2="207.5" y2="35.002" gradientUnits="userSpaceOnUse">
<stop stop-color="#34CDC8"/>
<stop offset="0.0001" stop-color="#34CDC8" stop-opacity="0.57"/>
<stop offset="1" stop-color="#34CDC8" stop-opacity="0"/>
</linearGradient>
<linearGradient id="paint6_linear" x1="246.5" y1="175" x2="246.5" y2="35.002" gradientUnits="userSpaceOnUse">
<stop stop-color="#34CDC8"/>
<stop offset="0.44602" stop-color="#34CDC8" stop-opacity="0.36"/>
<stop offset="1" stop-color="#34CDC8" stop-opacity="0.25"/>
</linearGradient>
<linearGradient id="paint7_linear" x1="285.5" y1="175" x2="285.5" y2="35.002" gradientUnits="userSpaceOnUse">
<stop stop-color="#34CDC8"/>
<stop offset="0.44602" stop-color="#34CDC8" stop-opacity="0.36"/>
<stop offset="1" stop-color="#34CDC8" stop-opacity="0"/>
</linearGradient>
<linearGradient id="paint8_linear" x1="127.5" y1="103.5" x2="127.5" y2="81" gradientUnits="userSpaceOnUse">
<stop stop-color="#00ADA3" stop-opacity="0.67"/>
<stop offset="1" stop-color="#00ADA3" stop-opacity="0.49"/>
</linearGradient>
<linearGradient id="paint9_linear" x1="167.5" y1="125.5" x2="167.5" y2="103" gradientUnits="userSpaceOnUse">
<stop stop-color="#00ADA3" stop-opacity="0.67"/>
<stop offset="1" stop-color="#00ADA3" stop-opacity="0.49"/>
</linearGradient>
<linearGradient id="paint10_linear" x1="266" y1="92" x2="266" y2="69.5005" gradientUnits="userSpaceOnUse">
<stop stop-color="#3EFFDC" stop-opacity="0.37"/>
<stop offset="1" stop-color="#3EAEFF" stop-opacity="0"/>
</linearGradient>
<linearGradient id="paint11_linear" x1="265.5" y1="91.9889" x2="265.5" y2="69.9889" gradientUnits="userSpaceOnUse">
<stop stop-color="#00ADA3" stop-opacity="0.67"/>
<stop offset="1" stop-color="#00ADA3" stop-opacity="0.49"/>
</linearGradient>
<linearGradient id="paint12_linear" x1="88.5" y1="125.5" x2="88.5" y2="103" gradientUnits="userSpaceOnUse">
<stop stop-color="#00ADA3" stop-opacity="0.67"/>
<stop offset="1" stop-color="#00ADA3" stop-opacity="0.49"/>
</linearGradient>
<linearGradient id="paint13_linear" x1="167.5" y1="81.5" x2="167.5" y2="59" gradientUnits="userSpaceOnUse">
<stop stop-color="#00ADA3" stop-opacity="0.67"/>
<stop offset="1" stop-color="#00ADA3" stop-opacity="0.49"/>
</linearGradient>
<linearGradient id="paint14_linear" x1="207.013" y1="103.489" x2="207.013" y2="81.4884" gradientUnits="userSpaceOnUse">
<stop stop-color="#00ADA3" stop-opacity="0.67"/>
<stop offset="1" stop-color="#00ADA3" stop-opacity="0.49"/>
</linearGradient>
<linearGradient id="paint15_linear" x1="206.5" y1="59.5" x2="206.5" y2="37" gradientUnits="userSpaceOnUse">
<stop stop-color="#00ADA3" stop-opacity="0.67"/>
<stop offset="1" stop-color="#00ADA3" stop-opacity="0.49"/>
</linearGradient>
<linearGradient id="paint16_linear" x1="245.5" y1="35" x2="245.5" y2="12.5" gradientUnits="userSpaceOnUse">
<stop stop-color="#00ADA3" stop-opacity="0.67"/>
<stop offset="1" stop-color="#00ADA3" stop-opacity="0.49"/>
</linearGradient>
<linearGradient id="paint17_linear" x1="285" y1="35" x2="285" y2="12.5" gradientUnits="userSpaceOnUse">
<stop stop-color="#00ADA3" stop-opacity="0.67"/>
<stop offset="1" stop-color="#00ADA3" stop-opacity="0.49"/>
</linearGradient>
<linearGradient id="paint18_linear" x1="48.5" y1="35" x2="48.5" y2="12.5" gradientUnits="userSpaceOnUse">
<stop stop-color="#00ADA3" stop-opacity="0.67"/>
<stop offset="1" stop-color="#00ADA3" stop-opacity="0.49"/>
</linearGradient>
<linearGradient id="paint19_linear" x1="10" y1="35" x2="10" y2="12.5" gradientUnits="userSpaceOnUse">
<stop stop-color="#00ADA3" stop-opacity="0.67"/>
<stop offset="1" stop-color="#00ADA3" stop-opacity="0.49"/>
</linearGradient>
<linearGradient id="paint20_linear" x1="9" y1="58.9995" x2="9" y2="36.4995" gradientUnits="userSpaceOnUse">
<stop stop-color="#00ADA3" stop-opacity="0.67"/>
<stop offset="1" stop-color="#00ADA3" stop-opacity="0.49"/>
</linearGradient>
<linearGradient id="paint21_linear" x1="285.5" y1="58.9995" x2="285.5" y2="36.4995" gradientUnits="userSpaceOnUse">
<stop stop-color="#00ADA3" stop-opacity="0.67"/>
<stop offset="1" stop-color="#00ADA3" stop-opacity="0.49"/>
</linearGradient>
<linearGradient id="paint22_linear" x1="30.5" y1="92.5" x2="30.5" y2="70" gradientUnits="userSpaceOnUse">
<stop stop-color="#3EFFDC" stop-opacity="0.37"/>
<stop offset="1" stop-color="#3EAEFF" stop-opacity="0"/>
</linearGradient>
<linearGradient id="paint23_linear" x1="30.5" y1="92.5" x2="30.5" y2="70" gradientUnits="userSpaceOnUse">
<stop stop-color="#00ADA3" stop-opacity="0.67"/>
<stop offset="1" stop-color="#00ADA3" stop-opacity="0.49"/>
</linearGradient>
<linearGradient id="paint24_linear" x1="88.5" y1="81" x2="88.5" y2="58.5" gradientUnits="userSpaceOnUse">
<stop stop-color="#00ADA3" stop-opacity="0.67"/>
<stop offset="1" stop-color="#00ADA3" stop-opacity="0.49"/>
</linearGradient>
<linearGradient id="paint25_linear" x1="128.5" y1="59" x2="128.5" y2="36.5" gradientUnits="userSpaceOnUse">
<stop stop-color="#00ADA3" stop-opacity="0.67"/>
<stop offset="1" stop-color="#00ADA3" stop-opacity="0.49"/>
</linearGradient>
<linearGradient id="paint26_linear" x1="128.5" y1="148" x2="128.5" y2="125.5" gradientUnits="userSpaceOnUse">
<stop stop-color="#3EFFDC" stop-opacity="0.37"/>
<stop offset="1" stop-color="#3EAEFF" stop-opacity="0"/>
</linearGradient>
<linearGradient id="paint27_linear" x1="128.5" y1="148" x2="128.5" y2="125.5" gradientUnits="userSpaceOnUse">
<stop stop-color="#05D093" stop-opacity="0.67"/>
<stop offset="1" stop-color="#07DED1" stop-opacity="0.66"/>
</linearGradient>
<linearGradient id="paint28_linear" x1="168" y1="170" x2="168" y2="148" gradientUnits="userSpaceOnUse">
<stop stop-color="#05D093" stop-opacity="0.67"/>
<stop offset="1" stop-color="#07DED1" stop-opacity="0.66"/>
</linearGradient>
<linearGradient id="paint29_linear" x1="88.5" y1="170" x2="88.5" y2="148" gradientUnits="userSpaceOnUse">
<stop stop-color="#3EFFDC" stop-opacity="0.37"/>
<stop offset="1" stop-color="#3EAEFF" stop-opacity="0"/>
</linearGradient>
<linearGradient id="paint30_linear" x1="88" y1="170" x2="88" y2="148" gradientUnits="userSpaceOnUse">
<stop stop-color="#05D093" stop-opacity="0.67"/>
<stop offset="1" stop-color="#07DED1" stop-opacity="0.66"/>
</linearGradient>
<linearGradient id="paint31_linear" x1="49.5" y1="148" x2="49.5" y2="126" gradientUnits="userSpaceOnUse">
<stop stop-color="#3EFFDC" stop-opacity="0.37"/>
<stop offset="1" stop-color="#3EAEFF" stop-opacity="0"/>
</linearGradient>
<linearGradient id="paint32_linear" x1="49" y1="148" x2="49" y2="126" gradientUnits="userSpaceOnUse">
<stop stop-color="#05D093" stop-opacity="0.67"/>
<stop offset="1" stop-color="#07DED1" stop-opacity="0.66"/>
</linearGradient>
<linearGradient id="paint33_linear" x1="247" y1="170" x2="247" y2="148" gradientUnits="userSpaceOnUse">
<stop stop-color="#3EFFDC" stop-opacity="0.37"/>
<stop offset="1" stop-color="#3EAEFF" stop-opacity="0"/>
</linearGradient>
<linearGradient id="paint34_linear" x1="247" y1="170" x2="247" y2="148" gradientUnits="userSpaceOnUse">
<stop stop-color="#05D093" stop-opacity="0.67"/>
<stop offset="1" stop-color="#07DED1" stop-opacity="0.66"/>
</linearGradient>
<linearGradient id="paint35_linear" x1="208" y1="148" x2="208" y2="126" gradientUnits="userSpaceOnUse">
<stop stop-color="#3EFFDC" stop-opacity="0.37"/>
<stop offset="1" stop-color="#3EAEFF" stop-opacity="0"/>
</linearGradient>
<linearGradient id="paint36_linear" x1="208" y1="148" x2="208" y2="126" gradientUnits="userSpaceOnUse">
<stop stop-color="#05D093" stop-opacity="0.67"/>
<stop offset="1" stop-color="#07DED1" stop-opacity="0.66"/>
</linearGradient>
<linearGradient id="paint37_linear" x1="246.5" y1="125.5" x2="246.5" y2="103" gradientUnits="userSpaceOnUse">
<stop stop-color="#3EFFDC" stop-opacity="0.37"/>
<stop offset="1" stop-color="#3EAEFF" stop-opacity="0"/>
</linearGradient>
<linearGradient id="paint38_linear" x1="247" y1="126" x2="247" y2="104" gradientUnits="userSpaceOnUse">
<stop stop-color="#05D093" stop-opacity="0.67"/>
<stop offset="1" stop-color="#07DED1" stop-opacity="0.66"/>
</linearGradient>
<linearGradient id="paint39_linear" x1="267" y1="24.5" x2="268" y2="4.28943e-08" gradientUnits="userSpaceOnUse">
<stop stop-color="#093E5E"/>
<stop offset="1" stop-color="#093E5E" stop-opacity="0"/>
</linearGradient>
<linearGradient id="paint40_linear" x1="24.3998" y1="23.4348" x2="24.3998" y2="-0.0390417" gradientUnits="userSpaceOnUse">
<stop stop-color="#093E5E"/>
<stop offset="1" stop-color="#093E5E" stop-opacity="0"/>
</linearGradient>
<linearGradient id="paint41_linear" x1="50" y1="37.2174" x2="52.181" y2="1.07126" gradientUnits="userSpaceOnUse">
<stop stop-color="#093E5E"/>
<stop offset="1" stop-color="#093E5E" stop-opacity="0"/>
</linearGradient>
</defs>
</svg>
