<svg width="285" height="175" viewBox="0 0 285 175" fill="none" xmlns="http://www.w3.org/2000/svg">
<path d="M0 12C0 5.37259 5.37258 0 12 0H273C279.627 0 285 5.37258 285 12V175H0V12Z" fill="#0A244E"/>
<path d="M26.24 33.668C24.992 33.668 23.8913 33.3993 22.938 32.862C22.002 32.3247 21.274 31.562 20.754 30.574C20.2513 29.5687 20 28.4073 20 27.09C20 25.7553 20.2513 24.594 20.754 23.606C21.274 22.6007 22.002 21.8293 22.938 21.292C23.8913 20.7547 24.992 20.486 26.24 20.486C27.488 20.486 28.58 20.7547 29.516 21.292C30.4693 21.8293 31.1973 22.6007 31.7 23.606C32.22 24.594 32.48 25.7553 32.48 27.09C32.48 28.4073 32.22 29.5687 31.7 30.574C31.1973 31.562 30.4693 32.3247 29.516 32.862C28.58 33.3993 27.488 33.668 26.24 33.668ZM26.24 31.588C27.4013 31.588 28.2853 31.2067 28.892 30.444C29.516 29.6813 29.828 28.5633 29.828 27.09C29.828 25.634 29.516 24.5247 28.892 23.762C28.268 22.982 27.384 22.592 26.24 22.592C25.096 22.592 24.212 22.982 23.588 23.762C22.964 24.5247 22.652 25.634 22.652 27.09C22.652 28.5633 22.9553 29.6813 23.562 30.444C24.186 31.2067 25.0787 31.588 26.24 31.588Z" fill="#A6B8D5"/>
<path d="M42.2678 20.486C45.2838 20.486 46.7918 22.1933 46.7918 25.608V32.368C46.7918 32.7493 46.6704 33.0527 46.4278 33.278C46.1851 33.5033 45.8644 33.616 45.4658 33.616C45.0671 33.616 44.7464 33.5033 44.5038 33.278C44.2784 33.0527 44.1658 32.7493 44.1658 32.368V25.634C44.1658 24.594 43.9491 23.8313 43.5158 23.346C43.0998 22.8607 42.4411 22.618 41.5398 22.618C40.4824 22.618 39.6331 22.9473 38.9918 23.606C38.3504 24.2647 38.0298 25.1487 38.0298 26.258V32.368C38.0298 32.7493 37.9084 33.0527 37.6658 33.278C37.4404 33.5033 37.1284 33.616 36.7298 33.616C36.3311 33.616 36.0104 33.5033 35.7678 33.278C35.5251 33.0527 35.4038 32.7493 35.4038 32.368V16.274C35.4038 15.8927 35.5251 15.5893 35.7678 15.364C36.0278 15.1387 36.3571 15.026 36.7558 15.026C37.1371 15.026 37.4404 15.1387 37.6658 15.364C37.9084 15.572 38.0298 15.858 38.0298 16.222V22.722C38.4631 21.994 39.0438 21.4393 39.7718 21.058C40.4998 20.6767 41.3318 20.486 42.2678 20.486Z" fill="#A6B8D5"/>
<path d="M64.9443 20.486C67.7869 20.486 69.2083 22.1933 69.2083 25.608V32.368C69.2083 32.7667 69.0869 33.0787 68.8443 33.304C68.6016 33.512 68.2809 33.616 67.8823 33.616C67.5009 33.616 67.1889 33.512 66.9463 33.304C66.7036 33.0787 66.5823 32.7667 66.5823 32.368V25.634C66.5823 24.5767 66.3916 23.814 66.0103 23.346C65.6289 22.8607 65.0309 22.618 64.2163 22.618C63.2629 22.618 62.5089 22.9473 61.9543 23.606C61.3996 24.2473 61.1222 25.1313 61.1222 26.258V32.368C61.1222 32.7667 61.0009 33.0787 60.7583 33.304C60.5156 33.512 60.1949 33.616 59.7962 33.616C59.4149 33.616 59.1029 33.512 58.8603 33.304C58.6176 33.0787 58.4963 32.7667 58.4963 32.368V25.634C58.4963 24.5767 58.3056 23.814 57.9243 23.346C57.5429 22.8607 56.9449 22.618 56.1303 22.618C55.1769 22.618 54.4142 22.9473 53.8423 23.606C53.2876 24.2473 53.0103 25.1313 53.0103 26.258V32.368C53.0103 32.7667 52.8889 33.0787 52.6463 33.304C52.4036 33.512 52.0916 33.616 51.7102 33.616C51.3289 33.616 51.0082 33.512 50.7482 33.304C50.5056 33.0787 50.3842 32.7667 50.3842 32.368V21.786C50.3842 21.4047 50.5142 21.1013 50.7742 20.876C51.0342 20.6507 51.3462 20.538 51.7102 20.538C52.0742 20.538 52.3689 20.6507 52.5942 20.876C52.8369 21.084 52.9583 21.3787 52.9583 21.76V22.722C53.3396 21.994 53.8683 21.4393 54.5443 21.058C55.2202 20.6767 56.0003 20.486 56.8843 20.486C57.8549 20.486 58.6523 20.6853 59.2763 21.084C59.9176 21.4827 60.3942 22.098 60.7062 22.93C61.0876 22.1847 61.6509 21.5953 62.3963 21.162C63.1416 20.7113 63.9909 20.486 64.9443 20.486Z" fill="#A6B8D5"/>
<path d="M81.8262 21.318C81.9302 21.058 82.0775 20.8673 82.2682 20.746C82.4762 20.6247 82.6928 20.564 82.9182 20.564C83.2475 20.564 83.5335 20.6767 83.7762 20.902C84.0362 21.1273 84.1662 21.396 84.1662 21.708C84.1662 21.8813 84.1315 22.046 84.0622 22.202L76.8342 37.542C76.7302 37.7847 76.5742 37.9667 76.3662 38.088C76.1755 38.2267 75.9675 38.296 75.7422 38.296C75.4302 38.296 75.1442 38.192 74.8842 37.984C74.6415 37.776 74.5202 37.516 74.5202 37.204C74.5202 37.0653 74.5635 36.892 74.6502 36.684L76.4442 32.862L71.4262 22.202C71.3568 22.0633 71.3222 21.9073 71.3222 21.734C71.3222 21.4047 71.4608 21.1273 71.7382 20.902C72.0155 20.6767 72.3275 20.564 72.6742 20.564C73.1942 20.564 73.5668 20.8067 73.7922 21.292L77.8222 30.236L81.8262 21.318Z" fill="#A6B8D5"/>
<path d="M86.6211 33.616C86.1531 33.616 85.7545 33.46 85.4251 33.148C85.1131 32.836 84.9571 32.4373 84.9571 31.952C84.9571 31.4667 85.1131 31.068 85.4251 30.756C85.7545 30.4267 86.1531 30.262 86.6211 30.262C87.0891 30.262 87.4791 30.4267 87.7911 30.756C88.1031 31.068 88.2591 31.4667 88.2591 31.952C88.2591 32.4373 88.1031 32.836 87.7911 33.148C87.4791 33.46 87.0891 33.616 86.6211 33.616Z" fill="#A6B8D5"/>
<path d="M102.609 31.51C102.869 31.77 102.999 32.0733 102.999 32.42C102.999 32.7493 102.878 33.0353 102.635 33.278C102.41 33.5033 102.133 33.616 101.803 33.616C101.474 33.616 101.171 33.4687 100.893 33.174L96.9153 28.702L92.9633 33.174C92.686 33.4687 92.3826 33.616 92.0533 33.616C91.724 33.616 91.438 33.4947 91.1953 33.252C90.97 33.0093 90.8573 32.7233 90.8573 32.394C90.8573 32.0647 90.9786 31.77 91.2213 31.51L95.3293 26.986L91.4293 22.644C91.1693 22.3493 91.0393 22.0547 91.0393 21.76C91.0393 21.4307 91.1606 21.1533 91.4033 20.928C91.646 20.6853 91.9233 20.564 92.2353 20.564C92.5646 20.564 92.868 20.7113 93.1453 21.006L96.9153 25.27L100.685 21.006C100.963 20.7113 101.275 20.564 101.621 20.564C101.933 20.564 102.211 20.6853 102.453 20.928C102.696 21.1533 102.817 21.4307 102.817 21.76C102.817 22.0893 102.687 22.384 102.427 22.644L98.5273 26.986L102.609 31.51Z" fill="#A6B8D5"/>
<path d="M106.909 33.616C106.528 33.616 106.207 33.512 105.947 33.304C105.705 33.096 105.583 32.784 105.583 32.368V21.812C105.583 21.396 105.705 21.084 105.947 20.876C106.207 20.6507 106.528 20.538 106.909 20.538C107.291 20.538 107.603 20.6507 107.845 20.876C108.088 21.084 108.209 21.396 108.209 21.812V32.368C108.209 32.784 108.088 33.096 107.845 33.304C107.603 33.512 107.291 33.616 106.909 33.616ZM106.909 17.99C106.407 17.99 106.008 17.8513 105.713 17.574C105.419 17.2967 105.271 16.9327 105.271 16.482C105.271 16.0313 105.419 15.676 105.713 15.416C106.008 15.1387 106.407 15 106.909 15C107.395 15 107.785 15.1387 108.079 15.416C108.391 15.676 108.547 16.0313 108.547 16.482C108.547 16.9327 108.4 17.2967 108.105 17.574C107.811 17.8513 107.412 17.99 106.909 17.99Z" fill="#A6B8D5"/>
<path d="M118.718 20.486C121.752 20.486 123.268 22.1933 123.268 25.608V32.368C123.268 32.7667 123.147 33.0787 122.904 33.304C122.679 33.512 122.358 33.616 121.942 33.616C121.544 33.616 121.223 33.5033 120.98 33.278C120.755 33.0527 120.642 32.7493 120.642 32.368V25.738C120.642 24.6633 120.426 23.8747 119.992 23.372C119.576 22.8693 118.918 22.618 118.016 22.618C116.959 22.618 116.11 22.9473 115.468 23.606C114.827 24.2647 114.506 25.1487 114.506 26.258V32.368C114.506 32.7493 114.385 33.0527 114.142 33.278C113.917 33.5033 113.605 33.616 113.206 33.616C112.808 33.616 112.487 33.5033 112.244 33.278C112.002 33.0527 111.88 32.7493 111.88 32.368V21.786C111.88 21.422 112.002 21.1273 112.244 20.902C112.504 20.6593 112.825 20.538 113.206 20.538C113.588 20.538 113.891 20.6507 114.116 20.876C114.342 21.1013 114.454 21.396 114.454 21.76V22.826C114.87 22.0633 115.451 21.4827 116.196 21.084C116.942 20.6853 117.782 20.486 118.718 20.486Z" fill="#A6B8D5"/>
<path opacity="0.8" d="M15 70C15 65.5817 18.5817 62 23 62H263C267.418 62 271 65.5817 271 70V165C271 166.105 270.105 167 269 167H17C15.8954 167 15 166.105 15 165V70Z" fill="url(#paint0_linear)"/>
<line x1="66.5" y1="70" x2="66.5" y2="166" stroke="#3F5B89" stroke-dasharray="2 4"/>
<line x1="122.5" y1="70" x2="122.5" y2="167" stroke="#3F5B89" stroke-dasharray="2 4"/>
<line x1="224.5" y1="70" x2="224.5" y2="167" stroke="#3F5B89" stroke-dasharray="2 4"/>
<line x1="174.5" y1="70" x2="174.5" y2="167" stroke="#3F5B89" stroke-dasharray="2 4"/>
<line x1="271.5" y1="70" x2="271.5" y2="167" stroke="#3F5B89" stroke-dasharray="2 4"/>
<line x1="15.5" y1="70" x2="15.5" y2="167" stroke="#3F5B89" stroke-dasharray="2 4"/>
<path d="M172 141.32C123.896 141.32 133.131 82 100.493 82C65.7446 82 73.0608 121.9 57.5485 136.761C46.9114 146.951 27.7645 146.951 15 141.32V165C15 166.105 15.8954 167 17 167H269C270.105 167 271 166.105 271 165V143.32C255.753 137.152 243.316 112.755 224.181 113.435C203.262 113.435 195.301 141.32 172 141.32Z" fill="url(#paint1_linear)"/>
<path d="M15 141.368C27.7645 146.781 46.9114 146.781 57.5485 136.985C73.0608 122.7 65.7446 82 100.493 82C133.131 82 124.104 141.368 172.208 141.368C195.509 141.368 203.262 112.64 224.181 112.64C243.316 111.986 255.753 135.439 271 141.368" stroke="url(#paint2_linear)" stroke-width="2" stroke-linejoin="round"/>
<circle cx="98" cy="82" r="5" fill="#174A8B" stroke="url(#paint3_linear)" stroke-width="2"/>
<circle cx="15" cy="142" r="5" fill="#174A8B" stroke="url(#paint4_linear)" stroke-width="2"/>
<circle cx="174" cy="142" r="5" fill="#174A8B" stroke="url(#paint5_linear)" stroke-width="2"/>
<circle cx="225" cy="114" r="5" fill="#174A8B" stroke="url(#paint6_linear)" stroke-width="2"/>
<circle cx="271" cy="142" r="5" fill="#174A8B" stroke="url(#paint7_linear)" stroke-width="2"/>
<path d="M27 52C27 50.8954 27.8954 50 29 50H127C128.105 50 129 50.8954 129 52V54C129 55.1046 128.105 56 127 56H29C27.8954 56 27 55.1046 27 54V52Z" fill="url(#paint8_linear)"/>
<g filter="url(#filter0_d)">
<path d="M158 53C158 51.3431 159.343 50 161 50H257C258.657 50 260 51.3431 260 53C260 54.6569 258.657 56 257 56H161C159.343 56 158 54.6569 158 53Z" fill="#35568B"/>
</g>
<defs>
<filter id="filter0_d" x="138" y="30" width="142" height="46" filterUnits="userSpaceOnUse" color-interpolation-filters="sRGB">
<feFlood flood-opacity="0" result="BackgroundImageFix"/>
<feColorMatrix in="SourceAlpha" type="matrix" values="0 0 0 0 0 0 0 0 0 0 0 0 0 0 0 0 0 0 127 0" result="hardAlpha"/>
<feOffset/>
<feGaussianBlur stdDeviation="10"/>
<feColorMatrix type="matrix" values="0 0 0 0 0 0 0 0 0 0 0 0 0 0 0 0 0 0 0.06 0"/>
<feBlend mode="normal" in2="BackgroundImageFix" result="effect1_dropShadow"/>
<feBlend mode="normal" in="SourceGraphic" in2="effect1_dropShadow" result="shape"/>
</filter>
<linearGradient id="paint0_linear" x1="143" y1="62" x2="143" y2="167" gradientUnits="userSpaceOnUse">
<stop stop-color="#0A244E" stop-opacity="0"/>
<stop offset="1" stop-color="#1C3F78"/>
</linearGradient>
<linearGradient id="paint1_linear" x1="166.788" y1="78.1558" x2="170.1" y2="165.338" gradientUnits="userSpaceOnUse">
<stop stop-color="#C7E7FE"/>
<stop offset="0.0001" stop-color="#3677F7" stop-opacity="0.47"/>
<stop offset="1" stop-color="#01BDCD" stop-opacity="0"/>
</linearGradient>
<linearGradient id="paint2_linear" x1="143" y1="78.7273" x2="143" y2="145" gradientUnits="userSpaceOnUse">
<stop stop-color="#43D9FF"/>
<stop offset="0.691274" stop-color="#1C85FA"/>
<stop offset="1" stop-color="#1862BC"/>
</linearGradient>
<linearGradient id="paint3_linear" x1="98" y1="76" x2="98" y2="88" gradientUnits="userSpaceOnUse">
<stop stop-color="#44DDFF"/>
<stop offset="1" stop-color="#116EF9"/>
</linearGradient>
<linearGradient id="paint4_linear" x1="15" y1="136" x2="15" y2="148" gradientUnits="userSpaceOnUse">
<stop stop-color="#44DDFF"/>
<stop offset="1" stop-color="#116EF9"/>
</linearGradient>
<linearGradient id="paint5_linear" x1="174" y1="136" x2="174" y2="148" gradientUnits="userSpaceOnUse">
<stop stop-color="#44DDFF"/>
<stop offset="1" stop-color="#116EF9"/>
</linearGradient>
<linearGradient id="paint6_linear" x1="225" y1="108" x2="225" y2="120" gradientUnits="userSpaceOnUse">
<stop stop-color="#44DDFF"/>
<stop offset="1" stop-color="#116EF9"/>
</linearGradient>
<linearGradient id="paint7_linear" x1="271" y1="136" x2="271" y2="148" gradientUnits="userSpaceOnUse">
<stop stop-color="#44DDFF"/>
<stop offset="1" stop-color="#116EF9"/>
</linearGradient>
<linearGradient id="paint8_linear" x1="84.0027" y1="52.9999" x2="51.1349" y2="52.9999" gradientUnits="userSpaceOnUse">
<stop stop-color="#538DFF"/>
<stop offset="1" stop-color="#5BC3FD"/>
</linearGradient>
</defs>
</svg>
