<svg width="42" height="28" viewBox="0 0 42 28" fill="none" xmlns="http://www.w3.org/2000/svg">
<g clip-path="url(#clip0)">
<path d="M16.9301 12.3766V24.9569C16.9301 25.5079 16.7061 26.0363 16.3074 26.4259C15.9087 26.8155 15.3679 27.0344 14.804 27.0344H2.12612C1.56224 27.0344 1.02145 26.8155 0.622727 26.4259C0.224001 26.0363 0 25.5079 0 24.9569L0 10.2991C0 7.2503 0.823872 3.42732 2.26521 0.965454H10.7298C9.24033 3.51382 8.45967 7.36438 8.46551 10.2991H14.804C15.3679 10.2991 15.9087 10.518 16.3074 10.9076C16.7061 11.2972 16.9301 11.8256 16.9301 12.3766ZM39.0698 12.3766V24.9569C39.0698 25.5079 38.8458 26.0363 38.447 26.4259C38.0483 26.8155 37.5075 27.0344 36.9436 27.0344H24.2658C23.7019 27.0344 23.1611 26.8155 22.7624 26.4259C22.3636 26.0363 22.1396 25.5079 22.1396 24.9569V10.2991C22.1396 7.2503 22.9635 3.42732 24.4048 0.965454H32.8686C31.3788 3.51373 30.5978 7.3643 30.6034 10.2991H36.9436C37.5075 10.2991 38.0483 10.518 38.447 10.9076C38.8458 11.2972 39.0698 11.8256 39.0698 12.3766Z" fill="url(#paint0_linear)"/>
</g>
<defs>
<linearGradient id="paint0_linear" x1="19.5349" y1="0.965453" x2="38.7439" y2="32.543" gradientUnits="userSpaceOnUse">
<stop stop-color="#3D75E3"/>
<stop offset="1" stop-color="#A4C2FE"/>
</linearGradient>
<clipPath id="clip0">
<rect width="42" height="28" fill="white"/>
</clipPath>
</defs>
</svg>
