<svg width="285" height="175" viewBox="0 0 285 175" fill="none" xmlns="http://www.w3.org/2000/svg">
<path d="M0 12C0 5.37259 5.37258 0 12 0H273C279.627 0 285 5.37258 285 12V175H0V12Z" fill="#0A244E"/>
<mask id="mask0" mask-type="alpha" maskUnits="userSpaceOnUse" x="0" y="0" width="285" height="175">
<path d="M0 12C0 5.37259 5.37258 0 12 0H273C279.627 0 285 5.37258 285 12V175H0V12Z" fill="#0A244E"/>
</mask>
<g mask="url(#mask0)">
<path d="M41.0513 17.7572C41.1409 17.5197 41.2753 17.3415 41.4544 17.2227C41.6336 17.1039 41.8351 17.0445 42.0591 17.0445C42.3428 17.0445 42.5891 17.1411 42.7981 17.3341C43.0221 17.5122 43.1341 17.7498 43.1341 18.0468C43.1341 18.2101 43.1042 18.3586 43.0445 18.4922L38.0952 32.2561C37.9907 32.5085 37.8264 32.7016 37.6025 32.8352C37.3785 32.9688 37.1322 33.0356 36.8634 33.0356C36.6096 33.0356 36.3708 32.9688 36.1468 32.8352C35.9229 32.7016 35.7661 32.5085 35.6765 32.2561L31.6006 20.7639L27.4351 32.2561C27.3456 32.5085 27.1888 32.7016 26.9649 32.8352C26.7409 32.9688 26.502 33.0356 26.2482 33.0356C25.9795 33.0356 25.7331 32.9688 25.5092 32.8352C25.3002 32.7016 25.1434 32.5085 25.0389 32.2561L20.0896 18.4922C20.0299 18.3586 20 18.2101 20 18.0468C20 17.7498 20.112 17.5122 20.3359 17.3341C20.5599 17.1411 20.8286 17.0445 21.1421 17.0445C21.3661 17.0445 21.5677 17.1039 21.7468 17.2227C21.9409 17.3415 22.0827 17.5197 22.1723 17.7572L26.3154 29.6058L30.5257 17.8686C30.6152 17.6162 30.7571 17.4232 30.9512 17.2895C31.1602 17.1559 31.3841 17.0891 31.623 17.0891C31.8619 17.0891 32.0784 17.1633 32.2725 17.3118C32.4666 17.4454 32.6159 17.6385 32.7204 17.8909L36.8411 29.7171L41.0513 17.7572Z" fill="#BDCDE8"/>
<path d="M52.9312 24.8174C53.8867 25.0846 54.6108 25.5449 55.1035 26.1982C55.5962 26.8367 55.8425 27.6459 55.8425 28.6258C55.8425 29.9918 55.3573 31.0683 54.3869 31.8552C53.4313 32.6422 52.1324 33.0356 50.4901 33.0356C49.5197 33.0356 48.5865 32.8797 47.6907 32.5679C46.8099 32.2561 46.0634 31.8255 45.4512 31.2762C45.1526 31.0386 45.0033 30.7416 45.0033 30.3853C45.0033 30.118 45.078 29.8953 45.2273 29.7171C45.3766 29.5241 45.5557 29.4276 45.7648 29.4276C45.9887 29.4276 46.2425 29.5241 46.5262 29.7171C47.1682 30.1923 47.7953 30.5561 48.4074 30.8085C49.0344 31.046 49.7063 31.1648 50.4229 31.1648C52.543 31.1648 53.603 30.2665 53.603 28.4699C53.603 27.5939 53.3194 26.9406 52.752 26.51C52.1996 26.0646 51.3561 25.8419 50.2214 25.8419H48.9897C48.706 25.8419 48.482 25.7528 48.3178 25.5746C48.1536 25.3816 48.0715 25.1589 48.0715 24.9065C48.0715 24.6689 48.1536 24.461 48.3178 24.2829C48.482 24.0898 48.706 23.9933 48.9897 23.9933H49.8631C50.9529 23.9933 51.7816 23.7706 52.3489 23.3252C52.9312 22.8649 53.2223 22.1967 53.2223 21.3207C53.2223 20.5486 52.9834 19.9473 52.5057 19.5167C52.0428 19.0861 51.3859 18.8708 50.5349 18.8708C49.2808 18.8708 48.0267 19.3534 46.7725 20.3185C46.4889 20.5115 46.2351 20.608 46.0111 20.608C45.8021 20.608 45.6229 20.5189 45.4736 20.3408C45.3243 20.1477 45.2497 19.9176 45.2497 19.6503C45.2497 19.294 45.399 18.997 45.6976 18.7595C46.3097 18.2101 47.0487 17.7795 47.9147 17.4677C48.7956 17.1559 49.6988 17 50.6245 17C52.1026 17 53.2746 17.3638 54.1405 18.0913C55.0214 18.8189 55.4618 19.8062 55.4618 21.0535C55.4618 21.9443 55.2379 22.7238 54.79 23.392C54.357 24.0453 53.7374 24.5204 52.9312 24.8174Z" fill="#BDCDE8"/>
<path d="M63.6272 33.0356C62.5672 33.0356 61.6341 32.8055 60.8279 32.3452C60.0366 31.8849 59.417 31.2316 58.9691 30.3853C58.5361 29.539 58.3196 28.559 58.3196 27.4454C58.3196 26.317 58.5436 25.3222 58.9915 24.461C59.4543 23.5999 60.0963 22.9317 60.9174 22.4566C61.7386 21.9814 62.6792 21.7439 63.7392 21.7439C64.3066 21.7439 64.8739 21.8255 65.4412 21.9889C66.0235 22.1522 66.5386 22.3749 66.9865 22.657C67.4643 22.9837 67.7031 23.3623 67.7031 23.7929C67.7031 24.0453 67.636 24.2606 67.5016 24.4388C67.3672 24.6021 67.1955 24.6837 66.9865 24.6837C66.8521 24.6837 66.7178 24.654 66.5834 24.5947C66.449 24.5204 66.2773 24.4165 66.0683 24.2829C65.6951 24.0453 65.3442 23.8671 65.0157 23.7483C64.7022 23.6147 64.3215 23.5479 63.8736 23.5479C62.8584 23.5479 62.0671 23.8894 61.4997 24.5724C60.9473 25.2554 60.6711 26.2056 60.6711 27.4232C60.6711 28.6407 60.9473 29.5835 61.4997 30.2517C62.0521 30.905 62.836 31.2316 63.8512 31.2316C64.2991 31.2316 64.6947 31.1648 65.0381 31.0312C65.3815 30.8975 65.7324 30.7194 66.0907 30.4967C66.2549 30.3927 66.4192 30.3036 66.5834 30.2294C66.7476 30.1552 66.8969 30.118 67.0313 30.118C67.2403 30.118 67.412 30.2071 67.5464 30.3853C67.6807 30.5486 67.7479 30.7565 67.7479 31.0089C67.7479 31.2168 67.6882 31.4098 67.5688 31.588C67.4643 31.7513 67.2776 31.922 67.0089 32.1002C66.561 32.3972 66.0384 32.6273 65.4412 32.7906C64.844 32.954 64.2394 33.0356 63.6272 33.0356Z" fill="#BDCDE8"/>
<path d="M71.0885 32.9911C70.6854 32.9911 70.342 32.8575 70.0583 32.5902C69.7896 32.3229 69.6552 31.9814 69.6552 31.5657C69.6552 31.15 69.7896 30.8085 70.0583 30.5412C70.342 30.2591 70.6854 30.118 71.0885 30.118C71.4916 30.118 71.8275 30.2591 72.0962 30.5412C72.365 30.8085 72.4994 31.15 72.4994 31.5657C72.4994 31.9814 72.365 32.3229 72.0962 32.5902C71.8275 32.8575 71.4916 32.9911 71.0885 32.9911Z" fill="#BDCDE8"/>
<path d="M86.7438 24.5501C87.0275 24.5501 87.2514 24.6318 87.4157 24.7951C87.5948 24.9584 87.6844 25.1811 87.6844 25.4633V30.6748C87.6844 31.1797 87.6097 31.5434 87.4604 31.7661C87.3261 31.9889 87.0499 32.167 86.6318 32.3007C86.0346 32.5382 85.3255 32.7238 84.5043 32.8575C83.6832 32.9911 82.8695 33.0579 82.0632 33.0579C80.4657 33.0579 79.0847 32.7387 77.9202 32.1002C76.7556 31.4618 75.8673 30.5412 75.2552 29.3385C74.643 28.1359 74.337 26.6956 74.337 25.0178C74.337 23.3697 74.643 21.9443 75.2552 20.7416C75.8673 19.539 76.7407 18.6184 77.8754 17.98C79.025 17.3267 80.3687 17 81.9065 17C82.9516 17 83.9146 17.1559 84.7954 17.4677C85.6912 17.7647 86.4527 18.2027 87.0797 18.7817C87.3783 19.0193 87.5276 19.3163 87.5276 19.6726C87.5276 19.9399 87.453 20.17 87.3037 20.363C87.1544 20.5412 86.9752 20.6303 86.7662 20.6303C86.6318 20.6303 86.5124 20.608 86.4079 20.5635C86.3034 20.5189 86.169 20.4447 86.0048 20.3408C85.2732 19.8062 84.6088 19.435 84.0116 19.2272C83.4144 19.0045 82.7276 18.8931 81.9513 18.8931C80.2493 18.8931 78.9503 19.4202 78.0545 20.4744C77.1587 21.5137 76.7108 23.0282 76.7108 25.0178C76.7108 27.052 77.1662 28.5961 78.0769 29.6503C79.0026 30.6897 80.3538 31.2094 82.1304 31.2094C83.3248 31.2094 84.4744 31.0312 85.5793 30.6748V26.2873H82.6455C82.3469 26.2873 82.108 26.2131 81.9289 26.0646C81.7646 25.9013 81.6825 25.686 81.6825 25.4187C81.6825 25.1514 81.7646 24.9436 81.9289 24.7951C82.108 24.6318 82.3469 24.5501 82.6455 24.5501H86.7438Z" fill="#BDCDE8"/>
<path d="M96.6321 21.7884C97.3487 21.7439 97.707 22.0483 97.707 22.7016C97.707 23.0282 97.6249 23.2732 97.4607 23.4365C97.2965 23.5999 97.0128 23.6964 96.6097 23.7261L95.9378 23.7929C94.9972 23.882 94.2955 24.2086 93.8327 24.7728C93.3848 25.337 93.1609 26.02 93.1609 26.8218V31.922C93.1609 32.2784 93.0563 32.5457 92.8473 32.7238C92.6383 32.902 92.3696 32.9911 92.0411 32.9911C91.7126 32.9911 91.4364 32.902 91.2125 32.7238C91.0035 32.5457 90.899 32.2784 90.899 31.922V22.8575C90.899 22.516 91.0035 22.2561 91.2125 22.078C91.4364 21.8849 91.7126 21.7884 92.0411 21.7884C92.3397 21.7884 92.586 21.8849 92.7801 22.078C92.9892 22.2561 93.0937 22.5085 93.0937 22.8352V23.9042C93.3923 23.2509 93.8252 22.7535 94.3926 22.412C94.9599 22.0705 95.6019 21.8701 96.3186 21.8107L96.6321 21.7884Z" fill="#BDCDE8"/>
<path d="M103.629 33.0356C102.554 33.0356 101.606 32.8055 100.785 32.3452C99.9789 31.8849 99.3519 31.2316 98.904 30.3853C98.471 29.5241 98.2545 28.5293 98.2545 27.4009C98.2545 26.2576 98.471 25.2628 98.904 24.4165C99.3519 23.5553 99.9789 22.8946 100.785 22.4343C101.606 21.974 102.554 21.7439 103.629 21.7439C104.704 21.7439 105.645 21.974 106.451 22.4343C107.272 22.8946 107.899 23.5553 108.332 24.4165C108.78 25.2628 109.004 26.2576 109.004 27.4009C109.004 28.5293 108.78 29.5241 108.332 30.3853C107.899 31.2316 107.272 31.8849 106.451 32.3452C105.645 32.8055 104.704 33.0356 103.629 33.0356ZM103.629 31.2539C104.63 31.2539 105.391 30.9272 105.914 30.2739C106.451 29.6206 106.72 28.663 106.72 27.4009C106.72 26.1537 106.451 25.2034 105.914 24.5501C105.376 23.882 104.615 23.5479 103.629 23.5479C102.644 23.5479 101.882 23.882 101.345 24.5501C100.808 25.2034 100.539 26.1537 100.539 27.4009C100.539 28.663 100.8 29.6206 101.323 30.2739C101.86 30.9272 102.629 31.2539 103.629 31.2539Z" fill="#BDCDE8"/>
<path d="M119.988 21.7884C120.331 21.7884 120.6 21.8849 120.794 22.078C121.003 22.271 121.108 22.5382 121.108 22.8797V31.9443C121.108 32.2561 121.003 32.5085 120.794 32.7016C120.585 32.8946 120.309 32.9911 119.965 32.9911C119.652 32.9911 119.398 32.902 119.204 32.7238C119.01 32.5308 118.913 32.2784 118.913 31.9666V31.1203C118.569 31.7439 118.092 32.219 117.48 32.5457C116.882 32.8723 116.211 33.0356 115.464 33.0356C112.806 33.0356 111.478 31.5806 111.478 28.6704V22.8797C111.478 22.5382 111.575 22.271 111.769 22.078C111.978 21.8849 112.262 21.7884 112.62 21.7884C112.963 21.7884 113.232 21.8849 113.426 22.078C113.635 22.271 113.74 22.5382 113.74 22.8797V28.6481C113.74 29.5241 113.919 30.17 114.277 30.5857C114.635 31.0015 115.188 31.2094 115.934 31.2094C116.815 31.2094 117.517 30.9272 118.039 30.363C118.577 29.7988 118.846 29.049 118.846 28.1136V22.8797C118.846 22.5531 118.95 22.2932 119.159 22.1002C119.368 21.8924 119.644 21.7884 119.988 21.7884Z" fill="#BDCDE8"/>
<path d="M130.14 21.7439C131.081 21.7439 131.917 21.9814 132.649 22.4566C133.395 22.9317 133.97 23.5999 134.373 24.461C134.791 25.3222 135 26.317 135 27.4454C135 28.559 134.798 29.539 134.395 30.3853C133.992 31.2316 133.417 31.8849 132.671 32.3452C131.939 32.8055 131.096 33.0356 130.14 33.0356C129.319 33.0356 128.595 32.8649 127.968 32.5234C127.341 32.167 126.863 31.6622 126.535 31.0089V35.9755C126.535 36.2873 126.43 36.5323 126.221 36.7105C126.027 36.9035 125.766 37 125.437 37C125.094 37 124.81 36.9035 124.586 36.7105C124.377 36.5174 124.273 36.2576 124.273 35.931V22.8797C124.273 22.5531 124.377 22.2932 124.586 22.1002C124.795 21.8924 125.072 21.7884 125.415 21.7884C125.743 21.7884 126.012 21.8924 126.221 22.1002C126.43 22.2932 126.535 22.5531 126.535 22.8797V23.7929C126.863 23.1396 127.341 22.6347 127.968 22.2784C128.595 21.9221 129.319 21.7439 130.14 21.7439ZM129.603 31.2539C130.588 31.2539 131.35 30.9272 131.887 30.2739C132.425 29.6058 132.693 28.663 132.693 27.4454C132.693 26.2131 132.417 25.2554 131.865 24.5724C131.327 23.8894 130.573 23.5479 129.603 23.5479C128.617 23.5479 127.856 23.882 127.319 24.5501C126.796 25.2183 126.535 26.1685 126.535 27.4009C126.535 28.6333 126.796 29.5835 127.319 30.2517C127.856 30.9198 128.617 31.2539 129.603 31.2539Z" fill="#BDCDE8"/>
<path d="M20 141.5C20 139.567 21.5297 138 23.4167 138H57.5833C59.4703 138 61 139.567 61 141.5V148.5C61 150.433 59.4703 152 57.5833 152H23.4167C21.5297 152 20 150.433 20 148.5V141.5Z" fill="url(#paint0_linear)"/>
<path d="M20 80.6667C20 79.7462 20.7628 79 21.7037 79H133.296C134.237 79 135 79.7462 135 80.6667V82.3333C135 83.2538 134.237 84 133.296 84H21.7037C20.7628 84 20 83.2538 20 82.3333V80.6667Z" fill="#1F4076"/>
<path d="M20 51.7778C20 50.7959 20.7462 50 21.6667 50H33.3333C34.2538 50 35 50.7959 35 51.7778V64.2222C35 65.2041 34.2538 66 33.3333 66H21.6667C20.7462 66 20 65.2041 20 64.2222V51.7778Z" fill="#D6E2FF"/>
<path d="M20 51.7778C20 50.7959 20.7462 50 21.6667 50H33.3333C34.2538 50 35 50.7959 35 51.7778V64.2222C35 65.2041 34.2538 66 33.3333 66H21.6667C20.7462 66 20 65.2041 20 64.2222V51.7778Z" fill="#35568B"/>
<path d="M40 51.7778C40 50.7959 40.7959 50 41.7778 50H54.2222C55.2041 50 56 50.7959 56 51.7778V64.2222C56 65.2041 55.2041 66 54.2222 66H41.7778C40.7959 66 40 65.2041 40 64.2222V51.7778Z" fill="#D6E2FF"/>
<path d="M40 51.7778C40 50.7959 40.7959 50 41.7778 50H54.2222C55.2041 50 56 50.7959 56 51.7778V64.2222C56 65.2041 55.2041 66 54.2222 66H41.7778C40.7959 66 40 65.2041 40 64.2222V51.7778Z" fill="#35568B"/>
<path d="M61 51.7778C61 50.7959 61.7462 50 62.6667 50H74.3333C75.2538 50 76 50.7959 76 51.7778V64.2222C76 65.2041 75.2538 66 74.3333 66H62.6667C61.7462 66 61 65.2041 61 64.2222V51.7778Z" fill="#D6E2FF"/>
<path d="M61 51.7778C61 50.7959 61.7462 50 62.6667 50H74.3333C75.2538 50 76 50.7959 76 51.7778V64.2222C76 65.2041 75.2538 66 74.3333 66H62.6667C61.7462 66 61 65.2041 61 64.2222V51.7778Z" fill="#35568B"/>
<path d="M81 51.7778C81 50.7959 81.7959 50 82.7778 50H95.2222C96.2041 50 97 50.7959 97 51.7778V64.2222C97 65.2041 96.2041 66 95.2222 66H82.7778C81.7959 66 81 65.2041 81 64.2222V51.7778Z" fill="#D6E2FF"/>
<path d="M81 51.7778C81 50.7959 81.7959 50 82.7778 50H95.2222C96.2041 50 97 50.7959 97 51.7778V64.2222C97 65.2041 96.2041 66 95.2222 66H82.7778C81.7959 66 81 65.2041 81 64.2222V51.7778Z" fill="#35568B"/>
<path d="M20 95.6667C20 94.7462 20.7628 94 21.7037 94H133.296C134.237 94 135 94.7462 135 95.6667V97.3333C135 98.2538 134.237 99 133.296 99H21.7037C20.7628 99 20 98.2538 20 97.3333V95.6667Z" fill="#1F4076"/>
<path d="M20 110.667C20 109.746 20.6765 109 21.5111 109H110.489C111.323 109 112 109.746 112 110.667V112.333C112 113.254 111.323 114 110.489 114H21.5111C20.6765 114 20 113.254 20 112.333V110.667Z" fill="#1F4076"/>
<path d="M300.5 121C284.926 199.825 291.512 183.5 198.5 183.5C188.5 183.5 158.415 185.994 152.157 181.162C149.271 178.927 146.64 176.365 144.314 173.524C134.789 161.941 130.268 145.917 134.727 131.585C138.745 118.713 149.014 108.809 153.636 96.1555C160.04 78.6652 155.166 57.4423 165.262 41.896C171.985 31.5721 184.059 26.1485 196.015 24.3425C207.971 22.5365 220.921 28.8275 233 29C249.597 29.2353 266.5 -0.000650406 284.5 22.4996C287.757 26.5706 285.416 48.8574 291.512 55C305.227 68.8036 304.332 101.664 300.5 121Z" fill="url(#paint1_linear)"/>
<path opacity="0.48" d="M252.909 92.1283C249.333 101.259 257.479 112.164 253.236 121.009C249.825 128.098 240.349 129.868 235.14 135.774C228.904 142.849 230.268 153.89 225.678 162.119C220.85 170.765 210.009 175.333 206.555 184.623C205.483 187.489 204.957 190.985 202.569 192.755C196.688 191.949 191.038 189.94 185.974 186.854C179.153 182.66 173.57 176.773 166.973 172.234C161.375 168.379 155.114 165.528 149.671 161.455C147.162 159.571 144.873 157.41 142.85 155.015C144.125 154.05 145.571 153.332 147.114 152.901C150.101 148.678 153.961 145.139 158.435 142.522C162.909 139.904 167.893 138.268 173.053 137.724C178.194 137.21 183.373 137.811 188.532 138.116C193.005 138.372 197.483 138.409 201.965 138.228C204.581 138.116 207.325 137.889 209.507 136.439C214.082 133.374 213.995 126.639 217.035 122.061C219.744 117.983 224.631 116.024 229.152 114.114C233.674 112.203 238.468 109.774 240.49 105.318C242.346 101.24 241.396 96.4924 242.068 92.0701C242.638 88.2733 244.392 84.7723 246.117 81.3441C247.116 79.3705 249.752 80.7961 251.74 81.7756C252.728 82.2834 253.542 83.0724 254.078 84.0421C254.615 85.0119 254.849 86.1185 254.751 87.2211C254.551 88.9667 253.547 90.4942 252.909 92.1283Z" fill="url(#paint2_linear)" fill-opacity="0.49"/>
<path opacity="0.48" d="M244.508 106.759C241.293 114.978 248.625 124.797 244.806 132.755C241.741 139.126 233.2 140.702 228.513 146.036C222.9 152.403 224.128 162.343 219.996 169.753C215.65 177.555 205.867 181.647 202.773 190.007C201.798 192.592 201.311 195.739 199.182 197.334C193.886 196.599 188.801 194.784 184.244 192C178.115 188.223 173.077 182.923 167.147 178.84C162.104 175.363 156.467 172.798 151.556 169.142C149.297 167.448 147.239 165.504 145.422 163.347C146.566 162.478 147.866 161.831 149.251 161.441C151.942 157.641 155.416 154.456 159.442 152.099C163.469 149.743 167.954 148.269 172.599 147.777C177.228 147.321 181.891 147.859 186.534 148.131C190.56 148.368 194.597 148.402 198.627 148.233C200.985 148.136 203.46 147.927 205.418 146.623C209.536 143.864 209.458 137.802 212.196 133.681C214.632 130.01 219.017 128.25 223.1 126.528C227.183 124.807 231.49 122.615 233.332 118.61C234.998 114.939 234.145 110.662 234.744 106.681C235.261 103.287 244.757 83.9443 246.311 80.8604C247.208 79.0856 249.946 80.8604 251.734 81.7671C253.522 82.6739 252.626 82.4605 252.411 84.4341C252.241 86.01 245.083 105.275 244.508 106.759Z" fill="url(#paint3_linear)" fill-opacity="0.25"/>
<path d="M186.014 149.431C185.62 149.452 185.234 149.549 184.878 149.717C184.249 149.9 183.685 150.256 183.251 150.745C182.666 151.54 182.866 152.65 183.134 153.601C183.371 154.567 183.734 155.498 184.216 156.37C184.7 157.247 185.446 157.953 186.35 158.392C186.472 158.458 186.61 158.489 186.749 158.479C186.855 158.451 186.953 158.4 187.037 158.331C187.121 158.261 187.189 158.175 187.237 158.077C187.711 157.308 187.903 156.4 187.777 155.507C187.678 155.14 187.678 154.753 187.777 154.386C187.923 154.131 188.105 153.897 188.318 153.693C188.576 153.366 188.725 152.967 188.745 152.552C188.765 152.137 188.655 151.726 188.43 151.375C188.075 150.842 187.456 150.619 187.066 150.158C186.72 149.79 186.613 149.431 186.014 149.431Z" fill="#1682D7"/>
<path d="M186.093 149.867C185.882 150.037 185.724 150.262 185.635 150.516C185.596 150.691 185.61 150.873 185.674 151.04C185.803 151.382 186.034 151.676 186.336 151.884C186.541 152.049 186.794 152.144 187.057 152.155C187.252 152.139 187.441 152.083 187.613 151.99C188.27 151.686 188.874 151.278 189.401 150.783C189.69 150.556 189.895 150.241 189.986 149.886C190.007 149.67 189.988 149.451 189.932 149.241C189.888 149.033 189.834 148.829 189.786 148.62C189.769 148.532 189.739 148.448 189.698 148.368C189.649 148.288 189.588 148.217 189.518 148.155C189.246 147.855 188.914 147.615 188.543 147.452C188.197 147.326 188.085 147.495 187.89 147.762C187.347 148.509 186.746 149.213 186.093 149.867Z" fill="#CAAEA5"/>
<path d="M209.016 117.95C208.67 120.724 207.12 126.295 206.351 128.996C204.826 134.33 204.343 137.322 200.889 141.691C198.971 144.115 196.786 146.317 194.375 148.256C192.913 149.435 191.286 150.54 189.439 150.957C189.03 150.123 187.977 149.789 187.49 149.018C187.466 148.979 187.446 148.94 187.422 148.906C186.935 147.995 187.393 146.879 187.87 145.958C189.83 142.163 192.002 138.48 194.375 134.926C194.772 134.395 195.099 133.815 195.349 133.2C195.521 132.621 195.627 132.024 195.666 131.421C195.763 130.601 195.895 129.791 196.056 128.996C196.707 126.081 197.547 123.211 198.57 120.404C198.844 119.406 199.299 118.468 199.914 117.635C201.069 116.267 202.959 115.773 204.738 115.521C207.476 115.118 209.42 114.721 209.016 117.95Z" fill="#334362"/>
<path d="M169.239 122.998C168.924 122.76 168.565 122.587 168.182 122.489C167.581 122.229 166.919 122.142 166.272 122.237C165.297 122.475 164.752 123.454 164.323 124.351C163.876 125.242 163.548 126.188 163.348 127.164C163.155 128.144 163.271 129.16 163.68 130.073C163.729 130.203 163.816 130.316 163.928 130.398C164.027 130.442 164.134 130.465 164.242 130.465C164.351 130.465 164.458 130.442 164.557 130.398C165.416 130.112 166.148 129.538 166.627 128.773C166.783 128.425 167.029 128.124 167.339 127.901C167.615 127.794 167.906 127.732 168.201 127.716C168.61 127.629 168.981 127.418 169.264 127.113C169.548 126.807 169.73 126.422 169.785 126.01C169.853 125.374 169.536 124.822 169.521 124.206C169.526 123.73 169.687 123.386 169.239 122.998Z" fill="#1682D7"/>
<path d="M186.014 149.431C185.62 149.452 185.234 149.549 184.878 149.717C184.249 149.9 183.685 150.256 183.251 150.745C182.666 151.54 182.866 152.65 183.134 153.601C183.371 154.567 183.734 155.498 184.216 156.37C184.7 157.247 185.446 157.953 186.35 158.392C186.472 158.458 186.61 158.489 186.749 158.479C186.855 158.451 186.953 158.4 187.037 158.331C187.121 158.261 187.189 158.175 187.237 158.077C187.711 157.308 187.903 156.4 187.777 155.507C187.678 155.14 187.678 154.753 187.777 154.386C187.923 154.131 188.105 153.897 188.318 153.693C188.576 153.366 188.725 152.967 188.745 152.552C188.765 152.137 188.655 151.726 188.43 151.375C188.075 150.842 187.456 150.619 187.066 150.158C186.72 149.79 186.613 149.431 186.014 149.431Z" fill="url(#paint4_linear)"/>
<path d="M169.239 122.998C168.924 122.76 168.565 122.587 168.182 122.489C167.581 122.229 166.919 122.142 166.272 122.237C165.297 122.475 164.752 123.454 164.323 124.351C163.876 125.242 163.548 126.188 163.348 127.164C163.155 128.144 163.271 129.16 163.68 130.073C163.729 130.203 163.816 130.316 163.928 130.398C164.027 130.442 164.134 130.465 164.242 130.465C164.351 130.465 164.458 130.442 164.557 130.398C165.416 130.112 166.148 129.538 166.627 128.773C166.783 128.425 167.029 128.124 167.339 127.901C167.615 127.794 167.906 127.732 168.201 127.716C168.61 127.629 168.981 127.418 169.264 127.113C169.548 126.807 169.73 126.422 169.785 126.01C169.853 125.374 169.536 124.822 169.521 124.206C169.526 123.73 169.687 123.386 169.239 122.998Z" fill="url(#paint5_linear)"/>
<path d="M169.468 123.9C169.202 123.852 168.928 123.875 168.674 123.968C168.515 124.055 168.384 124.184 168.294 124.342C168.119 124.66 168.044 125.023 168.08 125.384C168.084 125.648 168.175 125.903 168.338 126.111C168.475 126.251 168.642 126.358 168.825 126.427C169.484 126.728 170.186 126.924 170.906 127.009C171.267 127.081 171.643 127.031 171.973 126.868C172.152 126.747 172.307 126.594 172.431 126.417C172.562 126.247 172.684 126.078 172.811 125.903C172.862 125.831 172.905 125.753 172.938 125.67C172.964 125.58 172.979 125.487 172.981 125.394C173.048 125.002 173.033 124.601 172.938 124.216C172.811 123.876 172.606 123.895 172.275 123.92C171.34 123.987 170.402 123.981 169.468 123.9Z" fill="#CAAEA5"/>
<path d="M203.237 118.979C203.153 119.348 202.938 119.675 202.633 119.901C199.661 122.66 198.613 126.311 195.646 129.07C194.972 129.77 194.182 130.35 193.312 130.787C192.596 131.097 183.236 130.937 180.294 130.937C177.351 130.937 174.184 130.709 171.68 129.104C171.352 128.926 171.081 128.66 170.895 128.338C170.734 127.908 170.704 127.441 170.807 126.995C170.889 126.163 171.089 125.346 171.402 124.57C171.605 124.088 171.926 123.664 172.337 123.338C173.312 122.597 174.647 122.616 175.87 122.65C180.245 122.774 184.624 122.623 188.981 122.199C189.26 122.197 189.534 122.122 189.775 121.981C190.035 121.735 190.206 121.412 190.262 121.059C190.843 118.999 191.551 116.977 192.382 115.003C192.825 113.96 193.843 110.493 195.076 110.091L195.169 110.067C196.474 109.81 198.667 112.69 199.446 113.543C200.731 114.945 201.889 116.458 202.906 118.063C203.115 118.323 203.231 118.646 203.237 118.979Z" fill="#334362"/>
<path d="M178.397 100.964C178.38 100.359 178.537 99.7615 178.85 99.2427C179.365 98.2775 180.07 97.4257 180.923 96.7383C181.776 96.0508 182.76 95.542 183.815 95.2422C184.244 96.0132 184.668 96.7551 185.092 97.5261C185.226 97.7301 185.315 97.9597 185.355 98.2001C185.335 98.6195 185.193 99.024 184.946 99.3639C184.644 99.9125 184.43 100.505 184.312 101.119C184.289 101.42 184.194 101.711 184.034 101.968C183.992 102.029 183.938 102.081 183.875 102.12C183.812 102.159 183.742 102.185 183.669 102.197C183.595 102.208 183.52 102.204 183.448 102.186C183.376 102.167 183.309 102.134 183.25 102.089C183.304 101.422 183.221 100.75 183.006 100.116C182.358 100.368 182.032 101.061 181.803 101.711C181.661 102.387 181.362 103.022 180.931 103.563C180.833 103.665 180.687 103.757 180.561 103.699C180.434 103.641 180.41 103.447 180.419 103.292L180.517 101.75C180.517 102.114 180.402 102.468 180.19 102.765C179.978 103.061 179.678 103.284 179.333 103.403C179.138 102.609 179.235 101.771 179.606 101.042C179.406 101.255 179.382 101.575 179.235 101.827C179.089 102.079 178.68 102.235 178.529 101.982C178.478 101.876 178.468 101.756 178.5 101.643C178.586 101.014 178.735 100.395 178.943 99.7955L178.548 100.872C178.47 100.94 178.47 101.022 178.397 100.964Z" fill="#CAAEA5"/>
<path d="M246.572 77.4073C246.338 78.1447 245.944 78.8218 245.417 79.3905C243.985 81.0489 242.089 82.2272 240.277 83.4589C235.458 86.732 231.02 90.5675 225.806 93.2151C224.408 93.9279 222.937 94.568 221.797 95.6396C221.138 96.3 220.571 97.0453 220.111 97.8556C219.283 99.2206 218.599 100.667 218.069 102.171C217.095 104.872 215.794 107.413 214.717 110.065C213.563 112.912 212.33 115.753 210.508 118.226C209.285 119.885 207.687 121.432 205.635 121.839C203.687 122.222 201.65 121.466 200.076 120.263C198.502 119.06 197.323 117.455 196.178 115.87L196.149 115.836C195.862 115.443 195.569 115.041 195.311 114.619C194.929 114.044 194.659 113.402 194.517 112.728C194.477 112.492 194.455 112.254 194.449 112.015C194.449 110.638 195.048 109.285 195.652 108.019C197.871 103.374 200.088 98.7301 202.303 94.0879C202.303 94.0879 202.303 94.0879 202.303 94.0491C198.183 94.2106 194.157 95.3211 190.541 97.2931C189.573 97.8978 188.536 98.3861 187.452 98.7478C186.906 98.9225 186.326 98.9643 185.761 98.8698C185.196 98.7753 184.661 98.5473 184.202 98.2048C183.023 97.1719 183.072 95.2323 183.891 93.8988C184.709 92.5653 186.098 91.6925 187.443 90.8779C192.49 87.8424 197.971 84.8893 203.872 85.059C206.22 85.1269 209.631 84.6275 211.969 84.8845C216.895 85.4227 221.514 86.7611 225.499 83.8322C228.303 81.6675 231.26 79.7066 234.347 77.9649C236.52 76.8109 238.81 75.8701 241.091 74.9343C241.931 74.5366 242.831 74.2794 243.756 74.173C244.22 74.1246 244.689 74.1914 245.121 74.3674C245.553 74.5434 245.934 74.8231 246.231 75.1816C246.448 75.5051 246.591 75.8721 246.65 76.2567C246.709 76.6413 246.682 77.0341 246.572 77.4073Z" fill="url(#paint6_linear)" fill-opacity="0.81"/>
<path d="M213.742 77.3301L213.494 76.9664C213.372 76.7714 213.219 76.5977 213.041 76.4524C212.95 76.3816 212.841 76.3359 212.727 76.3197C212.612 76.3036 212.495 76.3175 212.388 76.3602C212.081 76.5057 211.725 76.6657 211.701 77.0052C211.693 77.7578 211.872 78.5006 212.222 79.1678C212.447 79.4629 212.626 79.7898 212.753 80.1376C212.78 80.3356 212.78 80.5362 212.753 80.7341C212.67 82.3633 213.396 84.0508 212.846 85.5831C212.656 86.1068 212.325 86.6014 212.359 87.159C212.389 87.572 212.576 87.9581 212.88 88.2404C213.187 88.5174 213.544 88.733 213.932 88.8756C214.524 89.1138 215.148 89.2641 215.784 89.3217C216.046 89.3775 216.32 89.3526 216.568 89.2504C216.815 89.1483 217.026 88.9736 217.172 88.7495C217.675 88.1564 218.078 87.4867 218.366 86.7663C219.267 86.2299 220.197 85.7442 221.153 85.3116C223.847 84.1769 225.143 81.0735 225.465 78.1786C225.616 76.8451 225.601 75.4341 224.978 74.2461C224.558 73.5078 223.953 72.8903 223.222 72.4536C222.491 72.0168 221.659 71.7757 220.807 71.7537C219.091 71.7399 217.432 72.3602 216.149 73.4945C215.034 74.4303 213.64 75.8705 213.742 77.3301Z" fill="#B8B3C7"/>
<path d="M224.194 70.3899C223.156 69.5995 221.758 69.5704 220.53 69.071C220.131 68.8757 219.721 68.7041 219.302 68.557C218.099 68.2224 216.866 68.7849 215.736 69.3522C215.092 69.6493 214.496 70.0399 213.967 70.5111C213.231 71.2288 212.832 72.2228 212.164 73.0035C211.497 73.7842 210.576 74.3176 209.777 74.9722C208.978 75.6268 208.252 76.49 208.184 77.5179C208.101 78.8029 209.066 79.9182 210.089 80.7135C211.112 81.5087 212.286 82.1682 212.939 83.3077L213.212 81.0189C213.261 80.8051 213.261 80.583 213.212 80.3692C213.117 80.1558 212.983 79.9618 212.817 79.797C212.2 79.0542 211.876 78.1129 211.906 77.1494C211.906 76.8779 211.989 76.5578 212.247 76.4609C212.505 76.3639 212.856 76.6403 213.056 76.907L214.323 78.609C214.14 77.7312 214.185 76.8218 214.453 75.966C214.72 75.1102 215.202 74.3361 215.853 73.7163C217.177 72.481 218.934 71.8093 220.749 71.8446C221.753 71.8446 222.849 72.1064 223.453 72.9065C224.057 73.7066 224.915 75.3019 225.266 73.2654C225.358 72.7346 225.307 72.189 225.119 71.6841C224.93 71.1791 224.611 70.7326 224.194 70.3899Z" fill="#3E3E54"/>
<path d="M245.742 72.3303C245.975 71.6222 246.303 70.9486 246.717 70.3276C247.085 69.9343 247.519 69.6064 247.998 69.3578C248.034 69.3296 248.076 69.3089 248.12 69.2973C248.164 69.2856 248.211 69.2831 248.256 69.2899C248.3 69.3104 248.338 69.3416 248.366 69.3806C248.394 69.4197 248.412 69.4652 248.417 69.513C248.553 70.0464 248.242 70.5992 248.29 71.1471C248.29 71.1714 248.294 71.1956 248.304 71.2181C248.313 71.2406 248.327 71.261 248.344 71.278C248.417 71.3362 248.519 71.278 248.587 71.215C249.27 70.568 249.995 69.9654 250.756 69.4112C251.523 68.851 252.455 68.5594 253.406 68.582C253.406 69.3287 252.778 69.9058 252.188 70.3713C252.959 69.7367 253.889 69.3227 254.878 69.1736C255.058 69.45 254.809 69.7991 254.575 70.0367L252.953 71.6708C253.628 71.1994 254.406 70.8967 255.223 70.7883C255.301 70.7641 255.385 70.7641 255.462 70.7883C255.522 70.8254 255.566 70.8826 255.586 70.9494C255.607 71.0162 255.603 71.0881 255.574 71.152C255.519 71.2812 255.43 71.3933 255.316 71.4769C254.399 72.2908 253.4 73.0075 252.334 73.6153C252.933 73.3375 253.567 73.1449 254.22 73.0431C254.252 73.2101 254.235 73.3826 254.172 73.5405C254.109 73.6985 254.002 73.8354 253.864 73.9353C253.448 74.2971 252.988 74.605 252.495 74.8518C251.594 75.429 250.593 75.8336 249.542 76.0446C248.88 76.1319 248.168 76.0786 247.594 76.4083C247.326 76.5635 247.106 76.7962 246.853 76.9708C246.603 77.1482 246.317 77.2692 246.014 77.3253C245.712 77.3814 245.402 77.3713 245.104 77.2957C244.841 77.2213 244.596 77.0914 244.388 76.9149C244.179 76.7384 244.012 76.5193 243.896 76.2726C243.739 75.9711 243.679 75.6294 243.724 75.2931C243.768 74.9568 243.915 74.6421 244.144 74.3911C244.81 73.8179 245.354 73.1171 245.742 72.3303Z" fill="#CAAEA5"/>
<path d="M203.958 98.8747C201.918 102.521 200.216 106.345 198.872 110.299C198.209 112.273 197.585 114.343 196.187 115.875C196.158 115.914 196.126 115.95 196.089 115.982C195.798 115.55 195.541 115.096 195.32 114.624C194.928 113.794 194.638 112.92 194.457 112.02C194.457 110.643 195.057 109.29 195.661 108.025C197.879 103.379 200.096 98.7357 202.311 94.0936C203.101 94.0208 203.997 94.3748 204.986 95.5046C205.78 96.4065 204.543 97.8273 203.958 98.8747Z" fill="url(#paint7_linear)"/>
<path d="M195.886 115.487C195.681 116.345 195.013 117.111 194.677 117.911C193.942 119.696 193.756 122.314 192.085 123.555C190.887 124.617 189.162 124.87 187.588 125.01C182.886 125.437 178.151 125.34 173.459 125.238C172.825 125.296 172.19 125.144 171.651 124.807C171.568 124.741 171.493 124.666 171.427 124.583C171.63 124.101 171.952 123.678 172.362 123.352C173.337 122.61 174.672 122.629 175.895 122.663C180.27 122.787 184.649 122.636 189.006 122.212C189.285 122.211 189.56 122.136 189.8 121.994C190.06 121.749 190.231 121.425 190.287 121.073C190.86 119.008 191.559 116.981 192.382 115.002C192.826 113.959 193.844 110.492 195.077 110.09C195.352 110.601 195.518 111.164 195.564 111.743C195.705 112.883 196.163 114.318 195.886 115.487Z" fill="url(#paint8_linear)"/>
<path d="M187.923 148.684C187.79 148.815 187.639 148.927 187.475 149.018C187.451 148.98 187.431 148.941 187.407 148.907C186.92 147.995 187.378 146.88 187.855 145.959C189.82 142.164 191.997 138.481 194.374 134.927C194.772 134.395 195.099 133.815 195.349 133.201C195.52 132.621 195.627 132.024 195.665 131.421C195.763 130.602 195.894 129.792 196.055 128.997C197.288 127.988 199.242 126.946 199.242 126.572C199.325 128.386 199.373 130.19 199.388 132.008C199.354 133.075 189.41 147.365 187.923 148.684Z" fill="#152242"/>
<path d="M212.708 77.476C212.64 77.4671 212.571 77.4796 212.511 77.5118C212.45 77.544 212.402 77.5942 212.372 77.6554C212.313 77.7816 212.303 77.9247 212.343 78.0579C212.387 78.1868 212.439 78.3131 212.498 78.4361C212.582 78.6739 212.695 78.9003 212.835 79.1101C212.905 79.2148 213.005 79.2965 213.122 79.3448C213.239 79.3931 213.368 79.4059 213.492 79.3817C213.548 79.3634 213.598 79.3318 213.639 79.2896C213.678 79.2238 213.699 79.1481 213.697 79.0713C213.708 78.7099 213.606 78.354 213.405 78.0531C213.32 77.9552 213.222 77.8702 213.112 77.8009C212.986 77.6942 212.888 77.51 212.708 77.476Z" fill="url(#paint9_linear)"/>
<path d="M256.981 79.5311L248.529 75.844C247.947 75.5903 247.269 75.8538 247.014 76.4327L245.727 79.3549C245.472 79.9338 245.737 80.6087 246.319 80.8624L254.77 84.5496C255.352 84.8033 256.03 84.5397 256.285 83.9609L257.572 81.0386C257.827 80.4598 257.562 79.7848 256.981 79.5311Z" fill="#1682D7"/>
<path d="M257.098 81.5684L247.058 77.1883C246.57 76.9754 246.001 77.1965 245.787 77.6822L245.76 77.7443C245.546 78.23 245.768 78.7962 246.256 79.0091L256.296 83.3893C256.784 83.6021 257.353 83.381 257.567 82.8954L257.594 82.8332C257.808 82.3476 257.586 81.7813 257.098 81.5684Z" fill="#1682D7"/>
<path d="M268.493 68.2089C267.837 69.7045 266.825 71.019 265.545 72.0396L257.506 79.8999L248.113 75.8025L248.975 64.1648C248.968 62.6549 249.3 61.1624 249.947 59.7965C250.593 58.4305 251.538 57.2256 252.713 56.2696C253.887 55.3136 255.261 54.6308 256.735 54.2709C258.208 53.9111 259.744 53.8833 261.23 54.1897C262.715 54.496 264.113 55.1287 265.322 56.0416C266.53 56.9545 267.519 58.1245 268.215 59.4662C268.911 60.8078 269.297 62.2873 269.345 63.7965C269.393 65.3057 269.102 66.8066 268.493 68.1895V68.2089Z" fill="#1682D7"/>
<path opacity="0.69" d="M268.493 68.2089C267.837 69.7045 266.825 71.019 265.545 72.0396L257.506 79.8999L248.113 75.8025L248.975 64.1648C248.968 62.6549 249.3 61.1624 249.947 59.7965C250.593 58.4305 251.538 57.2256 252.713 56.2696C253.887 55.3136 255.261 54.6308 256.735 54.2709C258.208 53.9111 259.744 53.8833 261.23 54.1897C262.715 54.496 264.113 55.1287 265.322 56.0416C266.53 56.9545 267.519 58.1245 268.215 59.4662C268.911 60.8078 269.297 62.2873 269.345 63.7965C269.393 65.3057 269.102 66.8066 268.493 68.1895V68.2089Z" fill="url(#paint10_radial)"/>
<path d="M251.478 77.4516C251.362 74.0033 252.014 70.5721 253.388 67.4044C253.695 66.6964 254.172 65.906 254.942 65.8333C255.892 65.746 256.545 66.8031 256.628 67.7729C256.679 68.3928 256.596 69.0163 256.385 69.6017C256.174 70.1871 255.84 70.7208 255.405 71.1672C255.249 70.2997 255.34 69.4062 255.668 68.5876C255.826 67.9583 256.126 67.373 256.545 66.8759C256.762 66.6328 257.045 66.4576 257.359 66.3715C257.674 66.2854 258.007 66.2922 258.318 66.3909C259.244 66.7595 259.39 68.0396 259.093 68.99C258.749 70.0726 258.051 71.0097 257.11 71.6521C257.174 70.985 257.413 70.3463 257.804 69.8006C258.195 69.2549 258.724 68.8214 259.337 68.5439C259.748 68.3449 260.211 68.2788 260.662 68.3548C260.886 68.3972 261.094 68.5015 261.261 68.6559C261.428 68.8103 261.548 69.0084 261.607 69.2276C261.646 69.4851 261.621 69.7482 261.534 69.9938C261.047 71.8122 259.668 73.2669 258.236 74.5082C256.803 75.7496 255.234 76.8551 254.06 78.3389" stroke="white" stroke-width="0.8" stroke-miterlimit="10"/>
<path d="M256.981 79.5311L248.529 75.844C247.947 75.5903 247.269 75.8538 247.014 76.4327L245.727 79.3549C245.472 79.9338 245.737 80.6087 246.319 80.8624L254.77 84.5496C255.352 84.8033 256.03 84.5397 256.285 83.9609L257.572 81.0386C257.827 80.4598 257.562 79.7848 256.981 79.5311Z" fill="#328BF3"/>
<path d="M257.098 81.5684L247.058 77.1883C246.57 76.9754 246.001 77.1965 245.787 77.6822L245.76 77.7443C245.546 78.23 245.768 78.7962 246.256 79.0091L256.296 83.3893C256.784 83.6021 257.353 83.381 257.567 82.8954L257.594 82.8332C257.808 82.3476 257.586 81.7813 257.098 81.5684Z" fill="#328BF3"/>
</g>
<defs>
<linearGradient id="paint0_linear" x1="56.5" y1="145" x2="20" y2="145" gradientUnits="userSpaceOnUse">
<stop stop-color="#1682D7" stop-opacity="0.54"/>
<stop offset="1" stop-color="#2948B6"/>
</linearGradient>
<linearGradient id="paint1_linear" x1="231" y1="18.9955" x2="231" y2="218.82" gradientUnits="userSpaceOnUse">
<stop stop-color="#1F4076"/>
<stop offset="1" stop-color="#1F4076" stop-opacity="0"/>
</linearGradient>
<linearGradient id="paint2_linear" x1="237.001" y1="113" x2="168.001" y2="179" gradientUnits="userSpaceOnUse">
<stop stop-color="#3472E9"/>
<stop offset="1" stop-color="#3472E9" stop-opacity="0"/>
</linearGradient>
<linearGradient id="paint3_linear" x1="246" y1="83.5" x2="155.5" y2="187.5" gradientUnits="userSpaceOnUse">
<stop stop-color="#2079E1"/>
<stop offset="1" stop-color="#2079E1" stop-opacity="0"/>
</linearGradient>
<linearGradient id="paint4_linear" x1="182.876" y1="153.96" x2="188.723" y2="153.96" gradientUnits="userSpaceOnUse">
<stop offset="0.01"/>
<stop offset="0.13" stop-opacity="0.69"/>
<stop offset="1" stop-opacity="0"/>
</linearGradient>
<linearGradient id="paint5_linear" x1="890.247" y1="2034.4" x2="977.909" y2="2034.4" gradientUnits="userSpaceOnUse">
<stop offset="0.01"/>
<stop offset="0.13" stop-opacity="0.69"/>
<stop offset="1" stop-opacity="0"/>
</linearGradient>
<linearGradient id="paint6_linear" x1="214.987" y1="74.1577" x2="214.987" y2="121.939" gradientUnits="userSpaceOnUse">
<stop stop-color="#5289F2"/>
<stop offset="1" stop-color="#0F44A4"/>
</linearGradient>
<linearGradient id="paint7_linear" x1="199.851" y1="94.0845" x2="199.851" y2="115.982" gradientUnits="userSpaceOnUse">
<stop stop-color="#152242"/>
<stop offset="1" stop-color="#152242" stop-opacity="0.56"/>
</linearGradient>
<linearGradient id="paint8_linear" x1="4296.68" y1="3744.13" x2="4031.82" y2="3054.51" gradientUnits="userSpaceOnUse">
<stop offset="0.01"/>
<stop offset="0.13" stop-opacity="0.69"/>
<stop offset="1" stop-opacity="0"/>
</linearGradient>
<linearGradient id="paint9_linear" x1="502.579" y1="325.359" x2="512.973" y2="334.859" gradientUnits="userSpaceOnUse">
<stop offset="0.01"/>
<stop offset="0.13" stop-opacity="0.69"/>
<stop offset="1" stop-opacity="0"/>
</linearGradient>
<radialGradient id="paint10_radial" cx="0" cy="0" r="1" gradientUnits="userSpaceOnUse" gradientTransform="translate(258.055 66.6221) rotate(-156.43) scale(11.4897 11.4525)">
<stop offset="0.34" stop-color="white"/>
<stop offset="1" stop-color="white" stop-opacity="0.39"/>
</radialGradient>
</defs>
</svg>
