<svg width="302" height="185" viewBox="0 0 302 185" fill="none" xmlns="http://www.w3.org/2000/svg">
<path d="M8 12C8 5.37259 13.3726 0 20 0H281C287.627 0 293 5.37258 293 12V175H8V12Z" fill="#0A244E"/>
<g filter="url(#filter0_d)">
<path d="M20 47C20 44.7909 21.7909 43 24 43H278C280.209 43 282 44.7909 282 47V75C282 77.2091 280.209 79 278 79H24C21.7909 79 20 77.2091 20 75V47Z" fill="url(#paint0_linear)"/>
</g>
<g filter="url(#filter1_d)">
<path d="M20 90C20 87.7909 21.7909 86 24 86H278C280.209 86 282 87.7909 282 90V118C282 120.209 280.209 122 278 122H24C21.7909 122 20 120.209 20 118V90Z" fill="url(#paint1_linear)"/>
</g>
<g filter="url(#filter2_d)">
<path d="M20 133C20 130.791 21.7909 129 24 129H278C280.209 129 282 130.791 282 133V161C282 163.209 280.209 165 278 165H24C21.7909 165 20 163.209 20 161V133Z" fill="url(#paint2_linear)"/>
</g>
<path d="M76.042 61.81C76.266 61.81 76.434 61.8613 76.546 61.964C76.6673 62.0667 76.728 62.2113 76.728 62.398C76.728 62.7993 76.4993 63 76.042 63H70.638C70.4327 63 70.2693 62.944 70.148 62.832C70.036 62.7107 69.98 62.5613 69.98 62.384C69.98 62.1693 70.064 61.9733 70.232 61.796L73.522 58.198C73.9607 57.722 74.278 57.288 74.474 56.896C74.67 56.504 74.768 56.1167 74.768 55.734C74.768 55.2393 74.6233 54.8613 74.334 54.6C74.054 54.3293 73.6527 54.194 73.13 54.194C72.3367 54.194 71.548 54.4973 70.764 55.104C70.6613 55.1693 70.5727 55.2207 70.498 55.258C70.4327 55.286 70.3627 55.3 70.288 55.3C70.1573 55.3 70.0453 55.2393 69.952 55.118C69.8587 54.9967 69.812 54.852 69.812 54.684C69.812 54.4507 69.9053 54.264 70.092 54.124C70.484 53.788 70.9553 53.522 71.506 53.326C72.0567 53.1207 72.612 53.018 73.172 53.018C74.096 53.018 74.8287 53.256 75.37 53.732C75.9207 54.1987 76.196 54.8333 76.196 55.636C76.196 56.2053 76.07 56.7467 75.818 57.26C75.5753 57.7733 75.1647 58.3473 74.586 58.982L71.94 61.81H76.042ZM84.3385 61.81C84.5625 61.81 84.7305 61.8613 84.8425 61.964C84.9545 62.0667 85.0105 62.2113 85.0105 62.398C85.0105 62.7993 84.7865 63 84.3385 63H79.6625C79.2052 63 78.9765 62.7993 78.9765 62.398C78.9765 62.2113 79.0325 62.0667 79.1445 61.964C79.2659 61.8613 79.4385 61.81 79.6625 61.81H81.2725V54.824L79.8305 55.734C79.7372 55.79 79.6439 55.818 79.5505 55.818C79.3919 55.818 79.2519 55.748 79.1305 55.608C79.0185 55.468 78.9625 55.3093 78.9625 55.132C78.9625 54.9173 79.0559 54.7493 79.2425 54.628L81.3985 53.256C81.6132 53.1253 81.8185 53.06 82.0145 53.06C82.2199 53.06 82.3879 53.1253 82.5185 53.256C82.6492 53.3867 82.7145 53.564 82.7145 53.788V61.81H84.3385ZM98.1045 61.964C98.2258 62.0947 98.2865 62.2393 98.2865 62.398C98.2865 62.5753 98.2165 62.734 98.0765 62.874C97.9365 63.0047 97.7778 63.07 97.6005 63.07C97.4045 63.07 97.2365 62.986 97.0965 62.818L94.0585 58.996L91.0065 62.818C90.8665 62.986 90.7031 63.07 90.5165 63.07C90.3391 63.07 90.1805 63.0047 90.0405 62.874C89.9005 62.734 89.8305 62.5753 89.8305 62.398C89.8305 62.2487 89.8865 62.104 89.9985 61.964L93.2185 57.974L90.1525 54.166C90.0405 54.0447 89.9845 53.9 89.9845 53.732C89.9845 53.5547 90.0498 53.4007 90.1805 53.27C90.3205 53.13 90.4791 53.06 90.6565 53.06C90.8525 53.06 91.0205 53.144 91.1605 53.312L94.0585 56.966L96.9565 53.312C97.0871 53.144 97.2551 53.06 97.4605 53.06C97.6378 53.06 97.7965 53.13 97.9365 53.27C98.0765 53.4007 98.1465 53.5547 98.1465 53.732C98.1465 53.8907 98.0858 54.0353 97.9645 54.166L94.8985 57.974L98.1045 61.964ZM100.503 63.07C100.288 63.07 100.115 63.0047 99.9846 62.874C99.854 62.7433 99.7886 62.566 99.7886 62.342V53.788C99.7886 53.5733 99.854 53.4007 99.9846 53.27C100.115 53.13 100.288 53.06 100.503 53.06C100.727 53.06 100.904 53.1253 101.035 53.256C101.165 53.3867 101.231 53.564 101.231 53.788V62.342C101.231 62.566 101.165 62.7433 101.035 62.874C100.913 63.0047 100.736 63.07 100.503 63.07ZM110.941 53.06C111.146 53.06 111.31 53.13 111.431 53.27C111.562 53.4007 111.627 53.5733 111.627 53.788V62.342C111.627 62.5567 111.562 62.734 111.431 62.874C111.3 63.0047 111.132 63.07 110.927 63.07C110.684 63.07 110.498 62.9767 110.367 62.79L104.879 55.552V62.342C104.879 62.5567 104.814 62.734 104.683 62.874C104.562 63.0047 104.398 63.07 104.193 63.07C103.988 63.07 103.824 63.0047 103.703 62.874C103.582 62.7433 103.521 62.566 103.521 62.342V53.788C103.521 53.5733 103.586 53.4007 103.717 53.27C103.848 53.13 104.016 53.06 104.221 53.06C104.464 53.06 104.65 53.1533 104.781 53.34L110.269 60.592V53.788C110.269 53.5733 110.33 53.4007 110.451 53.27C110.572 53.13 110.736 53.06 110.941 53.06Z" fill="#82A5DC"/>
<path d="M76.042 99.13C76.2473 99.13 76.4013 99.186 76.504 99.298C76.616 99.41 76.672 99.5547 76.672 99.732C76.672 99.9 76.6207 100.077 76.518 100.264L71.94 108.72C71.7907 108.981 71.5853 109.112 71.324 109.112C71.1467 109.112 70.9833 109.051 70.834 108.93C70.694 108.799 70.624 108.641 70.624 108.454C70.624 108.342 70.6613 108.211 70.736 108.062L74.95 100.32H70.4C70.176 100.32 70.008 100.269 69.896 100.166C69.784 100.063 69.728 99.9187 69.728 99.732C69.728 99.3307 69.952 99.13 70.4 99.13H76.042ZM88.0439 103.918C88.6133 104.077 89.0519 104.361 89.3599 104.772C89.6773 105.183 89.8359 105.696 89.8359 106.312C89.8359 107.161 89.5419 107.824 88.9539 108.3C88.3753 108.767 87.5633 109 86.5179 109H82.9479C82.7239 109 82.5466 108.939 82.4159 108.818C82.2946 108.687 82.2339 108.515 82.2339 108.3V99.83C82.2339 99.6153 82.2946 99.4473 82.4159 99.326C82.5466 99.1953 82.7239 99.13 82.9479 99.13H86.3639C87.3813 99.13 88.1746 99.3587 88.7439 99.816C89.3226 100.264 89.6119 100.894 89.6119 101.706C89.6119 102.229 89.4719 102.681 89.1919 103.064C88.9213 103.447 88.5386 103.731 88.0439 103.918ZM83.6479 103.4H86.1399C87.5213 103.4 88.2119 102.877 88.2119 101.832C88.2119 101.309 88.0393 100.922 87.6939 100.67C87.3579 100.418 86.8399 100.292 86.1399 100.292H83.6479V103.4ZM86.3639 107.838C87.0826 107.838 87.6099 107.707 87.9459 107.446C88.2819 107.185 88.4499 106.779 88.4499 106.228C88.4499 105.668 88.2773 105.253 87.9319 104.982C87.5959 104.702 87.0733 104.562 86.3639 104.562H83.6479V107.838H86.3639ZM94.6655 109.07C94.4508 109.07 94.2735 109.005 94.1335 108.874C94.0028 108.734 93.9375 108.557 93.9375 108.342V100.334H91.1375C90.6895 100.334 90.4655 100.133 90.4655 99.732C90.4655 99.536 90.5215 99.3867 90.6335 99.284C90.7548 99.1813 90.9228 99.13 91.1375 99.13H98.1935C98.4082 99.13 98.5715 99.1813 98.6835 99.284C98.8048 99.3867 98.8655 99.536 98.8655 99.732C98.8655 100.133 98.6415 100.334 98.1935 100.334H95.3935V108.342C95.3935 108.557 95.3282 108.734 95.1975 108.874C95.0668 109.005 94.8895 109.07 94.6655 109.07ZM103.759 109.112C102.816 109.112 101.995 108.911 101.295 108.51C100.595 108.099 100.058 107.516 99.6845 106.76C99.3112 105.995 99.1245 105.094 99.1245 104.058C99.1245 103.031 99.3112 102.14 99.6845 101.384C100.058 100.619 100.595 100.035 101.295 99.634C101.995 99.2233 102.816 99.018 103.759 99.018C104.375 99.018 104.958 99.116 105.508 99.312C106.059 99.4987 106.54 99.774 106.951 100.138C107.128 100.278 107.217 100.465 107.217 100.698C107.217 100.866 107.17 101.011 107.077 101.132C106.983 101.244 106.871 101.3 106.741 101.3C106.582 101.3 106.428 101.239 106.279 101.118C105.831 100.782 105.42 100.549 105.047 100.418C104.683 100.278 104.267 100.208 103.801 100.208C102.774 100.208 101.985 100.539 101.435 101.202C100.884 101.865 100.609 102.817 100.609 104.058C100.609 105.309 100.884 106.265 101.435 106.928C101.985 107.591 102.774 107.922 103.801 107.922C104.249 107.922 104.655 107.852 105.019 107.712C105.392 107.572 105.812 107.339 106.279 107.012C106.465 106.891 106.619 106.83 106.741 106.83C106.871 106.83 106.983 106.891 107.077 107.012C107.17 107.124 107.217 107.264 107.217 107.432C107.217 107.665 107.128 107.852 106.951 107.992C106.54 108.356 106.059 108.636 105.508 108.832C104.958 109.019 104.375 109.112 103.759 109.112Z" fill="#82A5DC"/>
<path d="M74.992 147.932C75.5707 148.1 76.0187 148.399 76.336 148.828C76.6533 149.257 76.812 149.771 76.812 150.368C76.812 151.227 76.4947 151.899 75.86 152.384C75.2347 152.86 74.348 153.098 73.2 153.098C72.052 153.098 71.1607 152.86 70.526 152.384C69.9007 151.899 69.588 151.227 69.588 150.368C69.588 149.761 69.7467 149.243 70.064 148.814C70.3907 148.385 70.8433 148.091 71.422 147.932C70.9273 147.745 70.5353 147.451 70.246 147.05C69.966 146.649 69.826 146.182 69.826 145.65C69.826 144.838 70.1247 144.199 70.722 143.732C71.3193 143.256 72.1453 143.018 73.2 143.018C74.2547 143.018 75.0807 143.256 75.678 143.732C76.2753 144.199 76.574 144.838 76.574 145.65C76.574 146.182 76.4293 146.653 76.14 147.064C75.86 147.465 75.4773 147.755 74.992 147.932ZM73.2 144.18C72.5467 144.18 72.052 144.32 71.716 144.6C71.38 144.871 71.212 145.263 71.212 145.776C71.212 146.308 71.38 146.714 71.716 146.994C72.052 147.274 72.5467 147.414 73.2 147.414C73.8533 147.414 74.348 147.274 74.684 146.994C75.02 146.714 75.188 146.308 75.188 145.776C75.188 145.263 75.02 144.871 74.684 144.6C74.348 144.32 73.8533 144.18 73.2 144.18ZM73.2 151.936C74.684 151.936 75.426 151.381 75.426 150.27C75.426 149.15 74.684 148.59 73.2 148.59C71.716 148.59 70.974 149.15 70.974 150.27C70.974 151.381 71.716 151.936 73.2 151.936ZM84.4365 151.81C84.6605 151.81 84.8285 151.861 84.9405 151.964C85.0619 152.067 85.1225 152.211 85.1225 152.398C85.1225 152.799 84.8939 153 84.4365 153H79.0325C78.8272 153 78.6639 152.944 78.5425 152.832C78.4305 152.711 78.3745 152.561 78.3745 152.384C78.3745 152.169 78.4585 151.973 78.6265 151.796L81.9165 148.198C82.3552 147.722 82.6725 147.288 82.8685 146.896C83.0645 146.504 83.1625 146.117 83.1625 145.734C83.1625 145.239 83.0179 144.861 82.7285 144.6C82.4485 144.329 82.0472 144.194 81.5245 144.194C80.7312 144.194 79.9425 144.497 79.1585 145.104C79.0559 145.169 78.9672 145.221 78.8925 145.258C78.8272 145.286 78.7572 145.3 78.6825 145.3C78.5519 145.3 78.4399 145.239 78.3465 145.118C78.2532 144.997 78.2065 144.852 78.2065 144.684C78.2065 144.451 78.2999 144.264 78.4865 144.124C78.8785 143.788 79.3499 143.522 79.9005 143.326C80.4512 143.121 81.0065 143.018 81.5665 143.018C82.4905 143.018 83.2232 143.256 83.7645 143.732C84.3152 144.199 84.5905 144.833 84.5905 145.636C84.5905 146.205 84.4645 146.747 84.2125 147.26C83.9699 147.773 83.5592 148.347 82.9805 148.982L80.3345 151.81H84.4365ZM89.6811 143.018C90.9037 143.018 91.8417 143.438 92.4951 144.278C93.1577 145.109 93.4891 146.299 93.4891 147.848C93.4891 148.94 93.3351 149.883 93.0271 150.676C92.7191 151.46 92.2757 152.062 91.6971 152.482C91.1184 152.902 90.4324 153.112 89.6391 153.112C89.1071 153.112 88.5751 153.014 88.0431 152.818C87.5111 152.622 87.0584 152.351 86.6851 152.006C86.4984 151.847 86.4051 151.661 86.4051 151.446C86.4051 151.278 86.4517 151.138 86.5451 151.026C86.6384 150.905 86.7504 150.844 86.8811 150.844C86.9651 150.844 87.0397 150.858 87.1051 150.886C87.1797 150.914 87.2637 150.961 87.3571 151.026C88.1411 151.633 88.8877 151.936 89.5971 151.936C90.3717 151.936 90.9737 151.581 91.4031 150.872C91.8324 150.153 92.0471 149.155 92.0471 147.876V147.848C91.8417 148.324 91.5057 148.702 91.0391 148.982C90.5817 149.253 90.0637 149.388 89.4851 149.388C88.8971 149.388 88.3697 149.257 87.9031 148.996C87.4364 148.725 87.0724 148.352 86.8111 147.876C86.5591 147.4 86.4331 146.854 86.4331 146.238C86.4331 145.622 86.5731 145.071 86.8531 144.586C87.1331 144.091 87.5157 143.709 88.0011 143.438C88.4957 143.158 89.0557 143.018 89.6811 143.018ZM89.7511 148.212C90.3391 148.212 90.8151 148.03 91.1791 147.666C91.5524 147.293 91.7391 146.807 91.7391 146.21C91.7391 145.603 91.5571 145.118 91.1931 144.754C90.8291 144.381 90.3484 144.194 89.7511 144.194C89.1724 144.194 88.7057 144.381 88.3511 144.754C88.0057 145.118 87.8331 145.603 87.8331 146.21C87.8331 146.807 88.0057 147.293 88.3511 147.666C88.7057 148.03 89.1724 148.212 89.7511 148.212ZM102.971 153.112C101.655 153.112 100.656 152.771 99.975 152.09C99.2937 151.409 98.953 150.405 98.953 149.08V143.788C98.953 143.564 99.0183 143.387 99.149 143.256C99.2797 143.125 99.4523 143.06 99.667 143.06C99.8817 143.06 100.054 143.125 100.185 143.256C100.316 143.387 100.381 143.564 100.381 143.788V149.178C100.381 150.083 100.596 150.769 101.025 151.236C101.464 151.703 102.112 151.936 102.971 151.936C103.82 151.936 104.464 151.703 104.903 151.236C105.342 150.769 105.561 150.083 105.561 149.178V143.788C105.561 143.573 105.626 143.401 105.757 143.27C105.888 143.13 106.06 143.06 106.275 143.06C106.49 143.06 106.662 143.125 106.793 143.256C106.924 143.387 106.989 143.564 106.989 143.788V149.08C106.989 150.396 106.644 151.399 105.953 152.09C105.272 152.771 104.278 153.112 102.971 153.112ZM112.471 153.112C111.761 153.112 111.085 153.014 110.441 152.818C109.806 152.622 109.297 152.351 108.915 152.006C108.737 151.857 108.649 151.665 108.649 151.432C108.649 151.264 108.695 151.124 108.789 151.012C108.882 150.891 108.994 150.83 109.125 150.83C109.255 150.83 109.414 150.891 109.601 151.012C110.431 151.628 111.379 151.936 112.443 151.936C113.189 151.936 113.763 151.796 114.165 151.516C114.566 151.236 114.767 150.835 114.767 150.312C114.767 149.901 114.58 149.593 114.207 149.388C113.833 149.183 113.236 148.987 112.415 148.8C111.631 148.632 110.987 148.441 110.483 148.226C109.979 148.011 109.582 147.722 109.293 147.358C109.013 146.985 108.873 146.513 108.873 145.944C108.873 145.375 109.027 144.871 109.335 144.432C109.652 143.984 110.091 143.639 110.651 143.396C111.211 143.144 111.85 143.018 112.569 143.018C113.231 143.018 113.843 143.111 114.403 143.298C114.963 143.485 115.439 143.76 115.831 144.124C116.017 144.283 116.111 144.474 116.111 144.698C116.111 144.857 116.059 144.997 115.957 145.118C115.863 145.239 115.751 145.3 115.621 145.3C115.499 145.3 115.345 145.239 115.159 145.118C114.729 144.791 114.323 144.558 113.941 144.418C113.567 144.269 113.115 144.194 112.583 144.194C111.864 144.194 111.304 144.343 110.903 144.642C110.501 144.931 110.301 145.337 110.301 145.86C110.301 146.308 110.478 146.649 110.833 146.882C111.187 147.106 111.757 147.311 112.541 147.498C113.362 147.685 114.025 147.881 114.529 148.086C115.042 148.282 115.448 148.557 115.747 148.912C116.055 149.257 116.209 149.705 116.209 150.256C116.209 150.816 116.05 151.315 115.733 151.754C115.425 152.183 114.986 152.519 114.417 152.762C113.857 152.995 113.208 153.112 112.471 153.112ZM118.7 153C118.476 153 118.299 152.939 118.168 152.818C118.047 152.687 117.986 152.515 117.986 152.3V143.83C117.986 143.615 118.047 143.447 118.168 143.326C118.299 143.195 118.476 143.13 118.7 143.13H121.444C123.04 143.13 124.277 143.559 125.154 144.418C126.031 145.277 126.47 146.49 126.47 148.058C126.47 149.626 126.031 150.844 125.154 151.712C124.277 152.571 123.04 153 121.444 153H118.7ZM121.36 151.796C123.787 151.796 125 150.55 125 148.058C125 145.575 123.787 144.334 121.36 144.334H119.428V151.796H121.36ZM130.91 153.07C130.695 153.07 130.518 153.005 130.378 152.874C130.247 152.734 130.182 152.557 130.182 152.342V144.334H127.382C126.934 144.334 126.71 144.133 126.71 143.732C126.71 143.536 126.766 143.387 126.878 143.284C126.999 143.181 127.167 143.13 127.382 143.13H134.438C134.652 143.13 134.816 143.181 134.928 143.284C135.049 143.387 135.11 143.536 135.11 143.732C135.11 144.133 134.886 144.334 134.438 144.334H131.638V152.342C131.638 152.557 131.572 152.734 131.442 152.874C131.311 153.005 131.134 153.07 130.91 153.07Z" fill="#82A5DC"/>
<path d="M270 57H224C222.895 57 222 57.8954 222 59C222 60.1046 222.895 61 224 61H270C271.105 61 272 60.1046 272 59C272 57.8954 271.105 57 270 57Z" fill="#82A5DC"/>
<path d="M270 102H224C222.895 102 222 102.895 222 104C222 105.105 222.895 106 224 106H270C271.105 106 272 105.105 272 104C272 102.895 271.105 102 270 102Z" fill="#82A5DC"/>
<path d="M270 146H224C222.895 146 222 146.895 222 148C222 149.105 222.895 150 224 150H270C271.105 150 272 149.105 272 148C272 146.895 271.105 146 270 146Z" fill="#82A5DC"/>
<path d="M203 57H157C155.895 57 155 57.8954 155 59C155 60.1046 155.895 61 157 61H203C204.105 61 205 60.1046 205 59C205 57.8954 204.105 57 203 57Z" fill="#82A5DC"/>
<path d="M203 102H157C155.895 102 155 102.895 155 104C155 105.105 155.895 106 157 106H203C204.105 106 205 105.105 205 104C205 102.895 204.105 102 203 102Z" fill="#82A5DC"/>
<path d="M203 146H157C155.895 146 155 146.895 155 148C155 149.105 155.895 150 157 150H203C204.105 150 205 149.105 205 148C205 146.895 204.105 146 203 146Z" fill="#82A5DC"/>
<circle cx="46" cy="60" r="10" fill="#D6E2FF"/>
<circle cx="46" cy="60" r="10" fill="#2E8CD0"/>
<circle cx="46" cy="103" r="10" fill="#D6E2FF"/>
<circle cx="46" cy="103" r="10" fill="#B97A57"/>
<circle cx="46" cy="147" r="10" fill="#D6E2FF"/>
<circle cx="46" cy="147" r="10" fill="#4D9B92"/>
<path d="M35.7191 15.019C36.0176 15.019 36.2618 15.1138 36.4518 15.3036C36.6417 15.4807 36.7367 15.7147 36.7367 16.0056V27.6551C36.7367 27.9461 36.6485 28.1737 36.4721 28.3382C36.3093 28.5026 36.0787 28.5848 35.7802 28.5848C35.4953 28.5848 35.2714 28.5026 35.1086 28.3382C34.9458 28.1737 34.8644 27.9461 34.8644 27.6551V18.8326L30.8757 25.9096C30.6179 26.3523 30.2855 26.5737 29.8785 26.5737C29.4715 26.5737 29.1391 26.3523 28.8813 25.9096L24.8723 18.9085V27.6551C24.8723 27.9461 24.7909 28.1737 24.6281 28.3382C24.4652 28.5026 24.2346 28.5848 23.9361 28.5848C23.6512 28.5848 23.4206 28.5026 23.2442 28.3382C23.0814 28.1611 23 27.9334 23 27.6551V16.0056C23 15.7147 23.095 15.4807 23.2849 15.3036C23.4748 15.1138 23.7191 15.019 24.0175 15.019C24.4381 15.019 24.7773 15.2467 25.0351 15.702L29.8989 24.3728L34.722 15.702C34.9797 15.2467 35.3121 15.019 35.7191 15.019Z" fill="#A6B8D5"/>
<path d="M46.9083 19.6105C46.9897 19.4208 47.1051 19.2816 47.2543 19.1931C47.4171 19.1045 47.5867 19.0603 47.7631 19.0603C48.0208 19.0603 48.2447 19.1425 48.4346 19.3069C48.6381 19.4714 48.7399 19.6674 48.7399 19.8951C48.7399 20.0216 48.7127 20.1417 48.6585 20.2556L43.001 31.4498C42.9196 31.6269 42.7975 31.7597 42.6347 31.8482C42.4855 31.9494 42.3227 32 42.1463 32C41.9021 32 41.6782 31.9241 41.4747 31.7723C41.2848 31.6205 41.1898 31.4308 41.1898 31.2031C41.1898 31.1019 41.2237 30.9754 41.2916 30.8237L42.6957 28.0346L38.7681 20.2556C38.7138 20.1544 38.6867 20.0406 38.6867 19.9141C38.6867 19.6737 38.7952 19.4714 39.0123 19.3069C39.2294 19.1425 39.4736 19.0603 39.7449 19.0603C40.1519 19.0603 40.4436 19.2374 40.62 19.5915L43.7743 26.1183L46.9083 19.6105Z" fill="#A6B8D5"/>
<path d="M68.769 15.019C69.0675 15.019 69.3117 15.1138 69.5017 15.3036C69.6916 15.4807 69.7866 15.7147 69.7866 16.0056V27.6551C69.7866 27.9461 69.6984 28.1737 69.522 28.3382C69.3592 28.5026 69.1286 28.5848 68.8301 28.5848C68.5452 28.5848 68.3213 28.5026 68.1585 28.3382C67.9957 28.1737 67.9143 27.9461 67.9143 27.6551V18.8326L63.9256 25.9096C63.6678 26.3523 63.3354 26.5737 62.9284 26.5737C62.5214 26.5737 62.189 26.3523 61.9312 25.9096L57.9222 18.9085V27.6551C57.9222 27.9461 57.8407 28.1737 57.6779 28.3382C57.5151 28.5026 57.2845 28.5848 56.986 28.5848C56.7011 28.5848 56.4705 28.5026 56.2941 28.3382C56.1313 28.1611 56.0499 27.9334 56.0499 27.6551V16.0056C56.0499 15.7147 56.1449 15.4807 56.3348 15.3036C56.5247 15.1138 56.769 15.019 57.0674 15.019C57.488 15.019 57.8272 15.2467 58.085 15.702L62.9488 24.3728L67.7719 15.702C68.0296 15.2467 68.362 15.019 68.769 15.019Z" fill="#A6B8D5"/>
<path d="M73.9344 28.5848C73.636 28.5848 73.385 28.5089 73.1815 28.3571C72.9915 28.2054 72.8966 27.9777 72.8966 27.6741V19.971C72.8966 19.6674 72.9915 19.4397 73.1815 19.2879C73.385 19.1235 73.636 19.0413 73.9344 19.0413C74.2329 19.0413 74.4771 19.1235 74.6671 19.2879C74.857 19.4397 74.952 19.6674 74.952 19.971V27.6741C74.952 27.9777 74.857 28.2054 74.6671 28.3571C74.4771 28.5089 74.2329 28.5848 73.9344 28.5848ZM73.9344 17.1819C73.541 17.1819 73.229 17.0807 72.9983 16.8783C72.7677 16.676 72.6523 16.4103 72.6523 16.0815C72.6523 15.7526 72.7677 15.4933 72.9983 15.3036C73.229 15.1012 73.541 15 73.9344 15C74.3143 15 74.6196 15.1012 74.8502 15.3036C75.0944 15.4933 75.2165 15.7526 75.2165 16.0815C75.2165 16.4103 75.1012 16.676 74.8706 16.8783C74.6399 17.0807 74.3279 17.1819 73.9344 17.1819Z" fill="#A6B8D5"/>
<path d="M86.1893 27.048C86.3928 27.2377 86.4946 27.4591 86.4946 27.7121C86.4946 27.9524 86.3996 28.1611 86.2097 28.3382C86.0333 28.5026 85.8162 28.5848 85.5585 28.5848C85.3007 28.5848 85.0633 28.4773 84.8462 28.2623L81.7325 24.9989L78.6393 28.2623C78.4222 28.4773 78.1848 28.5848 77.927 28.5848C77.6692 28.5848 77.4453 28.4963 77.2554 28.3192C77.079 28.1421 76.9908 27.9334 76.9908 27.6931C76.9908 27.4528 77.0858 27.2377 77.2758 27.048L80.4912 23.7467L77.4386 20.5781C77.2351 20.3631 77.1333 20.1481 77.1333 19.933C77.1333 19.6927 77.2283 19.4903 77.4182 19.3259C77.6082 19.1488 77.8252 19.0603 78.0694 19.0603C78.3272 19.0603 78.5646 19.1678 78.7817 19.3828L81.7325 22.4944L84.6834 19.3828C84.9005 19.1678 85.1447 19.0603 85.416 19.0603C85.6602 19.0603 85.8773 19.1488 86.0672 19.3259C86.2572 19.4903 86.3521 19.6927 86.3521 19.933C86.3521 20.1734 86.2504 20.3884 86.0469 20.5781L82.9943 23.7467L86.1893 27.048Z" fill="#A6B8D5"/>
<path d="M89.5551 28.5848C89.2567 28.5848 89.0057 28.5089 88.8022 28.3571C88.6122 28.2054 88.5173 27.9777 88.5173 27.6741V19.971C88.5173 19.6674 88.6122 19.4397 88.8022 19.2879C89.0057 19.1235 89.2567 19.0413 89.5551 19.0413C89.8536 19.0413 90.0978 19.1235 90.2878 19.2879C90.4777 19.4397 90.5727 19.6674 90.5727 19.971V27.6741C90.5727 27.9777 90.4777 28.2054 90.2878 28.3571C90.0978 28.5089 89.8536 28.5848 89.5551 28.5848ZM89.5551 17.1819C89.1617 17.1819 88.8496 17.0807 88.619 16.8783C88.3884 16.676 88.273 16.4103 88.273 16.0815C88.273 15.7526 88.3884 15.4933 88.619 15.3036C88.8496 15.1012 89.1617 15 89.5551 15C89.935 15 90.2403 15.1012 90.4709 15.3036C90.7151 15.4933 90.8372 15.7526 90.8372 16.0815C90.8372 16.4103 90.7219 16.676 90.4913 16.8783C90.2606 17.0807 89.9486 17.1819 89.5551 17.1819Z" fill="#A6B8D5"/>
<path d="M98.7981 19.0033C101.172 19.0033 102.359 20.2493 102.359 22.7411V27.6741C102.359 27.965 102.265 28.1927 102.075 28.3571C101.898 28.5089 101.647 28.5848 101.322 28.5848C101.01 28.5848 100.759 28.5026 100.569 28.3382C100.392 28.1737 100.304 27.9524 100.304 27.6741V22.8359C100.304 22.0517 100.134 21.4762 99.7953 21.1094C99.4697 20.7426 98.9542 20.5592 98.2487 20.5592C97.4211 20.5592 96.7563 20.7995 96.2543 21.2801C95.7523 21.7608 95.5013 22.4059 95.5013 23.2154V27.6741C95.5013 27.9524 95.4064 28.1737 95.2164 28.3382C95.0401 28.5026 94.7958 28.5848 94.4838 28.5848C94.1718 28.5848 93.9208 28.5026 93.7308 28.3382C93.5409 28.1737 93.4459 27.9524 93.4459 27.6741V19.952C93.4459 19.6864 93.5409 19.4714 93.7308 19.3069C93.9343 19.1298 94.1853 19.0413 94.4838 19.0413C94.7823 19.0413 95.0197 19.1235 95.1961 19.2879C95.3725 19.4524 95.4606 19.6674 95.4606 19.933V20.7109C95.7862 20.1544 96.2407 19.7307 96.8241 19.4397C97.4075 19.1488 98.0655 19.0033 98.7981 19.0033Z" fill="#A6B8D5"/>
<path d="M128.975 15.6071C129.056 15.4048 129.178 15.253 129.341 15.1518C129.504 15.0506 129.687 15 129.891 15C130.148 15 130.372 15.0822 130.562 15.2467C130.766 15.3984 130.868 15.6008 130.868 15.8538C130.868 15.9929 130.84 16.1194 130.786 16.2333L126.289 27.9587C126.194 28.1737 126.044 28.3382 125.841 28.452C125.637 28.5658 125.414 28.6228 125.169 28.6228C124.939 28.6228 124.722 28.5658 124.518 28.452C124.315 28.3382 124.172 28.1737 124.091 27.9587L120.387 18.1685L116.602 27.9587C116.52 28.1737 116.378 28.3382 116.174 28.452C115.971 28.5658 115.754 28.6228 115.523 28.6228C115.279 28.6228 115.055 28.5658 114.852 28.452C114.662 28.3382 114.519 28.1737 114.424 27.9587L109.927 16.2333C109.872 16.1194 109.845 15.9929 109.845 15.8538C109.845 15.6008 109.947 15.3984 110.151 15.2467C110.354 15.0822 110.598 15 110.883 15C111.087 15 111.27 15.0506 111.433 15.1518C111.609 15.253 111.738 15.4048 111.819 15.6071L115.584 25.7009L119.41 15.702C119.492 15.487 119.62 15.3225 119.797 15.2087C119.987 15.0949 120.19 15.0379 120.407 15.0379C120.624 15.0379 120.821 15.1012 120.997 15.2277C121.174 15.3415 121.31 15.506 121.405 15.721L125.149 25.7958L128.975 15.6071Z" fill="#A6B8D5"/>
<path d="M136.053 19.0033C137.369 19.0033 138.346 19.3132 138.984 19.933C139.635 20.5528 139.961 21.4952 139.961 22.76V27.6741C139.961 27.965 139.873 28.1927 139.696 28.3571C139.52 28.5089 139.276 28.5848 138.964 28.5848C138.665 28.5848 138.428 28.5026 138.251 28.3382C138.075 28.1737 137.987 27.9524 137.987 27.6741V26.9721C137.729 27.5033 137.342 27.9144 136.827 28.2054C136.325 28.4836 135.735 28.6228 135.056 28.6228C134.405 28.6228 133.808 28.5026 133.265 28.2623C132.723 28.0093 132.295 27.6615 131.983 27.2188C131.685 26.776 131.536 26.2827 131.536 25.7388C131.536 25.0685 131.719 24.5435 132.085 24.1641C132.465 23.7719 133.082 23.4937 133.937 23.3292C134.805 23.1648 135.992 23.0826 137.498 23.0826H137.966V22.5324C137.966 21.824 137.81 21.3118 137.498 20.9955C137.186 20.6793 136.684 20.5212 135.992 20.5212C135.518 20.5212 135.07 20.5781 134.649 20.692C134.229 20.8058 133.767 20.9702 133.265 21.1853C132.899 21.375 132.641 21.4699 132.492 21.4699C132.289 21.4699 132.119 21.4003 131.983 21.2612C131.861 21.122 131.8 20.9449 131.8 20.7299C131.8 20.5402 131.854 20.3757 131.963 20.2366C132.085 20.0848 132.275 19.9394 132.533 19.8002C133.008 19.5599 133.564 19.3702 134.202 19.231C134.839 19.0792 135.457 19.0033 136.053 19.0033ZM135.423 27.1998C136.169 27.1998 136.779 26.9658 137.254 26.4978C137.729 26.0171 137.966 25.4036 137.966 24.6574V24.1641H137.6C136.542 24.1641 135.728 24.2083 135.158 24.2969C134.588 24.3854 134.181 24.5372 133.937 24.7522C133.693 24.9546 133.571 25.2519 133.571 25.644C133.571 26.0993 133.747 26.4725 134.1 26.7634C134.453 27.0543 134.893 27.1998 135.423 27.1998Z" fill="#A6B8D5"/>
<path d="M143.81 28.5848C143.512 28.5848 143.261 28.5089 143.057 28.3571C142.867 28.2054 142.772 27.9777 142.772 27.6741V15.9487C142.772 15.6451 142.867 15.4174 143.057 15.2656C143.261 15.1012 143.512 15.019 143.81 15.019C144.109 15.019 144.353 15.1012 144.543 15.2656C144.733 15.4174 144.828 15.6451 144.828 15.9487V27.6741C144.828 27.9777 144.733 28.2054 144.543 28.3571C144.353 28.5089 144.109 28.5848 143.81 28.5848Z" fill="#A6B8D5"/>
<path d="M148.739 28.5848C148.44 28.5848 148.189 28.5089 147.986 28.3571C147.796 28.2054 147.701 27.9777 147.701 27.6741V15.9487C147.701 15.6451 147.796 15.4174 147.986 15.2656C148.189 15.1012 148.44 15.019 148.739 15.019C149.037 15.019 149.282 15.1012 149.472 15.2656C149.661 15.4174 149.756 15.6451 149.756 15.9487V27.6741C149.756 27.9777 149.661 28.2054 149.472 28.3571C149.282 28.5089 149.037 28.5848 148.739 28.5848Z" fill="#A6B8D5"/>
<path d="M160.404 26.1562C160.594 26.1562 160.75 26.2258 160.872 26.365C160.994 26.5041 161.055 26.6812 161.055 26.8962C161.055 27.263 160.811 27.5729 160.322 27.8259C159.847 28.0789 159.325 28.2749 158.755 28.4141C158.199 28.5532 157.663 28.6228 157.148 28.6228C155.574 28.6228 154.332 28.199 153.423 27.3516C152.514 26.4914 152.06 25.3214 152.06 23.8415C152.06 22.8929 152.257 22.0517 152.65 21.3181C153.057 20.5844 153.62 20.0153 154.339 19.6105C155.072 19.2057 155.899 19.0033 156.822 19.0033C158.151 19.0033 159.203 19.4018 159.976 20.1987C160.75 20.9955 161.136 22.0707 161.136 23.4241C161.136 23.9301 160.892 24.183 160.404 24.183H154.115C154.251 26.1436 155.262 27.1239 157.148 27.1239C157.649 27.1239 158.084 27.0606 158.45 26.9342C158.816 26.8077 159.203 26.6432 159.61 26.4408C159.651 26.4155 159.759 26.365 159.936 26.2891C160.125 26.2005 160.282 26.1562 160.404 26.1562ZM156.863 20.4074C156.076 20.4074 155.445 20.6414 154.97 21.1094C154.495 21.5774 154.21 22.2351 154.115 23.0826H159.366C159.325 22.2225 159.088 21.5647 158.653 21.1094C158.233 20.6414 157.636 20.4074 156.863 20.4074Z" fill="#A6B8D5"/>
<path d="M168.166 27.1239C168.464 27.1492 168.674 27.2251 168.796 27.3516C168.932 27.4654 169 27.6298 169 27.8449C169 28.0978 168.891 28.2939 168.674 28.433C168.471 28.5595 168.166 28.6101 167.759 28.5848L167.209 28.5469C166.11 28.471 165.289 28.1611 164.747 27.6172C164.204 27.0606 163.933 26.2448 163.933 25.1696V20.7109H162.712C162.115 20.7109 161.816 20.4643 161.816 19.971C161.816 19.7433 161.891 19.5662 162.04 19.4397C162.203 19.3006 162.427 19.231 162.712 19.231H163.933V17.2768C163.933 16.9859 164.021 16.7582 164.197 16.5937C164.387 16.4293 164.638 16.3471 164.95 16.3471C165.262 16.3471 165.513 16.4293 165.703 16.5937C165.893 16.7582 165.988 16.9859 165.988 17.2768V19.231H168.003C168.288 19.231 168.505 19.3006 168.654 19.4397C168.817 19.5662 168.898 19.7433 168.898 19.971C168.898 20.2113 168.817 20.3947 168.654 20.5212C168.505 20.6477 168.288 20.7109 168.003 20.7109H165.988V25.3025C165.988 25.8969 166.117 26.3333 166.375 26.6116C166.646 26.8899 167.053 27.048 167.596 27.0859L168.166 27.1239Z" fill="#A6B8D5"/>
<defs>
<filter id="filter0_d" x="0" y="23" width="302" height="76" filterUnits="userSpaceOnUse" color-interpolation-filters="sRGB">
<feFlood flood-opacity="0" result="BackgroundImageFix"/>
<feColorMatrix in="SourceAlpha" type="matrix" values="0 0 0 0 0 0 0 0 0 0 0 0 0 0 0 0 0 0 127 0" result="hardAlpha"/>
<feOffset/>
<feGaussianBlur stdDeviation="10"/>
<feColorMatrix type="matrix" values="0 0 0 0 0 0 0 0 0 0 0 0 0 0 0 0 0 0 0.06 0"/>
<feBlend mode="normal" in2="BackgroundImageFix" result="effect1_dropShadow"/>
<feBlend mode="normal" in="SourceGraphic" in2="effect1_dropShadow" result="shape"/>
</filter>
<filter id="filter1_d" x="0" y="66" width="302" height="76" filterUnits="userSpaceOnUse" color-interpolation-filters="sRGB">
<feFlood flood-opacity="0" result="BackgroundImageFix"/>
<feColorMatrix in="SourceAlpha" type="matrix" values="0 0 0 0 0 0 0 0 0 0 0 0 0 0 0 0 0 0 127 0" result="hardAlpha"/>
<feOffset/>
<feGaussianBlur stdDeviation="10"/>
<feColorMatrix type="matrix" values="0 0 0 0 0 0 0 0 0 0 0 0 0 0 0 0 0 0 0.06 0"/>
<feBlend mode="normal" in2="BackgroundImageFix" result="effect1_dropShadow"/>
<feBlend mode="normal" in="SourceGraphic" in2="effect1_dropShadow" result="shape"/>
</filter>
<filter id="filter2_d" x="0" y="109" width="302" height="76" filterUnits="userSpaceOnUse" color-interpolation-filters="sRGB">
<feFlood flood-opacity="0" result="BackgroundImageFix"/>
<feColorMatrix in="SourceAlpha" type="matrix" values="0 0 0 0 0 0 0 0 0 0 0 0 0 0 0 0 0 0 127 0" result="hardAlpha"/>
<feOffset/>
<feGaussianBlur stdDeviation="10"/>
<feColorMatrix type="matrix" values="0 0 0 0 0 0 0 0 0 0 0 0 0 0 0 0 0 0 0.06 0"/>
<feBlend mode="normal" in2="BackgroundImageFix" result="effect1_dropShadow"/>
<feBlend mode="normal" in="SourceGraphic" in2="effect1_dropShadow" result="shape"/>
</filter>
<linearGradient id="paint0_linear" x1="156" y1="43" x2="159.817" y2="79.23" gradientUnits="userSpaceOnUse">
<stop stop-color="#466392" stop-opacity="0.35"/>
<stop offset="1" stop-color="#466392" stop-opacity="0.78"/>
</linearGradient>
<linearGradient id="paint1_linear" x1="61.9407" y1="88.5117" x2="279.671" y2="127.167" gradientUnits="userSpaceOnUse">
<stop stop-color="#466392" stop-opacity="0.32"/>
<stop offset="1" stop-color="#466392" stop-opacity="0.78"/>
</linearGradient>
<linearGradient id="paint2_linear" x1="61.9407" y1="131.512" x2="279.671" y2="170.167" gradientUnits="userSpaceOnUse">
<stop stop-color="#466392" stop-opacity="0.32"/>
<stop offset="1" stop-color="#466392" stop-opacity="0.78"/>
</linearGradient>
</defs>
</svg>
