<svg width="108" height="108" viewBox="0 0 108 108" fill="none" xmlns="http://www.w3.org/2000/svg">
<path d="M84.259 101.018H18.9949C12.477 101.018 7.17188 95.7129 7.17188 89.1844V21.1916H9.70313V89.1844C9.70313 94.3102 13.8691 98.4762 18.9949 98.4762H84.259C91.9266 98.4762 98.1598 92.243 98.1598 84.5754V35.0004C98.1598 27.3328 91.9266 21.0996 84.259 21.0996H66.1184V18.5684H84.259C88.6254 18.5684 92.7492 20.277 95.8605 23.3883C98.9719 26.4996 100.691 30.6234 100.691 35.0004V84.586C100.691 88.9629 98.9719 93.0867 95.8605 96.1981C92.7492 99.2989 88.6254 101.018 84.259 101.018Z" fill="#223355"/>
<path d="M90.426 21.0996H7.12964L7.40386 19.6019C8.6062 13.1367 14.2593 6.5918 20.83 6.5918H76.7046C80.3538 6.5918 83.7815 8.01562 86.3655 10.5996C88.3378 12.6035 89.635 16.923 90.1307 19.6019L90.426 21.0996ZM10.2937 18.5683H87.2725C86.7346 16.9652 85.8171 13.6266 84.5831 12.382C82.4843 10.2832 79.6893 9.12305 76.7151 9.12305H20.8406C16.0101 9.12305 11.7914 14.0964 10.2937 18.5683ZM98.9507 78.0469H55.7507C51.8695 78.0469 48.2097 76.5281 45.4464 73.7543C42.6832 70.991 41.1644 67.3313 41.1644 63.4606V57.0059C41.1644 53.1352 42.6832 49.4754 45.4464 46.7121C48.2097 43.9488 51.8695 42.4195 55.7507 42.4195H98.9507C99.1511 42.4195 99.4043 42.4195 99.6679 42.4723L100.68 42.6727V77.7727L99.6679 77.973C99.4148 78.0469 99.1617 78.0469 98.9507 78.0469ZM55.7507 44.9613C49.1062 44.9613 43.6957 50.3719 43.6957 57.0164V63.4711C43.6957 70.1156 49.1062 75.5262 55.7507 75.5262H98.1597V44.9613H55.7507Z" fill="#223355"/>
<circle cx="62.4221" cy="60.4403" r="4.95413" fill="#3D75E3"/>
<path d="M60.8028 68.4176C56.3099 68.4176 52.6606 64.7683 52.6606 60.2754C52.6606 55.7824 56.3099 52.1332 60.8028 52.1332C65.2958 52.1332 68.945 55.7824 68.945 60.2754C68.945 64.7683 65.2958 68.4176 60.8028 68.4176ZM60.8028 54.6644C57.7126 54.6644 55.1919 57.1851 55.1919 60.2754C55.1919 63.3656 57.7126 65.8863 60.8028 65.8863C63.8931 65.8863 66.4138 63.3656 66.4138 60.2754C66.4138 57.1851 63.9036 54.6644 60.8028 54.6644Z" fill="#223355"/>
<path d="M20.9458 33.8342C20.9458 33.1352 21.5124 32.5686 22.2114 32.5686C22.9104 32.5686 23.4771 33.1352 23.4771 33.8342V78.437C23.4771 79.136 22.9104 79.7026 22.2114 79.7026C21.5124 79.7026 20.9458 79.136 20.9458 78.437V33.8342Z" fill="#858585"/>
<path d="M15 15C14.4477 15 14 14.5523 14 14C14 13.4477 14.4477 13 15 13L78 13C78.5523 13 79 13.4477 79 14C79 14.5523 78.5523 15 78 15L15 15Z" fill="#858585"/>
</svg>
